<svg width="229" height="81" viewBox="0 0 229 81" fill="none" xmlns="http://www.w3.org/2000/svg">
<path fill-rule="evenodd" clip-rule="evenodd" d="M176.619 78.325C198.5 79 189 79.2902 229 79.2902C229 79.5407 229 79.7912 229 80.0412C178.95 80.3602 183 81 174.602 81C174.602 79.4992 174.602 78.3361 174.602 77.173C174.602 66.753 174.593 56.3325 174.606 45.9132C174.61 43.402 174.626 40.8879 174.739 38.3796C174.938 33.9637 173.218 30.2432 170.335 27.1296C169.037 25.7271 167.012 25.0265 165.458 23.8247C164.003 22.6997 162.469 21.5196 161.432 20.0398C158.027 15.1895 154.707 10.3012 150.486 6.08023C148.99 4.58464 147.327 3.8424 145.296 3.56786C133.452 1.9716 121.539 2.09102 109.634 2.17121C101.137 2.22916 92.6352 2.35326 84.2005 3.61002C82.3781 3.88163 80.8678 4.58345 79.5286 5.90636C75.4607 9.92542 72.1046 14.4947 69.0032 19.2589C67.6553 21.3293 66.1023 23.0316 63.8574 24.207C59.2388 26.6262 56.1363 30.2906 55.332 35.6033C55.2289 36.2811 55.2459 36.9812 55.2459 37.6719C55.2435 51.4477 55.2476 65.2229 55.25 78.9998C55.2506 79.5313 55.25 80.0635 55.25 80.7706C23.3926 80.7969 31.6922 80.9058 0.00351429 79.7368C0.00234265 79.5683 0.00117164 79.3996 0 79.2316C31.0085 78.9261 22.0165 78.6205 53.2324 78.3138C53.2324 77.8086 53.2324 77.2309 53.2324 76.6543C53.2353 63.8163 53.3578 50.9765 53.1926 38.1402C53.1035 31.1481 56.1597 26.1697 62.0929 22.9414C64.6752 21.5366 66.5545 19.7044 68.1573 17.3097C71.2346 12.7123 74.5667 8.30224 78.6353 4.49274C80.429 2.81335 82.4073 1.84048 84.8947 1.48634C95.9497 -0.088274 107.069 -0.0472933 118.183 0.0288031C124.702 0.0727048 131.222 0.35543 137.734 0.68206C140.588 0.826057 143.474 1.12928 146.246 1.78078C147.885 2.16536 149.538 3.13412 150.823 4.25508C155.282 8.14477 158.779 12.8832 162.014 17.8008C163.376 19.8712 164.928 21.5846 167.25 22.6259C170.11 23.909 172.302 26.1164 174.063 28.6194C175.661 30.8923 176.602 33.5721 176.613 36.3841C176.665 49.7069 176.626 63.0301 176.62 76.3523C176.619 77.0278 176.619 77.7021 176.619 78.325Z" fill="#A3D2FC"/>
<path fill-rule="evenodd" clip-rule="evenodd" d="M155.754 80.819C128.445 80.819 101.383 80.819 74.1368 80.819C74.1368 78.82 74.1368 76.8784 74.1368 74.7706C71.1539 74.7706 68.3513 74.7712 65.5493 74.7706C61.3976 74.77 59.0678 73.1286 57.8857 69.1827C57.2272 66.9865 56.7703 64.7299 56.4844 62.4277C57.3889 64.1692 58.2237 65.9516 59.2231 67.6356C59.8458 68.684 60.5769 69.7646 61.5177 70.5004C62.3924 71.1835 63.598 71.7729 64.6782 71.8098C70.9494 72.0246 77.2264 72.0469 83.5011 72.1716C85.8069 72.2178 87.8837 71.5757 89.8122 70.3611C92.0072 68.9779 94.2029 67.5946 96.5778 66.4321C95.2486 67.6883 93.9199 68.9451 92.3552 70.4243C107.493 70.4243 122.307 70.4243 137.49 70.4243C135.895 68.9205 134.551 67.6532 133.206 66.3853C133.254 66.3116 133.302 66.2372 133.35 66.1635C134.934 67.1627 136.579 68.0788 138.09 69.1781C141.128 71.3872 144.42 72.3759 148.218 72.1921C153.596 71.9333 158.989 71.8959 164.375 71.9286C166.657 71.9421 168.336 71.043 169.498 69.2594C170.731 67.3664 171.732 65.3223 172.827 63.3403C172.988 63.0488 173.103 62.7327 173.357 62.4675C172.964 65.6326 172.52 68.8134 170.899 71.5997C169.72 73.6256 167.76 74.7196 165.346 74.753C162.727 74.7887 160.107 74.7664 157.487 74.77C156.956 74.7705 156.424 74.77 155.755 74.77C155.754 76.8439 155.754 78.751 155.754 80.819ZM153.226 74.7706C150.769 74.7706 148.489 74.9099 146.236 74.722C144.7 74.5938 143.203 74.0067 141.688 73.6274C140.802 73.4043 139.916 72.9958 139.029 72.9934C122.973 72.9425 106.917 72.9372 90.8614 72.9425C90.1889 72.9431 89.4062 72.9548 88.862 73.2773C86.729 74.5417 84.4467 74.8794 82.0231 74.7846C80.2194 74.7138 78.4104 74.7706 76.6213 74.7706C76.6213 76.162 76.6213 77.3186 76.6213 78.542C102.203 78.542 127.672 78.542 153.225 78.542C153.226 77.2782 153.226 76.1222 153.226 74.7706Z" fill="#A3D2FC"/>
<path fill-rule="evenodd" clip-rule="evenodd" d="M92.6186 64.6816C89.4493 66.1602 86.3158 67.7232 83.092 69.0724C81.9473 69.5512 80.587 69.6554 79.3205 69.6741C76.6046 69.7145 73.887 69.5758 71.1694 69.5336C66.6533 69.4628 63.1267 67.2596 60.2011 64.115C59.4191 63.2739 59.0061 61.5921 59.2082 60.4337C59.7044 57.5889 60.5462 54.7862 61.4683 52.0397C62.0283 50.372 63.1918 49.8844 64.8537 50.0887C69.006 50.5985 73.1548 51.1353 77.3123 51.5989C80.1201 51.9127 82.6983 52.7737 85.0234 54.3963C86.6831 55.5548 88.3913 56.6441 90.0468 57.8084C92.2149 59.3344 94.5594 60.0796 97.2559 60.0649C109.065 60.0023 120.875 60.0093 132.685 60.0614C135.322 60.0731 137.64 59.3526 139.749 57.8318C140.271 57.4554 140.833 57.1288 141.314 56.7091C146.333 52.3382 152.46 51.277 158.799 50.7941C160.767 50.6436 162.725 50.3439 164.689 50.1191C166.753 49.8821 167.846 50.3691 168.526 52.2973C169.376 54.7095 170.093 57.1856 170.636 59.6839C171.119 61.9088 170.395 63.7708 168.541 65.3121C165.307 67.9994 161.78 69.5542 157.485 69.6074C145.721 69.7543 149.118 70.2331 138.55 65.2822C138.109 65.075 137.684 64.8332 137.323 64.3685C139.346 64.9339 141.428 65.3472 143.381 66.0929C148.611 68.0902 154.012 67.6137 159.362 67.2314C162.822 66.9844 165.459 64.797 167.679 62.2553C168.088 61.7865 168.218 60.8165 168.074 60.1679C167.594 58.0092 167.036 55.8521 166.272 53.7811C166.046 53.17 164.998 52.4061 164.395 52.4612C159.345 52.9201 154.247 53.2496 149.298 54.2693C146.969 54.7493 144.752 56.4287 142.806 57.9717C139.208 60.8265 135.301 61.8936 130.714 61.8081C119.499 61.5986 108.278 61.6899 97.0608 61.7689C93.8441 61.7918 91.0621 60.8944 88.5114 58.9967C86.9684 57.8482 85.324 56.8373 83.7329 55.7526C81.2965 54.0914 78.5689 53.3708 75.6597 53.1378C72.7142 52.9025 69.7734 52.5929 66.8349 52.285C64.8953 52.0807 63.8309 52.6467 63.2052 54.5146C62.6575 56.146 62.2585 57.8271 61.8127 59.4913C61.3833 61.094 61.9111 62.3068 63.1537 63.422C66.1103 66.076 69.4448 67.1992 73.4729 67.5142C79.8431 68.0123 85.703 66.3616 91.6233 64.6096C91.8986 64.5283 92.1775 64.458 92.4551 64.3825C92.5084 64.4826 92.5635 64.5821 92.6186 64.6816Z" fill="#A3D2FC"/>
<path fill-rule="evenodd" clip-rule="evenodd" d="M110.745 56.0651C106.497 56.0651 102.249 56.0832 98.0002 56.0575C96.0511 56.0452 94.3657 55.3949 92.924 53.9982C91.2937 52.4189 89.5286 50.9789 87.8403 49.4576C86.4261 48.1833 86.2691 46.69 87.3927 45.1324C87.9985 44.2924 88.6733 43.5028 89.3107 42.6856C90.6165 41.0144 92.3529 40.1961 94.4483 40.168C103.985 40.0369 113.522 39.8782 123.059 39.8291C127.059 39.8086 131.062 40.0117 135.061 40.1563C138.384 40.2763 141.932 42.9543 142.995 46.1205C143.386 47.2836 143.211 48.3758 142.251 49.2322C140.225 51.0404 138.3 52.9931 136.106 54.5713C134.942 55.4083 133.317 55.931 131.875 55.9925C127.584 56.1751 123.281 56.0581 118.961 55.8081C120.824 55.6185 122.684 55.4194 124.547 55.2403C126.958 55.0091 129.368 54.7878 131.781 54.5742C133.524 54.4197 134.992 53.7769 136.205 52.4575C137.306 51.2599 138.524 50.1676 139.713 49.0549C140.722 48.1136 140.751 47.1987 139.949 46.0637C137.835 43.0673 135.302 41.3129 131.327 41.3855C119.867 41.5957 108.4 41.5272 96.9357 41.4827C93.101 41.4681 91.3318 44.1859 89.4958 46.796C89.2182 47.1905 89.5737 48.3712 90.0073 48.8588C91.3494 50.3678 92.7331 51.9132 94.3681 53.064C95.5468 53.8934 97.1197 54.3675 98.5754 54.5595C102.147 55.0325 105.753 55.245 109.343 55.5769C109.827 55.6214 110.302 55.7537 110.782 55.8444C110.769 55.9187 110.758 55.9919 110.745 56.0651Z" fill="#A3D2FC"/>
<path fill-rule="evenodd" clip-rule="evenodd" d="M149.132 7.95961C152.695 11.5063 155.645 15.4733 157.935 19.9021C158.772 21.5206 158.043 22.2564 155.908 22.2131C141.193 21.9139 126.479 21.5967 111.763 21.3579C106.288 21.2689 100.808 21.2747 95.3344 21.4129C88.0873 21.5955 80.8448 21.9537 73.5994 22.2265C71.774 22.295 71.1073 21.3163 71.9767 19.7183C74.3657 15.3287 77.2625 11.2973 80.7827 7.70557C78.3328 11.7914 75.7453 15.8034 73.75 20.543C75.1401 20.543 76.1055 20.5606 77.0692 20.5401C85.1635 20.3651 93.2583 20.0806 101.354 20.0267C113.351 19.9477 125.349 19.9782 137.346 20.0677C142.925 20.1093 148.502 20.4072 154.08 20.5723C155.97 20.6285 156.186 20.3329 155.264 18.667C153.475 15.4329 151.599 12.2468 149.759 9.04134C149.552 8.67901 149.341 8.3196 149.132 7.95961Z" fill="#A3D2FC"/>
<path fill-rule="evenodd" clip-rule="evenodd" d="M85.3719 39.4553C81.4639 39.0139 77.556 38.5755 73.6485 38.1306C69.9239 37.7068 66.2004 37.2649 62.474 36.8563C60.9995 36.6948 60.6439 37.204 61.3247 38.5368C62.491 40.8215 64.4723 41.9881 66.9286 42.4535C71.3187 43.2865 75.7089 44.1194 80.0691 45.1724C77.7991 44.8763 75.5296 44.5795 73.2601 44.285C70.7704 43.9619 68.2772 43.6617 65.7909 43.3146C61.9784 42.7819 59.1606 40.2315 58.3341 36.6608C58.0868 35.5943 58.2761 35.0142 59.5356 35.1869C65.7423 36.0386 71.9579 36.8288 78.1558 37.7367C80.5805 38.092 82.9677 38.7002 85.3719 39.1919C85.3719 39.2803 85.3719 39.3681 85.3719 39.4553Z" fill="#A3D2FC"/>
<path fill-rule="evenodd" clip-rule="evenodd" d="M144.311 39.0329C149.364 38.2075 154.409 37.3283 159.474 36.5755C163.118 36.0341 166.788 35.6817 170.442 35.2017C171.591 35.0501 171.797 35.6495 171.531 36.4994C170.696 39.164 169.432 41.6237 166.522 42.4139C163.687 43.1825 160.767 43.6654 157.863 44.1366C155.162 44.5756 152.432 44.8338 149.685 44.9497C154.139 44.1073 158.576 43.1626 163.052 42.4595C165.715 42.0416 167.385 40.5045 168.691 38.3802C168.903 38.0343 168.906 37.4208 168.744 37.0421C168.659 36.8395 168.003 36.7746 167.625 36.8173C159.885 37.6912 152.148 38.5892 144.41 39.4836C144.376 39.3326 144.344 39.1821 144.311 39.0329Z" fill="#A3D2FC"/>
<path fill-rule="evenodd" clip-rule="evenodd" d="M165.118 59.1727C164.581 59.5344 164.06 60.1848 163.505 60.2152C157.106 60.5717 150.702 60.8351 144.289 61.0084C150.968 58.7951 157.929 59.1294 164.795 58.6143C164.903 58.801 165.011 58.9865 165.118 59.1727Z" fill="#A3D2FC"/>
<path fill-rule="evenodd" clip-rule="evenodd" d="M85.4523 61.1172C79.1108 60.835 72.7669 60.5775 66.4284 60.2251C65.839 60.1923 65.2843 59.5478 64.8203 58.8975C71.7992 59.1421 78.761 58.7734 85.4523 61.1172Z" fill="#A3D2FC"/>
<path fill-rule="evenodd" clip-rule="evenodd" d="M71.0519 41.4827C71.2194 40.6363 71.35 39.9731 71.5035 39.1934C72.0794 39.2572 72.5908 39.3139 73.3125 39.3935C72.3711 41.8357 73.9798 41.8427 75.5586 42.1764C77.1022 42.5036 78.0665 42.3022 79.0987 40.9436C79.5896 40.2979 81.1262 40.446 82.3248 40.2078C81.9926 42.4977 80.9422 43.2944 79.1491 43.0556C75.3377 42.548 71.5246 42.0528 67.7121 41.5565C65.5844 41.279 63.8703 40.4226 62.9424 38.1649C64.1293 38.1584 65.0625 38.087 65.691 39.3385C66.7783 41.5032 69.0367 41.0361 71.0519 41.4827Z" fill="#A3D2FC"/>
<path fill-rule="evenodd" clip-rule="evenodd" d="M147.461 40.5516C148.556 40.4228 149.527 40.3093 150.479 40.1975C152.075 42.7783 152.081 42.7801 156.664 41.638C156.664 40.9473 156.664 40.2338 156.664 39.3944C157.202 39.3235 157.717 39.2551 158.329 39.1743C158.469 39.9382 158.59 40.6008 158.74 41.4197C160.949 41.0896 163.298 41.4203 164.658 38.922C164.945 38.3946 165.958 38.2611 166.781 37.8789C166.353 39.6291 164.591 41.1299 162.673 41.4238C158.77 42.0214 154.859 42.5828 150.942 43.0862C148.949 43.342 148.014 42.6325 147.461 40.5516Z" fill="#A3D2FC"/>
<path fill-rule="evenodd" clip-rule="evenodd" d="M168.378 21.9249C169.592 21.7675 170.811 21.6463 172.016 21.4385C172.702 21.3203 173.73 21.7171 173.81 20.4574C173.896 19.0912 173.037 17.4604 172.005 17.3954C170.137 17.2772 168.235 17.1847 166.392 17.4223C165.643 17.5189 165.008 18.5064 164.407 19.0151C164.187 17.3703 164.98 16.2288 166.717 16.1638C168.293 16.1047 169.876 16.2475 171.456 16.2329C173.314 16.2165 174.415 17.1344 174.897 18.8658C175.082 19.5285 175.19 20.211 175.351 20.8801C175.602 21.915 175.19 22.3622 174.142 22.3522C172.218 22.3329 170.294 22.3464 168.37 22.3464C168.372 22.2053 168.375 22.0654 168.378 21.9249Z" fill="#A3D2FC"/>
<path fill-rule="evenodd" clip-rule="evenodd" d="M69.6953 24.2192C77.0819 26.6613 83.7632 30.0798 87.5921 37.3827C82.5072 31.789 76.1967 27.88 69.6953 24.2192Z" fill="#A3D2FC"/>
<path fill-rule="evenodd" clip-rule="evenodd" d="M160.125 24.228C153.636 27.8988 147.305 31.7856 142.234 37.3892C146.059 30.1179 152.709 26.6567 160.125 24.228Z" fill="#A3D2FC"/>
<path fill-rule="evenodd" clip-rule="evenodd" d="M61.3867 22.338C59.5127 22.338 57.6386 22.3076 55.7652 22.3497C54.7078 22.3731 54.2696 21.9224 54.5022 20.9156C54.7341 19.9135 55.0083 18.9166 55.3422 17.9443C55.7236 16.8298 56.6369 16.3493 57.747 16.2878C59.3715 16.1971 61.0001 16.1333 62.6269 16.1379C64.6884 16.1438 65.3861 16.886 65.488 19.2034C63.3738 15.9377 60.2654 17.5715 57.5707 17.4333C56.6685 17.3871 55.5818 19.9106 56.0563 20.7857C56.2485 21.1392 56.9198 21.3301 57.4031 21.4079C58.7423 21.6239 60.0979 21.7421 61.4464 21.8996C61.4271 22.0459 61.4066 22.1917 61.3867 22.338Z" fill="#A3D2FC"/>
<path fill-rule="evenodd" clip-rule="evenodd" d="M107.553 4.37623C107.812 4.26617 108.072 4.06009 108.331 4.0595C116.055 4.04252 123.779 4.04604 131.502 4.20938C126.124 4.20938 120.748 4.19181 115.371 4.21699C112.764 4.22928 110.157 4.32061 107.55 4.37564L107.553 4.37623Z" fill="#A3D2FC"/>
<path fill-rule="evenodd" clip-rule="evenodd" d="M107.55 4.375C104.559 4.375 101.568 4.375 98.5771 4.37558C101.568 4.37615 104.56 4.37616 107.552 4.37616C107.552 4.37616 107.55 4.375 107.55 4.375Z" fill="#A3D2FC"/>
</svg>
