<svg width="24" height="24" viewBox="0 0 24 24" fill="none" xmlns="http://www.w3.org/2000/svg">
<path d="M21.5307 8.66667H19.1921L18.5421 6.93333C17.8741 5.15125 16.28 4 14.4803 4H9.5194C7.72018 4 6.12564 5.15125 5.45728 6.93333L4.80728 8.66667H2.469C2.16392 8.66667 1.94009 8.9725 2.01431 9.28792L2.24869 10.2879C2.30064 10.5104 2.48814 10.6667 2.70337 10.6667H3.48736C2.96275 11.1554 2.62486 11.8658 2.62486 12.6667V14.6667C2.62486 15.3383 2.86548 15.9446 3.24986 16.4137V18.6667C3.24986 19.4029 3.80963 20 4.49986 20H5.74986C6.4401 20 6.99986 19.4029 6.99986 18.6667V17.3333H16.9999V18.6667C16.9999 19.4029 17.5596 20 18.2499 20H19.4999C20.1901 20 20.7499 19.4029 20.7499 18.6667V16.4137C21.1343 15.945 21.3749 15.3387 21.3749 14.6667V12.6667C21.3749 11.8658 21.037 11.1554 20.5128 10.6667H21.2968C21.512 10.6667 21.6995 10.5104 21.7514 10.2879L21.9858 9.28792C22.0597 8.9725 21.8358 8.66667 21.5307 8.66667ZM7.77838 7.92375C8.06315 7.16458 8.7526 6.66667 9.5194 6.66667H14.4803C15.2471 6.66667 15.9366 7.16458 16.2214 7.92375L16.9999 10H6.99986L7.77838 7.92375ZM5.74986 14.6583C4.99986 14.6583 4.49986 14.1267 4.49986 13.3292C4.49986 12.5317 4.99986 12 5.74986 12C6.49986 12 7.62487 13.1963 7.62487 13.9938C7.62487 14.7913 6.49986 14.6583 5.74986 14.6583ZM18.2499 14.6583C17.4999 14.6583 16.3749 14.7913 16.3749 13.9938C16.3749 13.1963 17.4999 12 18.2499 12C18.9999 12 19.4999 12.5317 19.4999 13.3292C19.4999 14.1267 18.9999 14.6583 18.2499 14.6583Z" fill="#99ABB4"/>
</svg>
