<svg width="245" height="59" viewBox="0 0 245 59" fill="none" xmlns="http://www.w3.org/2000/svg">
<path fill-rule="evenodd" clip-rule="evenodd" d="M203.851 52.7527C211.495 52.7527 218.97 52.7527 226.764 52.7527C225.236 53.8281 223.82 54.2298 222.301 54.2807C218.968 54.3924 215.635 54.497 212.301 54.5613C209.536 54.6145 206.768 54.6542 204.002 54.6011C202.861 54.5796 201.945 54.7887 201.231 55.731C200.901 56.1662 200.439 56.5031 199.957 56.9602C213.5 57.5 218.695 57.4632 245 57.7143C245 57.839 245 57.9637 245 58.0883C216.747 58.6714 213.5 59 194.168 58.7549C198.506 56.9928 201.839 54.1529 203.806 49.8999C205.773 45.6468 205.905 41.2821 204.202 36.9334C201.542 30.1434 194.695 25.8895 187.509 26.4458C180.222 27.0101 174.16 32.0982 172.506 39.0731C171.516 43.248 172.047 47.2464 174.144 50.9941C176.207 54.6815 179.299 57.2206 183.245 58.7951C141.442 58.7951 99.6383 58.7951 57.4707 58.7951C62.5813 56.8587 66.0658 53.6548 67.9326 48.8611C69.2758 45.414 69.4208 41.8857 68.3666 38.3283C66.3321 31.4628 60.1039 26.3676 52.4517 26.4051C44.4797 26.444 38.106 31.6 36.1883 39.0664C34.6053 45.2304 36.8949 54.816 46.9539 59.0002C31.3037 58.767 15.6534 58.5338 0.00359337 58.3005C0.00224576 58.0972 0.00134761 57.8944 0 57.6911C13.6625 57.4418 27.3246 57.1925 40.8883 56.9454C39.6966 55.5295 38.4379 54.0135 37.1451 52.5266C37.0036 52.3635 36.6734 52.3304 36.4232 52.2969C29.5913 51.3895 22.7616 50.4628 15.9243 49.5992C11.9803 49.101 10.0482 47.5001 9.38701 43.5741C7.96528 35.1243 8.92164 27.0628 13.6589 19.6732C14.0834 19.0111 14.313 18.1773 14.45 17.3919C14.6768 16.0881 15.5595 15.157 17.1915 14.9716C21.1809 14.5181 25.1702 14.0186 29.174 13.7447C34.6489 13.3703 40.135 13.1138 45.6207 12.9391C56.9294 12.579 67.9816 14.1517 78.7751 17.5264C78.9529 17.5822 79.1156 17.6872 79.2054 17.731C74.5822 17.1015 69.8786 16.4688 65.1772 15.82C55.6375 14.5038 46.0591 14.4872 36.4749 15.086C30.2858 15.4724 24.1079 16.0318 17.9237 16.4996C16.7369 16.5894 16.0231 17.0188 16.0186 18.3614C16.0173 18.9168 15.723 19.532 15.4032 20.0164C10.5581 27.3496 9.67585 35.3459 11.3707 43.7645C11.7503 45.6504 13.3166 46.9439 15.4297 47.1454C21.1611 47.6909 26.897 48.1837 32.6311 48.6949C33.4935 48.7717 34.3578 48.8352 35.293 48.9107C32.99 39.4305 35.4916 31.7671 44.2699 27.1218C51.0372 23.5407 57.8098 24.4955 63.8458 29.2458C67.266 31.9378 69.3018 35.568 70.0605 39.855C70.8156 44.1224 70.0345 48.1574 67.8769 52.0655C103.052 52.0655 138.042 52.0655 173.191 52.0655C170.567 47.2155 169.993 42.2668 171.734 37.1345C173 33.4042 175.313 30.4276 178.576 28.2213C185.235 23.7198 193.937 24.1653 200.166 29.2038C205.692 33.6754 209.453 43.1434 203.851 52.7527ZM63.6077 57.0312C101.627 57.0312 139.463 57.0312 177.28 57.0312C176.75 56.4481 176.207 55.9316 175.762 55.3423C175.155 54.5381 174.393 54.3428 173.411 54.3526C169.243 54.3942 165.074 54.3531 160.905 54.354C139.492 54.3585 118.078 54.3674 96.6646 54.3728C86.9618 54.375 77.2599 54.3674 67.5571 54.3853C67.0185 54.3862 66.3546 54.4156 65.9683 54.7132C65.1458 55.3468 64.467 56.1657 63.6077 57.0312Z" fill="#A3D2FC"/>
<path fill-rule="evenodd" clip-rule="evenodd" d="M227.165 50.4407C226.975 46.8891 226.785 43.338 226.59 39.6841C224.3 39.6841 222.112 39.5965 219.941 39.7444C219.386 39.7824 218.683 40.4651 218.394 41.0276C217.57 42.6338 216.906 44.3227 216.213 45.9942C215.74 47.1371 216.134 48.2822 217.348 48.645C219.51 49.2911 221.733 49.7361 223.932 50.2597C224.441 50.3808 224.957 50.4782 225.441 50.6869C221.442 51.3879 217.683 50.6248 214.068 49.0275C212.87 48.4985 212.303 46.8806 212.922 45.6314C214.027 43.4028 215.186 41.1978 216.404 39.0282C217.079 37.8263 218.341 37.6655 219.583 37.6775C221.439 37.6954 223.296 37.7772 225.151 37.8272C225.52 37.837 225.891 37.8285 226.41 37.8285C226.269 36.565 226.142 35.4292 226.007 34.214C224.216 34.214 222.549 34.1367 220.891 34.2318C218.328 34.3793 216.028 33.6675 213.868 32.379C212.699 31.6815 211.527 30.9872 210.389 30.2419C210.124 30.0681 209.992 29.6924 209.799 29.4096C210.133 29.3166 210.472 29.1312 210.801 29.1459C214.511 29.309 218.219 29.5056 221.928 29.6857C222.405 29.7085 222.883 29.6888 223.36 29.6888C223.395 29.5892 223.429 29.4895 223.464 29.3899C221.215 28.3783 219.027 27.1975 216.708 26.383C205.045 22.2854 193.105 19.4871 180.681 19.0001C175.611 18.8013 170.55 18.3277 165.48 18.1516C148.673 17.5681 131.864 17.082 115.056 16.5159C110.742 16.3707 106.435 16.0588 102.123 15.843C98.9519 15.6844 95.7742 15.6245 92.6083 15.4003C87.2928 15.0236 81.9132 14.9387 76.6966 13.9915C72.846 13.2918 69.2097 11.4202 65.4853 10.0508C65.1889 9.94219 64.9503 9.67858 64.4122 9.29032C65.1116 8.96326 65.5662 8.67821 66.0626 8.52853C72.1794 6.6846 78.4395 5.67127 84.8168 5.28032C91.5634 4.86704 98.3073 4.66955 105.004 5.74633C111.577 6.80345 117.69 9.21034 123.502 12.4018C123.6 12.4559 123.69 12.5247 123.74 12.7887C107.381 5.18605 90.3887 5.36879 73.1564 8.41996C72.8541 8.47357 72.5801 8.68491 72.1372 8.89758C72.4893 9.21749 72.6829 9.43195 72.9134 9.59459C73.5009 10.0079 74.1253 10.3707 74.6985 10.8023C77.0681 12.5886 79.6725 13.4178 82.7011 13.5085C88.9023 13.6939 95.0897 14.2962 101.29 14.5223C110.905 14.8726 120.527 15.0558 130.146 15.3006C132.456 15.3596 134.767 15.3842 137.078 15.4226C137.436 15.4289 137.795 15.4235 138.21 15.1693C136.568 14.277 134.945 13.3486 133.281 12.4997C128.97 10.3001 124.716 7.96646 120.299 5.99922C114.82 3.55971 108.936 2.56648 102.982 2.11254C94.0313 1.43073 85.0841 1.56432 76.2626 3.30772C69.2834 4.68698 62.3679 6.39731 55.4492 8.06252C48.9704 9.62184 42.5463 11.4139 35.8639 11.9626C32.7882 12.215 29.7197 12.5528 26.6104 12.6842C28.3447 12.2575 30.0782 11.8237 31.8148 11.405C37.3567 10.0695 42.8801 8.65185 48.4461 7.42673C57.6485 5.4014 66.837 3.26751 76.1095 1.61123C86.4483 -0.235824 96.904 -0.474413 107.358 0.790467C115.343 1.75689 122.836 4.29246 129.992 7.89631C134.856 10.3461 139.74 12.7552 144.627 15.1608C145.049 15.369 145.551 15.5061 146.021 15.5178C151.931 15.663 157.845 15.6969 163.752 15.9221C171.583 16.2206 179.425 16.4587 187.232 17.0887C200.47 18.1574 212.879 22.1616 224.624 28.2747C226.904 29.4614 228.031 31.2504 228.234 33.8507C228.63 38.9058 228.834 43.9327 227.748 48.9301C227.637 49.4403 227.496 49.9434 227.368 50.4501C227.302 50.4465 227.233 50.4438 227.165 50.4407ZM214.275 30.8067C216.63 33.0782 220.575 33.3552 224.524 32.929C224.734 31.3125 224.259 30.8044 222.875 31.1369C222.938 31.6118 223 32.0845 223.072 32.639C222.609 32.639 222.263 32.639 222.106 32.639C221.744 31.9366 221.459 31.383 221.173 30.8295C221.054 30.8835 220.935 30.9371 220.816 30.9908C220.926 31.5131 221.036 32.0354 221.156 32.6041C220.025 32.8892 219.453 32.3142 218.924 31.5618C218.712 31.2588 218.37 30.8599 218.065 30.8402C216.803 30.7593 215.532 30.8067 214.275 30.8067Z" fill="#A3D2FC"/>
<path fill-rule="evenodd" clip-rule="evenodd" d="M77.6407 36.2354C79.9788 37.074 82.3555 37.8201 84.6483 38.7682C90.9973 41.3945 97.6608 42.3815 104.46 42.8743C112.847 43.4819 121.222 44.2415 129.603 44.9389C138.475 45.6775 147.345 46.4201 156.217 47.1627C156.324 47.1716 156.431 47.1988 156.713 47.2484C154.48 47.2484 152.426 47.2962 150.374 47.2408C136.964 46.8776 123.557 46.4933 110.148 46.1131C106.021 45.9961 101.893 45.8853 97.7668 45.745C94.5124 45.6346 91.5247 44.6038 88.736 42.9887C85.234 40.9607 81.7545 38.8956 78.2673 36.8425C78.0275 36.7014 77.8051 36.5298 77.5742 36.3725C77.5958 36.3269 77.6182 36.2814 77.6407 36.2354Z" fill="#A3D2FC"/>
<path fill-rule="evenodd" clip-rule="evenodd" d="M166.029 36.2388C161.725 34.5936 157.402 32.9946 153.121 31.2909C148.683 29.5243 144.128 28.1321 139.406 27.4811C134.272 26.7734 129.101 26.2904 123.932 25.8834C116.644 25.3092 109.342 24.9151 102.05 24.4045C97.5631 24.0908 93.0845 23.6637 88.5979 23.3612C84.2159 23.0659 79.8276 22.8661 75.4425 22.6182C75.1451 22.6012 74.8509 22.5337 74.4893 22.4801C77.202 22.4801 79.842 22.4256 82.4788 22.4917C87.6222 22.6208 92.7642 22.8022 97.9058 22.9886C107.739 23.3447 117.571 23.6958 127.402 24.0939C134.981 24.4004 142.439 25.5505 149.489 28.385C155.161 30.6654 160.653 33.3886 166.226 35.9153C166.16 36.023 166.094 36.1311 166.029 36.2388Z" fill="#A3D2FC"/>
<path fill-rule="evenodd" clip-rule="evenodd" d="M24.723 20.8382C23.7405 20.4325 22.7761 19.975 21.7717 19.6359C20.739 19.2869 19.6667 19.0533 18.6277 18.6838C23.3282 18.1047 27.7717 18.9764 32.2597 21.0397C30.9018 22.3685 30.1031 23.8081 27.9119 23.6579C24.488 23.4234 21.0354 23.6048 17.5954 23.5829C17.0488 23.5798 16.2784 23.863 16.1499 22.9498C16.0583 22.2974 16.9778 21.2653 17.661 21.2578C19.9636 21.2318 22.2667 21.2479 24.5693 21.2479C24.6205 21.1116 24.6717 20.9749 24.723 20.8382Z" fill="#A3D2FC"/>
<path fill-rule="evenodd" clip-rule="evenodd" d="M204.467 30.6293C196.597 21.0411 182.434 20.6175 174.036 29.5168C176.173 25.8683 181.963 21.9624 188.231 21.8471C195.285 21.7175 200.609 24.8732 204.467 30.6293Z" fill="#A3D2FC"/>
<path fill-rule="evenodd" clip-rule="evenodd" d="M68.0166 30.4624C64.1516 26.0699 59.3398 23.499 53.4426 23.1814C47.5558 22.8642 42.5041 24.9208 38.1895 28.8686C42.0041 24.2452 46.8824 21.7172 52.9229 21.8571C59.4503 22.0081 64.4238 25.0901 68.0166 30.4624Z" fill="#A3D2FC"/>
<path fill-rule="evenodd" clip-rule="evenodd" d="M66.514 41.828C66.527 41.5514 66.5733 41.391 66.5347 41.2539C66.1713 39.9626 65.7939 38.6754 65.4206 37.3873C64.334 37.6603 63.2124 37.839 62.1689 38.2264C59.9911 39.036 57.8547 39.9559 55.6006 40.7124C56.5888 39.9921 57.5003 39.1151 58.5829 38.5847C60.7148 37.5401 62.9446 36.693 65.1287 35.752C65.6956 35.5076 66.0971 35.6122 66.2575 36.2279C66.7849 38.2559 67.3194 40.2821 67.7754 42.3257C67.8297 42.5679 67.4609 43.1269 67.2107 43.18C63.702 43.9226 60.1721 44.2537 56.6225 43.4316C56.4905 43.4012 56.3773 43.2926 56.3759 43.2922C58.9849 42.974 61.672 42.6608 64.3547 42.3088C65.059 42.2176 65.7477 42.0032 66.514 41.828Z" fill="#A3D2FC"/>
<path fill-rule="evenodd" clip-rule="evenodd" d="M192.718 43.3148C196.035 42.8975 199.415 42.4725 203.069 42.0132C202.652 40.2752 202.301 38.8106 201.921 37.2303C198.335 38.0193 195.177 39.3919 192.037 40.8417C194.863 38.0502 198.424 36.6713 202.202 35.5298C203.418 37.7571 204.068 40.042 204.083 42.49C204.084 42.7272 203.786 43.1347 203.568 43.1794C199.986 43.9139 196.389 44.291 192.774 43.3773C192.719 43.3635 192.685 43.2728 192.718 43.3148Z" fill="#A3D2FC"/>
<path fill-rule="evenodd" clip-rule="evenodd" d="M62.1253 53.4573C59.8024 50.6407 57.6314 48.0081 55.4784 45.3979C58.9534 47.2088 61.3477 50.1921 63.6791 53.3996C61.8544 55.4196 59.6699 56.7251 57.1894 57.5606C55.2812 55.3074 53.2292 49.5969 53.3573 46.9631C54.3275 49.0559 55.2915 51.1518 56.2703 53.2406C56.4936 53.7168 56.7622 54.1726 57.0223 54.631C57.9153 56.2042 57.9302 56.2243 59.5374 55.2498C60.3356 54.7655 61.0773 54.1882 62.1253 53.4573Z" fill="#A3D2FC"/>
<path fill-rule="evenodd" clip-rule="evenodd" d="M187.455 39.0239C187.094 37.898 186.578 36.7958 186.406 35.6421C186.075 33.4153 185.925 31.1608 185.733 28.9147C185.69 28.4112 185.635 27.8732 186.447 27.7767C188.655 27.5136 190.831 27.5855 192.963 28.2311C193.197 28.3022 193.522 28.6909 193.499 28.9C193.098 32.6245 192.292 36.231 190.25 39.4176C190.888 36.0576 191.528 32.6861 192.218 29.0514C190.421 28.9232 188.91 28.816 187.061 28.6842C187.238 32.2746 187.403 35.6189 187.569 38.9636C187.531 38.9842 187.493 39.0038 187.455 39.0239Z" fill="#A3D2FC"/>
<path fill-rule="evenodd" clip-rule="evenodd" d="M49.4021 40.3258C46.241 38.6244 43.3068 37.0454 40.1624 35.3534C39.569 36.8408 39.0659 38.0829 38.579 39.3312C38.3557 39.9036 38.6728 40.1337 39.189 40.2775C42.2714 41.1358 45.3489 42.0107 48.4709 42.974C46.7976 42.9007 45.1009 42.9748 43.4578 42.7148C41.5644 42.415 39.7204 41.8123 37.8508 41.3565C37.2012 41.1979 36.9614 40.8204 37.2017 40.2096C37.955 38.2969 38.7056 36.3828 39.5281 34.4996C39.6305 34.2659 40.2504 34.013 40.4786 34.1126C43.7857 35.5594 46.8614 37.355 49.4021 40.3258Z" fill="#A3D2FC"/>
<path fill-rule="evenodd" clip-rule="evenodd" d="M185.803 40.4314C182.78 38.7729 179.785 37.1296 176.508 35.3321C175.823 36.9803 175.231 38.4007 174.515 40.1231C178.082 41.0654 181.419 41.9474 184.698 42.8137C180.843 43.344 177.128 42.3955 173.391 41.0779C173.692 38.5468 174.559 36.3316 175.96 34.329C176.093 34.1378 176.642 34.0395 176.885 34.1481C180.256 35.6556 183.394 37.5053 185.803 40.4314Z" fill="#A3D2FC"/>
<path fill-rule="evenodd" clip-rule="evenodd" d="M182.186 56.8646C179.678 55.711 177.743 54.0936 176.144 51.8944C178.8 48.9469 181.65 46.3778 185.36 44.9253C182.848 47.2777 180.341 49.6256 177.639 52.1567C178.993 53.3009 180.152 54.2794 181.579 55.4858C183.543 52.4922 185.388 49.6814 187.312 46.7491C186.543 50.638 184.537 53.7714 182.186 56.8646Z" fill="#A3D2FC"/>
<path fill-rule="evenodd" clip-rule="evenodd" d="M39.8975 52.0004C41.493 49.4943 46.3036 45.8185 49.0442 45.0737C47.6637 46.2649 46.3691 47.3055 45.1648 48.4408C43.9331 49.6025 42.7894 50.8566 41.4279 52.2542C42.7171 53.3292 43.9053 54.3197 45.1913 55.392C46.3292 53.7997 47.3861 52.4235 48.3277 50.9737C49.2472 49.5582 50.049 48.0673 51.0346 46.3846C50.6595 49.0944 49.5639 51.2529 48.311 53.3408C47.7109 54.3412 46.9953 55.2718 46.3611 56.253C46.0268 56.7709 45.6751 56.8213 45.1361 56.5399C43.0194 55.4318 41.3102 53.8787 39.8975 52.0004Z" fill="#A3D2FC"/>
<path fill-rule="evenodd" clip-rule="evenodd" d="M189.604 46.9142C191.042 49.9238 192.509 52.9942 194.083 56.2889C195.625 55.3207 196.913 54.5116 198.467 53.5358C196.198 50.754 194.071 48.1474 191.758 45.312C192.75 45.9751 193.662 46.3861 194.306 47.0532C196.106 48.9168 197.793 50.8876 199.528 52.8128C199.943 53.2735 199.924 53.7082 199.405 54.0366C197.631 55.1581 195.852 56.2733 194.043 57.3358C193.836 57.4568 193.284 57.3411 193.128 57.1472C191.479 55.1013 189.61 49.5244 189.604 46.9142Z" fill="#A3D2FC"/>
<path fill-rule="evenodd" clip-rule="evenodd" d="M54.0028 39.1506C54.5944 35.9851 55.2188 32.647 55.8962 29.0262C54.2333 28.9342 52.8933 28.8515 51.5533 28.789C50.7825 28.7528 50.84 29.351 50.8647 29.8144C51.0156 32.6667 51.1953 35.5182 51.3719 38.3692C51.3876 38.6274 51.4437 38.883 51.3889 39.1546C49.6254 35.6491 49.3648 31.8897 49.4605 27.9485C51.9994 27.4182 54.4417 27.5335 56.853 28.2984C57.0161 28.3502 57.1684 28.6907 57.185 28.9074C57.3732 31.3607 55.4358 37.4041 54.0028 39.1506Z" fill="#A3D2FC"/>
<path fill-rule="evenodd" clip-rule="evenodd" d="M52.0628 44.449C51.7331 43.9544 51.1828 43.4835 51.124 42.9589C51.0337 42.1511 51.6531 41.6378 52.486 41.678C53.2775 41.716 53.8125 42.2883 53.6579 43.0237C53.5474 43.5532 52.972 43.9861 52.6037 44.462C52.424 44.4579 52.2434 44.453 52.0628 44.449Z" fill="#A3D2FC"/>
<path fill-rule="evenodd" clip-rule="evenodd" d="M190.208 43.1642C189.735 43.5306 189.308 44.1034 188.78 44.2164C187.963 44.392 187.406 43.8152 187.386 42.9868C187.367 42.2076 187.913 41.6352 188.651 41.7161C189.188 41.7751 189.672 42.3019 190.18 42.62C190.19 42.8014 190.199 42.9828 190.208 43.1642Z" fill="#A3D2FC"/>
</svg>
