<svg width="280" height="80" viewBox="0 0 280 80" fill="none" xmlns="http://www.w3.org/2000/svg">
<path fill-rule="evenodd" clip-rule="evenodd" d="M279.998 79.0751C253.543 79.6515 248.031 79.6515 236.552 79.9999C236.504 79.8838 236.455 79.7682 236.406 79.6515C240.755 76.1563 242.949 71.4538 244 66.1321C245.047 60.8248 244.672 55.6047 242.818 50.4904C242.945 52.4953 243.255 54.5084 243.162 56.5024C242.973 60.5793 242.605 64.6487 242.22 68.7129C242.136 69.6089 241.742 70.4967 241.381 71.3394C240.684 72.962 239.539 73.8105 237.646 73.7175C235.089 73.591 232.47 74.0202 229.967 73.628C221.078 72.2342 212.139 73.3906 203.244 72.8314C203.164 72.8262 203.079 72.9048 202.608 73.1295C204.484 75.3661 206.29 77.5172 208.1 79.6747C191.544 79.6747 174.84 79.6747 158.116 79.6747C158.594 77.7829 159.077 75.8733 159.605 73.7851C152.173 73.7851 145 73.7851 137.541 73.7851C138.034 75.8045 138.5 77.7124 138.988 79.7116C136.165 79.7116 133.302 79.7116 130.395 79.7116C131.887 77.8453 133.379 75.9795 134.87 74.1144C134.762 73.9734 134.653 73.8325 134.544 73.691C133.206 73.691 131.868 73.6748 130.531 73.695C128.31 73.7279 126.36 72.9805 124.616 71.6421C123.153 70.5198 122.411 69.093 122.319 67.162C122.063 61.7126 121.647 56.2713 121.3 50.8271C121.275 50.4424 121.296 50.0543 121.455 49.6447C122.236 54.2866 123.088 58.9186 123.781 63.5732C124.615 69.1658 126.928 71.2742 132.529 71.2765C141.716 71.2817 150.904 71.258 160.091 71.2926C162.337 71.3013 164.38 70.711 166.326 69.6441C169.196 68.0706 172.07 66.5052 175.094 65.1513C173.132 66.8102 171.17 68.4692 168.914 70.3783C187.268 70.3783 205.272 70.3783 223.516 70.3783C222.262 68.2537 221.099 66.2846 219.937 64.316C219.998 64.2721 220.06 64.2288 220.121 64.1849C221.542 65.6833 222.956 67.188 224.386 68.6783C226.003 70.3638 227.928 71.3227 230.309 71.2846C232.679 71.2476 235.049 71.2851 237.418 71.273C239.092 71.2643 239.627 70.7277 239.848 68.7487C237.867 68.7487 235.9 68.7043 233.936 68.7609C231.449 68.8313 229.418 68.0902 227.921 65.9501C226.929 64.532 225.734 63.2595 224.489 61.7502C227.093 63.3196 229.343 65.3309 231.946 66.0576C234.539 66.7819 237.487 66.2164 240.517 66.2164C240.698 64.6788 240.899 62.9765 241.12 61.1084C237.806 61.1084 234.656 61.1084 231.507 61.1084C231.496 60.9692 231.487 60.83 231.477 60.6902C234.62 60.3309 237.764 59.9711 241.072 59.5933C241.072 57.6149 241.072 55.5106 241.072 53.3144C235.422 53.1215 229.833 52.4907 225.092 56.496C223.989 57.4272 222.678 58.1099 221.457 58.8972C219.108 60.4112 216.753 61.4937 213.742 61.2095C210.225 60.8768 206.651 61.1517 203.102 61.1754C197.45 61.213 191.763 60.8831 186.152 61.3932C177.701 62.1603 170.098 59.8111 162.757 56.0848C158.321 53.8332 153.693 52.8714 148.75 53.1827C146.825 53.3035 144.883 53.1671 142.949 53.17C141.519 53.1729 140.471 53.7384 139.88 55.1536C139.3 56.5417 138.547 57.8558 137.929 59.2294C137.232 60.778 137.628 61.9298 139.045 62.824C142.928 65.2737 146.986 66.9991 151.741 66.474C153.557 66.2736 155.42 66.3389 157.249 66.4636C160.846 66.7097 164.268 66.1535 167.529 64.5938C167.963 64.3865 168.431 64.249 168.888 64.0953C168.964 64.0699 169.067 64.1271 169.562 64.2282C166.636 65.7364 164.013 67.1314 161.345 68.4311C160.767 68.7124 160.026 68.7337 159.36 68.7383C155.443 68.7638 151.522 68.8429 147.61 68.7002C146.052 68.6436 144.461 68.215 142.976 67.6923C140.699 66.8905 138.498 65.8681 136.27 64.9277C133.73 63.8562 132.974 61.8351 134.199 59.4015C135.182 57.448 136.212 55.5169 137.151 53.542C137.742 52.299 138.682 51.5555 139.959 51.2234C140.657 51.042 141.385 50.8682 142.099 50.8716C146.498 50.8965 150.9 50.8907 155.295 51.0553C159.018 51.1957 162.2 53.1475 165.538 54.535C168.26 55.6671 170.905 56.9991 173.662 58.0331C175.122 58.5813 176.746 58.9388 178.3 58.9492C189.711 59.0243 201.126 58.8614 212.535 59.0642C216.064 59.1266 219.061 58.3179 221.835 56.265C222.535 55.7468 223.345 55.3743 224.019 54.8278C227.692 51.8461 231.926 50.934 236.528 51.2246C237.918 51.3124 239.317 51.2378 241.028 51.2378C240.6 49.1023 240.258 47.113 239.752 45.1669C239.674 44.8666 238.84 44.6061 238.353 44.6009C234.634 44.5535 230.915 44.5749 226.884 44.5749C231.092 44.0122 235.006 43.4895 239.284 42.9176C238.335 41.0819 237.528 39.3952 236.579 37.7941C236.397 37.4873 235.656 37.4134 235.172 37.4093C231.355 37.3793 227.538 37.3926 223.7 37.2239C227.404 36.7965 231.108 36.3696 234.811 35.9416C234.87 35.8093 234.928 35.6759 234.987 35.543C233.594 34.5587 232.254 33.489 230.801 32.6058C224.172 28.5779 216.991 25.8607 209.591 23.6802C208.854 23.463 208.115 23.2504 207.418 22.812C208.361 22.9969 209.306 23.1678 210.246 23.3683C218.041 25.033 225.535 27.4741 232.466 31.5706C237.086 34.2999 239.85 38.2995 241.336 43.3538C241.471 43.8141 241.652 44.2733 241.886 44.6904C248.052 55.7104 247.987 66.5393 240.933 77.1643C240.909 77.1995 240.913 77.2515 240.855 77.5374C256.85 77.5374 260.157 78.5361 280 78.5361C279.999 78.7158 279.998 78.8954 279.998 79.0751ZM203.233 77.5334C202.373 76.2626 201.539 75.291 201.01 74.1733C200.468 73.0255 199.658 72.8621 198.573 72.8661C187.75 72.9054 176.926 72.8956 166.102 72.9689C164.777 72.9782 163.451 73.3779 162.135 73.6453C161.908 73.691 161.597 73.9474 161.549 74.1594C161.301 75.228 161.128 76.3134 160.902 77.534C175.044 77.5334 189.036 77.5334 203.233 77.5334ZM136.05 74.4806C135.422 75.6994 134.99 76.5387 134.513 77.4635C135.245 77.4635 135.846 77.4635 136.565 77.4635C136.406 76.5393 136.262 75.7109 136.05 74.4806Z" fill="#A3D2FC"/>
<path fill-rule="evenodd" clip-rule="evenodd" d="M102.492 79.762C88.8733 79.762 75.3525 79.762 61.8757 79.762C62.461 77.8414 63.0457 75.9236 63.7273 73.6847C62.5017 73.6847 61.6533 73.6974 60.8055 73.6824C57.9554 73.6287 56.2151 71.9854 55.9124 69.1607C55.1758 62.291 54.4111 55.4252 53.6607 48.5572C53.6504 48.4648 53.6854 48.3677 53.9519 48.2222C54.7837 52.4955 55.6493 56.7624 56.4323 61.0444C56.8084 63.1025 57.0417 65.1878 57.3162 67.2638C57.6923 70.1109 58.8881 71.1657 61.6992 71.1634C72.5786 71.1541 83.4586 71.1576 94.338 71.1564C94.8625 71.1564 95.387 71.1564 95.8565 71.1564C95.4432 68.0777 94.8166 65.1237 94.6928 62.1477C94.3764 54.553 95.4764 47.1495 98.9456 40.3196C100.019 38.2055 101.573 36.1757 103.35 34.6224C107.059 31.3813 112.249 32.1704 115.555 36.353C115.116 36.1323 114.916 36.0625 114.751 35.9435C110.402 32.8121 106.08 33.1934 102.416 37.1028C99.0878 40.6529 97.375 45.01 96.4245 49.7136C94.9777 56.8751 95.2592 63.9586 97.5664 70.9063C98.1001 72.5116 98.8207 74.0775 99.6427 75.5563C100.435 76.9836 101.47 78.2746 102.492 79.762ZM99.0832 77.4861C98.5788 76.5816 98.0829 75.9462 97.8536 75.2247C97.4415 73.925 96.6458 73.6455 95.3606 73.653C86.08 73.7113 76.7987 73.6865 67.5175 73.6876C66.9523 73.6876 66.386 73.6876 65.8442 73.6876C65.6035 75.0503 65.396 76.2269 65.1736 77.4861C76.4777 77.4861 87.6724 77.4861 99.0832 77.4861Z" fill="#A3D2FC"/>
<path fill-rule="evenodd" clip-rule="evenodd" d="M218.115 33.606C210.014 26.5756 200.361 23.1572 190.054 21.199C189.049 21.0078 188.023 20.3736 187.231 19.6839C183.361 16.3123 179.594 12.8211 175.74 9.43036C170.103 4.4714 163.531 2.55308 156.038 2.28853C137.427 1.63176 118.828 1.36259 100.221 2.11004C95.4588 2.30182 90.6924 2.67266 85.9597 3.23642C80.369 3.90243 75.4145 6.31635 70.8843 9.61578C67.3205 12.2111 63.8008 14.867 60.2599 17.4941C59.9613 17.7148 59.65 17.9169 59.2637 18.1838C59.2837 17.9822 59.2648 17.8834 59.3004 17.8545C63.7171 14.3056 68.041 10.629 72.5822 7.24923C78.8023 2.61951 86.056 1.11825 93.6267 0.824237C99.7449 0.586831 105.861 0.267976 111.981 0.138009C128.567 -0.214346 145.143 0.095844 161.699 1.20894C165.619 1.47234 169.02 3.21852 172.336 5.18247C177.97 8.51945 182.824 12.8159 187.315 17.5467C188.489 18.7834 189.847 19.3564 191.483 19.6383C199.188 20.9651 206.481 23.4547 212.878 28.0913C214.916 29.5683 216.623 31.5069 218.482 33.234C218.359 33.3582 218.237 33.4824 218.115 33.606Z" fill="#A3D2FC"/>
<path fill-rule="evenodd" clip-rule="evenodd" d="M94.6078 17.9877C93.8012 15.5489 92.9626 13.1206 92.1962 10.6691C91.4154 8.17374 89.7588 6.9093 87.1804 6.81688C83.4876 6.6846 79.9186 7.1236 76.8083 9.34402C73.3821 11.7897 69.9793 14.2695 66.6173 16.8024C65.2811 17.8086 65.2593 18.719 66.2843 20.0192C66.5549 20.3623 66.869 20.676 67.1023 21.0428C68.6219 23.4342 70.7137 23.8818 73.4698 23.6358C84.2437 22.674 95.0285 21.6008 105.831 21.2629C118.458 20.8672 130.041 24.6438 140.398 32.0334C140.633 32.2009 140.853 32.3881 141.433 32.8415C140.746 32.6116 140.449 32.5521 140.189 32.4193C130.513 27.5001 120.208 24.7512 109.437 24.2885C101.001 23.9263 92.5315 24.292 84.078 24.4202C79.7301 24.4861 75.3849 24.7477 71.0381 24.906C67.2404 25.044 64.1197 23.0374 62.8552 19.3983C62.627 18.7421 63.049 17.4776 63.6021 16.9838C67.9518 13.098 72.6426 9.65536 77.8378 7.00345C81.0152 5.38088 84.5125 5.01351 88.0207 5.36529C90.3699 5.60096 92.3114 6.75565 92.9706 9.22329C93.7324 12.0774 94.304 14.9834 94.958 17.867C94.8411 17.908 94.7241 17.9478 94.6078 17.9877Z" fill="#A3D2FC"/>
<path fill-rule="evenodd" clip-rule="evenodd" d="M190.566 53.7735C186.702 53.7735 182.835 53.8515 178.974 53.725C177.865 53.6886 176.713 53.1919 175.69 52.6835C172.397 51.0477 169.148 49.3206 165.895 47.6033C163.997 46.6017 163.707 44.9387 165.127 43.2878C166.109 42.1481 167.2 41.0968 168.11 39.9029C169.099 38.6038 170.369 38.1931 171.904 38.1983C184.087 38.2422 196.271 38.2734 208.454 38.3052C211.307 38.3127 214.16 38.3485 217.012 38.2907C218.696 38.2566 219.879 38.8487 220.582 40.4493C221.188 41.8281 221.937 43.1422 222.58 44.5054C223.404 46.2516 223.032 47.7165 221.522 48.859C221.098 49.1808 220.582 49.4165 220.242 49.8098C216.217 54.4546 210.908 54.1074 205.173 53.632C207.618 53.1526 209.68 52.7049 211.76 52.3543C213.474 52.0661 214.988 51.4584 216.274 50.235C217.291 49.2674 218.419 48.4189 219.49 47.5097C220.386 46.7495 220.559 45.7872 220.113 44.7428C219.56 43.4466 218.97 42.1631 218.328 40.9085C217.718 39.714 216.611 39.4801 215.378 39.4801C206.531 39.4795 197.686 39.457 188.839 39.446C183.762 39.4402 178.685 39.4725 173.608 39.4246C172.07 39.4096 170.877 39.8087 170.108 41.2441C169.767 41.8818 169.272 42.4352 168.85 43.0284C167.543 44.8688 167.64 45.3522 169.642 46.5451C171.389 47.5865 173.286 48.4177 174.891 49.6429C178.625 52.4941 182.999 52.7985 187.377 53.2207C188.432 53.323 189.483 53.4639 190.536 53.5875C190.546 53.6493 190.556 53.7111 190.566 53.7735Z" fill="#A3D2FC"/>
<path fill-rule="evenodd" clip-rule="evenodd" d="M47.9077 79.1698C50.2248 75.2696 50.9711 70.9097 51.4308 66.5058C52.2357 58.802 52.0838 51.1229 50.0534 43.5964C49.5667 41.7925 48.7785 40.0128 47.8229 38.4075C46.5274 36.231 44.6627 36.2472 43.2067 38.3157C41.1327 41.2628 40.3904 44.7205 39.9662 48.1961C39.4778 52.1985 38.9601 56.2511 39.0845 60.2622C39.2559 65.7901 39.7254 71.3539 41.7954 76.5947C42.2018 77.6235 42.7739 78.5858 43.4795 79.9999C25.9174 79.6845 17.3701 79.3731 0.00401279 79.0612C0.00286632 78.8134 0.0017197 78.5662 0 78.3178C16.77 77.9972 24.721 77.6772 41.2731 77.3607C40.6042 73.9521 39.6635 70.4678 39.2748 66.9223C38.3135 58.155 38.4603 49.4212 41.3809 40.9647C41.8796 39.5195 42.638 38.0939 43.5689 36.8889C45.1304 34.8678 47.1408 34.9498 48.6174 37.0518C49.471 38.2666 50.1852 39.6408 50.6725 41.0456C53.1385 48.1539 53.5254 55.5251 53.1184 62.9626C52.8817 67.296 52.5114 71.6358 50.6398 75.637C50.0167 76.9696 49.0961 78.1601 48.3107 79.4153C48.176 79.3321 48.0419 79.2507 47.9077 79.1698Z" fill="#A3D2FC"/>
<path fill-rule="evenodd" clip-rule="evenodd" d="M107.404 19.1568C132.407 16.8861 157.442 18.0887 182.792 19.1805C178.296 13.8605 173.398 9.44162 167.927 5.4502C171.64 6.35072 180.837 14.8107 185.65 20.5506C159.424 18.9205 133.435 18.6144 107.404 19.1568Z" fill="#A3D2FC"/>
<path fill-rule="evenodd" clip-rule="evenodd" d="M163.706 37.3909C153.038 37.3909 142.37 37.3909 131.574 37.3909C131.667 37.8247 131.645 38.0638 131.752 38.1678C134.86 41.2038 138.354 43.2279 142.885 43.3844C148.333 43.5733 153.768 44.1399 159.205 44.7586C154.576 44.7586 149.943 44.8666 145.319 44.7205C142.39 44.628 139.4 44.4669 136.569 43.7835C132.458 42.7912 129.724 39.5662 126.848 36.6861C126.731 36.57 126.734 36.3338 126.554 35.7227C139.076 35.7227 151.386 36.5816 163.708 36.9692C163.708 37.1101 163.707 37.2505 163.706 37.3909Z" fill="#A3D2FC"/>
<path fill-rule="evenodd" clip-rule="evenodd" d="M61.4053 50.4023C65.6833 54.4752 69.8123 58.3402 75.0104 60.5305C80.1059 62.677 85.3917 64.3625 90.7245 66.1457C90.1111 66.1064 89.4966 66.0752 88.885 66.025C88.2114 65.9695 87.5396 65.8927 86.8666 65.8315C83.4576 65.5213 80.0445 65.2475 76.6395 64.8916C74.029 64.619 71.7189 63.5758 69.6988 61.8758C67.6031 60.1117 62.4279 53.0698 61.4053 50.4023Z" fill="#A3D2FC"/>
<path fill-rule="evenodd" clip-rule="evenodd" d="M104.506 77.2C104.078 77.0238 103.554 76.9522 103.235 76.657C100.018 73.6764 98.6963 69.7191 97.9035 65.5763C96.4395 57.9227 96.9439 50.4568 100.508 43.3901C101.008 42.4006 101.641 41.4608 102.322 40.5851C106.26 35.5268 111.603 35.402 115.766 40.3494C115.458 40.1241 115.148 39.9017 114.841 39.673C111.558 37.2198 107.872 37.3336 104.751 40.0207C101.351 42.9493 99.7235 46.8917 98.8333 51.1401C97.1772 59.0416 98.0095 66.6334 102.136 73.6926C102.618 74.5169 103.388 75.1656 103.944 75.9523C104.211 76.3295 104.292 76.8407 104.458 77.2901C104.458 77.2901 104.506 77.2 104.506 77.2Z" fill="#A3D2FC"/>
<path fill-rule="evenodd" clip-rule="evenodd" d="M162.879 32.7064C151.913 26.7134 139.908 24.3723 127.784 22.4014C129.843 21.7689 139.237 22.7295 146.254 24.2521C152.519 25.6107 157.904 28.7207 162.879 32.7064Z" fill="#A3D2FC"/>
<path fill-rule="evenodd" clip-rule="evenodd" d="M62.9216 31.7803C69.9701 32.0217 77.0232 32.1742 84.0619 32.5762C85.5661 32.6623 87.1241 33.475 88.4735 34.2699C90.939 35.7215 92.2901 38.2515 93.7891 40.655C93.2704 40.2703 92.7298 39.911 92.2351 39.4974C87.5701 35.5938 82.0287 34.1815 76.149 33.6039C71.7305 33.1701 67.3287 32.556 62.9199 32.0217C62.9205 31.9414 62.9211 31.8611 62.9216 31.7803Z" fill="#A3D2FC"/>
<path fill-rule="evenodd" clip-rule="evenodd" d="M67.3861 27.2313C63.7071 26.6566 60.2866 26.1067 56.8616 25.5949C55.0484 25.324 53.2295 25.0808 51.4061 24.8965C48.963 24.6493 46.9876 25.6134 45.7844 27.7217C44.3255 30.2795 43.0959 32.9695 41.6777 35.7785C42.6316 32.2475 43.3206 28.8198 45.2903 25.8467C46.8019 23.5657 48.9515 22.3243 51.5918 22.9216C56.7102 24.0774 61.7621 25.5336 66.8398 26.8726C66.9573 26.9032 67.0554 27.0101 67.3861 27.2313Z" fill="#A3D2FC"/>
<path fill-rule="evenodd" clip-rule="evenodd" d="M106.068 73.8444C107.49 70.9164 108.877 68.0594 110.265 65.203C110.389 65.2579 110.514 65.3128 110.638 65.3677C109.796 68.8733 108.975 72.3842 108.072 75.8736C107.999 76.1555 107.249 76.557 107.007 76.4519C104.77 75.4832 103.566 73.4193 102.188 71.5639C102.047 71.3756 102.258 70.8338 102.422 70.5178C103.986 67.517 106.031 64.8981 108.76 62.814C107.659 64.5347 106.551 66.2526 105.46 67.9815C105.177 68.4309 104.927 68.9074 104.698 69.3886C103.442 72.0191 103.56 72.3668 106.068 73.8444Z" fill="#A3D2FC"/>
<path fill-rule="evenodd" clip-rule="evenodd" d="M161.59 39.8279C160.625 41.585 159.706 42.5347 158.007 42.4683C153.127 42.2776 148.231 42.2967 143.369 41.8947C141.319 41.7254 139.331 40.7296 137.332 40.0566C136.972 39.9353 136.697 39.5581 136.453 39.1492C138.403 39.1526 140.387 38.4502 141.981 40.4483C142.522 41.127 143.838 41.2881 144.838 41.4557C145.818 41.6203 146.848 41.4915 147.886 41.4915C147.984 40.8428 148.07 40.2721 148.172 39.6038C149.171 39.6038 150.152 39.6038 151.227 39.6038C151.287 40.2392 151.339 40.8024 151.424 41.7052C152.575 41.7052 153.755 41.7266 154.933 41.6879C155.196 41.6792 155.581 41.5267 155.69 41.3211C157.108 38.6628 159.394 40.4483 161.59 39.8279Z" fill="#A3D2FC"/>
<path fill-rule="evenodd" clip-rule="evenodd" d="M107.776 55.4057C105.471 54.7808 103.166 54.1563 100.574 53.4539C100.447 55.4086 100.322 57.3402 100.189 59.3764C102.789 59.3764 105.124 59.3764 107.46 59.3764C107.489 59.5156 107.518 59.6548 107.546 59.7946C104.81 60.4958 102.073 61.1977 99.3409 61.8983C98.5435 58.9178 98.9649 53.0473 100.052 50.4445C100.144 50.4474 100.255 50.4185 100.325 50.4607C102.836 51.9845 105.343 53.5146 107.851 55.0442C107.825 55.1643 107.801 55.285 107.776 55.4057Z" fill="#A3D2FC"/>
<path fill-rule="evenodd" clip-rule="evenodd" d="M42.7266 76.0489C44.7271 77.2151 46.0175 77.0222 46.7793 75.034C47.8811 72.1585 48.8607 69.1543 49.2947 66.1182C50.2732 59.2785 50.111 52.4249 48.1688 45.7215C47.822 44.5235 47.2941 43.3445 46.6578 42.2713C45.5795 40.4529 44.8143 40.3085 43.0252 41.2986C43.9487 39.3179 45.8581 39.0296 46.9318 40.9266C47.9665 42.7554 48.816 44.7903 49.258 46.8415C51.0751 55.283 51.0723 63.7482 48.9117 72.1446C48.5529 73.5379 47.9734 74.9184 47.2534 76.1626C45.9556 78.4096 44.4927 78.4119 42.7266 76.0489Z" fill="#A3D2FC"/>
<path fill-rule="evenodd" clip-rule="evenodd" d="M112.039 52.126C111.802 48.9975 111.432 45.8714 111.382 42.7395C111.355 41.0112 110.439 41.1492 109.35 41.2243C107.513 41.3514 107.183 41.6275 107.435 43.0693C107.976 46.1625 108.587 49.2436 109.15 52.2311C108.831 51.6269 108.285 50.9031 108.048 50.0887C107.25 47.3466 106.564 44.5717 105.831 41.8101C105.606 40.9598 105.918 40.3469 106.719 40.091C107.722 39.7699 108.745 39.4337 109.783 39.3187C112.495 39.0178 113.211 39.7866 113.003 42.4374C112.753 45.6328 112.561 48.8329 112.344 52.0307C112.241 52.063 112.139 52.0942 112.039 52.126Z" fill="#A3D2FC"/>
<path fill-rule="evenodd" clip-rule="evenodd" d="M113.412 62.7797C114.131 64.1781 114.616 65.2831 115.244 66.2986C115.874 67.3146 116.646 68.2406 117.365 69.2202C119.258 67.4469 119.259 66.067 117.655 64.4369C116.502 63.2655 115.489 61.9554 114.414 60.7071C114.501 60.628 114.588 60.5489 114.676 60.4697C116.599 61.6198 118.524 62.7698 120.784 64.1215C119.762 66.8231 118.702 69.6246 117.598 72.5405C115.39 70.8081 114.102 67.723 113.412 62.7797Z" fill="#A3D2FC"/>
<path fill-rule="evenodd" clip-rule="evenodd" d="M118.964 46.3433C119.718 49.3556 120.475 52.3679 121.235 55.3982C118.876 56.178 116.88 56.8377 114.884 57.4973C114.8 57.3945 114.715 57.2923 114.63 57.1894C115.826 56.2387 116.919 55.0869 118.247 54.3925C119.535 53.7185 119.746 52.9849 119.281 51.7597C119.044 51.1336 118.916 50.4658 118.612 49.3533C117.055 51.2554 115.714 52.8942 114.395 54.5052C114.217 52.748 116.105 48.9518 118.964 46.3433Z" fill="#A3D2FC"/>
<path fill-rule="evenodd" clip-rule="evenodd" d="M90.9382 20.0399C90.7565 19.7679 90.639 19.6338 90.5673 19.4779C89.5831 17.3412 87.8937 16.6065 85.6232 16.7561C83.4603 16.8987 81.2815 16.8063 79.1175 16.9455C78.632 16.9767 77.8358 17.5001 77.7916 17.8715C77.7205 18.4647 77.9768 19.3704 78.4199 19.6968C79.2866 20.3351 80.3763 20.6655 81.3182 21.3061C79.9527 21.0571 78.585 20.818 77.2218 20.5557C76.1826 20.3553 75.5468 19.7806 75.7114 18.6345C75.8799 17.4631 75.763 15.9451 77.4225 15.8521C81.0344 15.6499 84.6555 15.513 88.2715 15.55C90.0027 15.5667 91.0746 17.5168 90.9382 20.0399Z" fill="#A3D2FC"/>
<path fill-rule="evenodd" clip-rule="evenodd" d="M45.4392 62.5444C44.4687 64.6204 43.2626 67.0292 42.2136 69.5049C41.5808 71.0004 42.4899 72.1291 43.4386 73.3854C43.9304 71.4215 44.2354 69.6539 44.8298 67.9921C45.4094 66.3718 46.2853 64.8596 47.1262 63.3878C46.3506 67.4462 45.5756 71.5058 44.745 75.8548C44.1053 76.1482 43.3962 75.5839 42.9175 74.8601C41.4386 72.6253 40.3168 70.3702 41.8221 67.5727C42.9135 65.5435 44.048 63.6229 45.4392 62.5444Z" fill="#A3D2FC"/>
<path fill-rule="evenodd" clip-rule="evenodd" d="M47.8823 54.4719C46.518 51.381 46.0634 48.2687 45.7642 45.1201C45.6897 44.3374 45.6977 43.5246 44.4354 43.3508C44.287 47.0494 45.0952 50.5192 46.2296 53.9463C44.0892 50.6157 43.3039 46.8905 43.0608 43.0221C42.9955 41.9841 44.3919 41.187 45.2311 41.8726C45.9935 42.4947 46.8189 43.4623 46.9468 44.3732C47.4048 47.6356 47.579 50.9397 47.8823 54.4719Z" fill="#A3D2FC"/>
<path fill-rule="evenodd" clip-rule="evenodd" d="M108.792 4.60098C119.327 3.36428 147.045 3.52428 156.953 4.60098C142.376 4.60098 125.584 4.60098 108.792 4.60098Z" fill="#A3D2FC"/>
<path fill-rule="evenodd" clip-rule="evenodd" d="M46.006 57.4057C44.2594 56.3584 42.7575 55.4573 41.09 54.4575C41.0149 55.8172 40.9426 57.129 40.8595 58.6389C42.4336 58.9578 43.8787 59.2501 45.3227 59.5418C45.3273 59.6625 45.3313 59.7832 45.3353 59.9034C43.673 59.9034 42.0083 59.9398 40.3499 59.8641C40.1051 59.8526 39.6769 59.3021 39.6867 59.0127C39.7807 56.1517 39.9492 53.2935 40.096 50.4395C42.0387 52.7292 43.8862 54.9074 46.006 57.4057Z" fill="#A3D2FC"/>
<path fill-rule="evenodd" clip-rule="evenodd" d="M105.702 31.6829C107.064 29.2459 110.2 28.0167 113.18 28.744C115.877 29.403 118.283 31.9689 118.365 34.5387C114.801 30.1251 110.584 29.2638 105.702 31.6829Z" fill="#A3D2FC"/>
<path fill-rule="evenodd" clip-rule="evenodd" d="M162.993 60.9653C156.046 60.714 149.041 61.7671 142.162 59.9746C149.118 60.0341 156.112 59.2254 162.993 60.9653Z" fill="#A3D2FC"/>
<path fill-rule="evenodd" clip-rule="evenodd" d="M225.63 39.5272C226.556 39.5272 227.317 39.5272 228.072 39.5272C228.936 41.8008 228.936 41.8008 230.708 41.3103C230.678 40.7131 230.647 40.099 230.611 39.3845C231.216 39.3516 231.769 39.3221 232.195 39.299C232.931 39.8732 232.162 41.5321 233.617 41.1324C234.193 40.9742 234.555 40.0257 235.014 39.4377C234.963 39.2488 234.911 39.0599 234.86 38.8716C235.368 39.1055 236.18 39.2216 236.324 39.5977C236.667 40.493 236.138 41.3207 235.227 41.4576C232.803 41.821 230.358 42.1733 227.914 42.2415C226.484 42.2819 225.798 41.1186 225.63 39.5272Z" fill="#A3D2FC"/>
<path fill-rule="evenodd" clip-rule="evenodd" d="M188.757 16.943C189.205 15.9321 190.181 15.3273 191.45 15.2725C192.988 15.206 194.531 15.2661 196.072 15.2563C197.133 15.2493 197.678 15.8068 197.764 16.828C197.821 17.5033 197.801 18.1855 197.822 18.8636C197.859 20.094 197.406 20.6312 196.086 20.0229C196.163 19.7832 196.277 19.5331 196.321 19.272C196.705 17.0221 196.369 16.5698 194.102 16.612C192.306 16.6455 190.513 16.8286 188.757 16.943Z" fill="#A3D2FC"/>
<path fill-rule="evenodd" clip-rule="evenodd" d="M43.4424 34.5582C44.3664 32.369 45.9233 31.3286 47.6224 31.6908C49.5657 32.105 51.1478 34.4583 51.1323 37.3043C49.2401 34.0245 47.0434 32.0888 43.4424 34.5582Z" fill="#A3D2FC"/>
<path fill-rule="evenodd" clip-rule="evenodd" d="M104.507 77.2002C104.507 77.2002 104.46 77.2897 104.459 77.2909C104.893 77.2787 105.409 77.1049 105.75 77.2782C109.569 79.2213 111.014 79.1312 114.354 77.437C111.289 80.2796 108.166 80.5782 105.067 78.2729C104.777 78.0568 104.689 77.5647 104.507 77.2002Z" fill="#A3D2FC"/>
<path fill-rule="evenodd" clip-rule="evenodd" d="M100.11 17.6689C98.9246 13.83 97.6738 9.78023 96.4941 5.96094C97.9209 7.33166 99.7117 12.9936 100.11 17.6689Z" fill="#A3D2FC"/>
<path fill-rule="evenodd" clip-rule="evenodd" d="M112.727 58.3493C112.133 58.9535 111.714 59.3786 111.296 59.8055C111.021 59.2464 110.534 58.6872 110.534 58.1292C110.535 57.6538 111.095 57.1784 111.408 56.7036C111.79 57.179 112.171 57.6556 112.727 58.3493Z" fill="#A3D2FC"/>
</svg>
