<svg width="24" height="24" viewBox="0 0 24 24" fill="none" xmlns="http://www.w3.org/2000/svg">
<path d="M21.3633 16.4227C21.3549 16.3994 21.342 16.3779 21.3253 16.3596C21.3086 16.3414 21.2885 16.3266 21.266 16.3161C21.2436 16.3056 21.2193 16.2997 21.1945 16.2987C21.1698 16.2977 21.1451 16.3016 21.1219 16.3102L19.6875 16.8328V4.21875C19.6875 3.3375 18.975 2.625 18.0938 2.625H5.90625C5.025 2.625 4.3125 3.3375 4.3125 4.21875V16.8328L2.87578 16.3102C2.85469 16.3031 2.83359 16.2984 2.8125 16.2984C2.70937 16.2984 2.625 16.3828 2.625 16.4859V17.8828C2.625 17.9602 2.67422 18.0305 2.74922 18.0586L11.7422 21.3305C11.9086 21.3914 12.0891 21.3914 12.2555 21.3305L21.2508 18.0609C21.3258 18.0328 21.375 17.9625 21.375 17.8852V16.4883C21.375 16.4648 21.3703 16.4438 21.3633 16.4227ZM12 19.6289L6 17.4469V4.3125H18V17.4469L12 19.6289Z" fill="#CED4DA"/>
<path d="M14.8019 14.6694C14.7731 14.5362 14.6304 14.451 14.4861 14.4812C14.2521 14.5302 13.8858 14.5899 13.4917 14.5899C12.249 14.5899 11.2603 13.891 10.8327 12.8733H13.3215C13.3812 12.8733 13.4391 12.8547 13.4857 12.8205C13.5323 12.7862 13.5648 12.7385 13.5778 12.6851L13.7174 12.1154C13.7543 11.9646 13.6294 11.8214 13.4611 11.8214H10.5224C10.4959 11.5336 10.4914 11.2532 10.5254 10.9728H13.7345C13.7945 10.9728 13.8526 10.954 13.8993 10.9195C13.9459 10.885 13.9784 10.8369 13.9912 10.7832L14.1337 10.1855C14.1696 10.0351 14.0448 9.89286 13.8771 9.89286H10.85C11.3016 8.98902 12.2224 8.38556 13.4248 8.38556C13.742 8.38556 14.0502 8.43076 14.2535 8.46883C14.3895 8.4943 14.5238 8.41865 14.56 8.2956L14.8225 7.40428C14.8624 7.26885 14.7685 7.13074 14.6183 7.1046C14.3534 7.0585 13.9263 7 13.4649 7C11.3374 7 9.62065 8.21042 8.98677 9.89286H8.2627C8.11762 9.89286 8 10.0008 8 10.1339V10.7317C8 10.8648 8.11762 10.9728 8.2627 10.9728H8.73488C8.7128 11.2461 8.70903 11.5611 8.73092 11.8214H8.2627C8.11762 11.8214 8 11.9294 8 12.0625V12.6322C8 12.7654 8.11762 12.8733 8.2627 12.8733H8.92195C9.46979 14.688 11.1801 16 13.4649 16C14.0407 16 14.5281 15.9087 14.8026 15.8435C14.9376 15.8115 15.0221 15.6887 14.9949 15.5632L14.8019 14.6694Z" fill="#CED4DA"/>
</svg>
