<svg width="24" height="24" viewBox="0 0 24 24" fill="none" xmlns="http://www.w3.org/2000/svg">
<path d="M16.7096 16.9302C16.6685 16.723 16.4647 16.5904 16.2588 16.6374C15.9247 16.7136 15.4019 16.8065 14.8393 16.8065C13.0654 16.8065 11.654 15.7193 11.0436 14.1362H14.5964C14.6815 14.1362 14.7642 14.1073 14.8307 14.054C14.8972 14.0008 14.9436 13.9266 14.9623 13.8435L15.1614 12.9572C15.2141 12.7228 15.0358 12.5 14.7955 12.5H10.6006C10.5628 12.0522 10.5564 11.616 10.6049 11.1798H15.1859C15.2715 11.1798 15.3544 11.1506 15.4211 11.097C15.4877 11.0434 15.534 10.9686 15.5523 10.885L15.7558 9.95519C15.807 9.72131 15.6289 9.5 15.3894 9.5H11.0683C11.713 8.09403 13.0273 7.15531 14.7438 7.15531C15.1965 7.15531 15.6365 7.22563 15.9267 7.28484C16.1209 7.32447 16.3125 7.20678 16.3643 7.01537L16.739 5.62888C16.7959 5.41822 16.6619 5.20338 16.4475 5.16272C16.0693 5.091 15.4597 5 14.8011 5C11.7641 5 9.31344 6.88287 8.40859 9.5H7.375C7.16791 9.5 7 9.66791 7 9.875V10.8048C7 11.0119 7.16791 11.1798 7.375 11.1798H8.04903C8.0175 11.6051 8.01213 12.0951 8.04338 12.5H7.375C7.16791 12.5 7 12.6679 7 12.875V13.7612C7 13.9683 7.16791 14.1362 7.375 14.1362H8.31606C9.09809 16.9591 11.5395 19 14.8011 19C15.623 19 16.3187 18.858 16.7105 18.7566C16.9032 18.7068 17.0238 18.5157 16.9851 18.3205L16.7096 16.9302Z" fill="#CED4DA"/>
<path d="M12.228 19.266H11.184V20.286H10.41V19.266H9.372V18.534H10.41V17.514H11.184V18.534H12.228V19.266ZM14.6198 19.35L14.0558 19.938V21H13.0898V16.8H14.0558V18.762L15.9158 16.8H16.9958L15.2558 18.672L17.0978 21H15.9638L14.6198 19.35ZM21.3532 21L21.3472 18.48L20.1112 20.556H19.6732L18.4432 18.534V21H17.5312V16.8H18.3352L19.9072 19.41L21.4552 16.8H22.2532L22.2652 21H21.3532Z" fill="#CED4DA"/>
<path d="M12.228 19.266V20.266H13.228V19.266H12.228ZM11.184 19.266V18.266H10.184V19.266H11.184ZM11.184 20.286V21.286H12.184V20.286H11.184ZM10.41 20.286H9.41V21.286H10.41V20.286ZM10.41 19.266H11.41V18.266H10.41V19.266ZM9.372 19.266H8.372V20.266H9.372V19.266ZM9.372 18.534V17.534H8.372V18.534H9.372ZM10.41 18.534V19.534H11.41V18.534H10.41ZM10.41 17.514V16.514H9.41V17.514H10.41ZM11.184 17.514H12.184V16.514H11.184V17.514ZM11.184 18.534H10.184V19.534H11.184V18.534ZM12.228 18.534H13.228V17.534H12.228V18.534ZM12.228 18.266H11.184V20.266H12.228V18.266ZM10.184 19.266V20.286H12.184V19.266H10.184ZM11.184 19.286H10.41V21.286H11.184V19.286ZM11.41 20.286V19.266H9.41V20.286H11.41ZM10.41 18.266H9.372V20.266H10.41V18.266ZM10.372 19.266V18.534H8.372V19.266H10.372ZM9.372 19.534H10.41V17.534H9.372V19.534ZM11.41 18.534V17.514H9.41V18.534H11.41ZM10.41 18.514H11.184V16.514H10.41V18.514ZM10.184 17.514V18.534H12.184V17.514H10.184ZM11.184 19.534H12.228V17.534H11.184V19.534ZM11.228 18.534V19.266H13.228V18.534H11.228ZM14.6198 19.35L15.3951 18.7185L14.6809 17.8416L13.8981 18.6578L14.6198 19.35ZM14.0558 19.938L13.3341 19.2458L13.0558 19.5359V19.938H14.0558ZM14.0558 21V22H15.0558V21H14.0558ZM13.0898 21H12.0898V22H13.0898V21ZM13.0898 16.8V15.8H12.0898V16.8H13.0898ZM14.0558 16.8H15.0558V15.8H14.0558V16.8ZM14.0558 18.762H13.0558V21.2703L14.7815 19.45L14.0558 18.762ZM15.9158 16.8V15.8H15.4859L15.1901 16.112L15.9158 16.8ZM16.9958 16.8L17.7283 17.4808L19.2905 15.8H16.9958V16.8ZM15.2558 18.672L14.5233 17.9912L13.9392 18.6196L14.4716 19.2925L15.2558 18.672ZM17.0978 21V22H19.1642L17.882 20.3795L17.0978 21ZM15.9638 21L15.1885 21.6315L15.4886 22H15.9638V21ZM13.8981 18.6578L13.3341 19.2458L14.7775 20.6302L15.3415 20.0422L13.8981 18.6578ZM13.0558 19.938V21H15.0558V19.938H13.0558ZM14.0558 20H13.0898V22H14.0558V20ZM14.0898 21V16.8H12.0898V21H14.0898ZM13.0898 17.8H14.0558V15.8H13.0898V17.8ZM13.0558 16.8V18.762H15.0558V16.8H13.0558ZM14.7815 19.45L16.6415 17.488L15.1901 16.112L13.3301 18.074L14.7815 19.45ZM15.9158 17.8H16.9958V15.8H15.9158V17.8ZM16.2633 16.1192L14.5233 17.9912L15.9883 19.3528L17.7283 17.4808L16.2633 16.1192ZM14.4716 19.2925L16.3136 21.6205L17.882 20.3795L16.04 18.0515L14.4716 19.2925ZM17.0978 20H15.9638V22H17.0978V20ZM16.7391 20.3685L15.3951 18.7185L13.8445 19.9815L15.1885 21.6315L16.7391 20.3685ZM21.3532 21L20.3532 21.0024L20.3556 22H21.3532V21ZM21.3472 18.48L22.3472 18.4776L22.3386 14.8601L20.488 17.9684L21.3472 18.48ZM20.1112 20.556V21.556H20.6796L20.9704 21.0676L20.1112 20.556ZM19.6732 20.556L18.8189 21.0757L19.111 21.556H19.6732V20.556ZM18.4432 18.534L19.2975 18.0143L17.4432 14.9659V18.534H18.4432ZM18.4432 21V22H19.4432V21H18.4432ZM17.5312 21H16.5312V22H17.5312V21ZM17.5312 16.8V15.8H16.5312V16.8H17.5312ZM18.3352 16.8L19.1918 16.2841L18.9003 15.8H18.3352V16.8ZM19.9072 19.41L19.0506 19.9259L19.9138 21.3592L20.7673 19.9201L19.9072 19.41ZM21.4552 16.8V15.8H20.8856L20.5951 16.2899L21.4552 16.8ZM22.2532 16.8L23.2532 16.7971L23.2504 15.8H22.2532V16.8ZM22.2652 21V22H23.2681L23.2652 20.9971L22.2652 21ZM22.3532 20.9976L22.3472 18.4776L20.3472 18.4824L20.3532 21.0024L22.3532 20.9976ZM20.488 17.9684L19.252 20.0444L20.9704 21.0676L22.2064 18.9916L20.488 17.9684ZM20.1112 19.556H19.6732V21.556H20.1112V19.556ZM20.5275 20.0363L19.2975 18.0143L17.5889 19.0537L18.8189 21.0757L20.5275 20.0363ZM17.4432 18.534V21H19.4432V18.534H17.4432ZM18.4432 20H17.5312V22H18.4432V20ZM18.5312 21V16.8H16.5312V21H18.5312ZM17.5312 17.8H18.3352V15.8H17.5312V17.8ZM17.4786 17.3159L19.0506 19.9259L20.7638 18.8941L19.1918 16.2841L17.4786 17.3159ZM20.7673 19.9201L22.3153 17.3101L20.5951 16.2899L19.0471 18.8999L20.7673 19.9201ZM21.4552 17.8H22.2532V15.8H21.4552V17.8ZM21.2532 16.8029L21.2652 21.0029L23.2652 20.9971L23.2532 16.7971L21.2532 16.8029ZM22.2652 20H21.3532V22H22.2652V20Z" fill="white"/>
</svg>
