<svg width="24" height="24" viewBox="0 0 24 24" fill="none" xmlns="http://www.w3.org/2000/svg">
<path d="M16.7096 16.9302C16.6685 16.723 16.4647 16.5904 16.2588 16.6374C15.9247 16.7136 15.4019 16.8065 14.8393 16.8065C13.0654 16.8065 11.654 15.7193 11.0436 14.1362H14.5964C14.6815 14.1362 14.7642 14.1073 14.8307 14.054C14.8972 14.0008 14.9436 13.9266 14.9623 13.8435L15.1614 12.9572C15.2141 12.7228 15.0358 12.5 14.7955 12.5H10.6006C10.5628 12.0522 10.5564 11.616 10.6049 11.1798H15.1859C15.2715 11.1798 15.3544 11.1506 15.4211 11.097C15.4877 11.0434 15.534 10.9686 15.5523 10.885L15.7558 9.95519C15.807 9.72131 15.6289 9.5 15.3894 9.5H11.0683C11.713 8.09403 13.0273 7.15531 14.7438 7.15531C15.1965 7.15531 15.6365 7.22563 15.9267 7.28484C16.1209 7.32447 16.3125 7.20678 16.3643 7.01537L16.739 5.62888C16.7959 5.41822 16.6619 5.20338 16.4475 5.16272C16.0693 5.091 15.4597 5 14.8011 5C11.7641 5 9.31344 6.88287 8.40859 9.5H7.375C7.16791 9.5 7 9.66791 7 9.875V10.8048C7 11.0119 7.16791 11.1798 7.375 11.1798H8.04903C8.0175 11.6051 8.01213 12.0951 8.04338 12.5H7.375C7.16791 12.5 7 12.6679 7 12.875V13.7612C7 13.9683 7.16791 14.1362 7.375 14.1362H8.31606C9.09809 16.9591 11.5395 19 14.8011 19C15.623 19 16.3187 18.858 16.7105 18.7566C16.9032 18.7068 17.0238 18.5157 16.9851 18.3205L16.7096 16.9302Z" fill="#CED4DA"/>
</svg>
