<svg width="24" height="24" viewBox="0 0 24 24" fill="none" xmlns="http://www.w3.org/2000/svg">
<path d="M20.9949 6.90023C20.9783 6.73217 20.9193 6.57108 20.8235 6.43204C20.7276 6.293 20.5981 6.18055 20.4469 6.10523L12.4469 2.10523C12.308 2.03571 12.1548 1.99951 11.9994 1.99951C11.8441 1.99951 11.6909 2.03571 11.5519 2.10523L3.55194 6.10523C3.40122 6.18098 3.27206 6.29357 3.17643 6.43254C3.08081 6.57152 3.02183 6.73238 3.00494 6.90023C2.99394 7.00723 2.04394 17.6672 11.5939 21.9142C11.7215 21.9718 11.8599 22.0016 11.9999 22.0016C12.1399 22.0016 12.2783 21.9718 12.4059 21.9142C21.9559 17.6672 21.0059 7.00823 20.9949 6.90023ZM11.9999 19.8972C5.23094 16.6252 4.91094 9.64223 4.96594 7.63523L11.9999 4.11823L19.0289 7.63323C19.0659 9.62223 18.7009 16.6512 11.9999 19.8972Z" fill="#CED4DA"/>
<path d="M11 12.586L8.70697 10.293L7.29297 11.707L11 15.414L16.707 9.70697L15.293 8.29297L11 12.586Z" fill="#CED4DA"/>
</svg>
