<svg width="18" height="18" viewBox="0 0 18 18" fill="none" xmlns="http://www.w3.org/2000/svg">
<path d="M3.44444 2H13.5556C13.9386 2 14.306 2.15218 14.5769 2.42307C14.8478 2.69395 15 3.06135 15 3.44444V13.5556C15 13.9386 14.8478 14.306 14.5769 14.5769C14.306 14.8478 13.9386 15 13.5556 15H3.44444C3.06135 15 2.69395 14.8478 2.42307 14.5769C2.15218 14.306 2 13.9386 2 13.5556V3.44444C2 3.06135 2.15218 2.69395 2.42307 2.42307C2.69395 2.15218 3.06135 2 3.44444 2Z" fill="#1E88E5"/>
<path d="M6 7.00005C6.28732 7.00005 6.53509 6.94126 6.73825 6.73809C6.94142 6.53493 7 6.28737 7 6.00005C7 5.71274 6.94142 5.40919 6.73825 5.20603C6.53509 5.00286 6.28732 5 6 5C5.71268 5 5.40935 5.00286 5.20619 5.20603C5.00303 5.40919 5 5.71274 5 6.00005C5 6.28737 5.00303 6.53493 5.20619 6.73809C5.40935 6.94126 5.71268 7.00005 6 7.00005ZM5 9.99984L6.5 8L7.77778 9.99984L10 7L12 9.99984V11.9998H5V9.99984Z" fill="white"/>
</svg>
