<svg width="24" height="24" viewBox="0 0 24 24" fill="none" xmlns="http://www.w3.org/2000/svg">
<g clip-path="url(#clip0)">
<path d="M5 5V19H19V5H5ZM5 3H19C19.5304 3 20.0391 3.21071 20.4142 3.58579C20.7893 3.96086 21 4.46957 21 5V19C21 19.5304 20.7893 20.0391 20.4142 20.4142C20.0391 20.7893 19.5304 21 19 21H5C4.46957 21 3.96086 20.7893 3.58579 20.4142C3.21071 20.0391 3 19.5304 3 19V5C3 4.46957 3.21071 3.96086 3.58579 3.58579C3.96086 3.21071 4.46957 3 5 3ZM8.5 10C8.89782 10 9.27936 9.84196 9.56066 9.56066C9.84196 9.27936 10 8.89782 10 8.5C10 8.10218 9.84196 7.72064 9.56066 7.43934C9.27936 7.15804 8.89782 7 8.5 7C8.10218 7 7.72064 7.15804 7.43934 7.43934C7.15804 7.72064 7 8.10218 7 8.5C7 8.89782 7.15804 9.27936 7.43934 9.56066C7.72064 9.84196 8.10218 10 8.5 10ZM7 14L9 12L11 14L14 11L17 14V17H7V14Z" fill="#99ABB4"/>
<mask id="path-3-outside-1" maskUnits="userSpaceOnUse" x="14" y="15" width="10" height="10" fill="black">
<rect fill="white" x="14" y="15" width="10" height="10"/>
<path fill-rule="evenodd" clip-rule="evenodd" d="M20 16H18V19H15V21H18V24H20V21H23V19H20V16Z"/>
</mask>
<path fill-rule="evenodd" clip-rule="evenodd" d="M20 16H18V19H15V21H18V24H20V21H23V19H20V16Z" fill="#99ABB4"/>
<path d="M18 16V15H17V16H18ZM20 16H21V15H20V16ZM18 19V20H19V19H18ZM15 19V18H14V19H15ZM15 21H14V22H15V21ZM18 21H19V20H18V21ZM18 24H17V25H18V24ZM20 24V25H21V24H20ZM20 21V20H19V21H20ZM23 21V22H24V21H23ZM23 19H24V18H23V19ZM20 19H19V20H20V19ZM18 17H20V15H18V17ZM19 19V16H17V19H19ZM15 20H18V18H15V20ZM16 21V19H14V21H16ZM18 20H15V22H18V20ZM19 24V21H17V24H19ZM20 23H18V25H20V23ZM19 21V24H21V21H19ZM23 20H20V22H23V20ZM22 19V21H24V19H22ZM20 20H23V18H20V20ZM19 16V19H21V16H19Z" fill="white" mask="url(#path-3-outside-1)"/>
</g>
<defs>
<clipPath id="clip012">
<rect width="24" height="24" fill="white"/>
</clipPath>
</defs>
</svg>
