<svg width="295" height="414" viewBox="0 0 295 414" fill="none" xmlns="http://www.w3.org/2000/svg">
<path d="M93.2433 400.186C92.108 394.888 91.8242 387.887 91.8242 385.049L97.0276 379.846C97.1852 378.111 97.5006 374.169 97.5006 372.277C97.5006 370.385 98.4467 368.966 98.9197 368.493H111.219L110.272 363.763L109.326 361.871L108.853 360.452L119.26 359.979H167.982L187.377 360.452C187.755 361.208 186.273 362.659 185.484 363.29L184.538 368.493H196.837C197.153 368.651 197.878 369.345 198.256 370.858C198.635 372.372 198.729 377.481 198.729 379.846L203.933 385.049C203.933 387.257 203.838 392.618 203.46 396.402C203.081 400.186 201.725 406.493 201.095 409.174C200.338 412.201 198.256 413.273 197.31 413.431L195.891 412.012H100.339L98.9197 413.431L95.6085 412.012L93.2433 400.186Z" fill="white"/>
<path d="M125.818 370.75L119.426 368.724L98.9229 368.612" stroke="#36444C" stroke-miterlimit="10" stroke-linecap="round" stroke-linejoin="round"/>
<path d="M113.872 378.448L99.9248 378.838" stroke="#36444C" stroke-miterlimit="10" stroke-linecap="round" stroke-linejoin="round"/>
<path d="M147.998 387.027H122.419" stroke="#36444C" stroke-miterlimit="10" stroke-linecap="round" stroke-linejoin="round"/>
<path d="M147.999 411.967H100.096" stroke="#36444C" stroke-miterlimit="10" stroke-linecap="round" stroke-linejoin="round"/>
<path d="M170.18 370.75L176.572 368.724L197.074 368.612" stroke="#36444C" stroke-miterlimit="10" stroke-linecap="round" stroke-linejoin="round"/>
<path d="M182.123 378.448L196.071 378.838" stroke="#36444C" stroke-miterlimit="10" stroke-linecap="round" stroke-linejoin="round"/>
<path d="M147.999 387.027H173.578" stroke="#36444C" stroke-miterlimit="10" stroke-linecap="round" stroke-linejoin="round"/>
<path d="M147.999 411.967H195.903" stroke="#36444C" stroke-miterlimit="10" stroke-linecap="round" stroke-linejoin="round"/>
<path d="M111.516 368.722C111.516 368.722 111.708 369.543 110.402 363.733" stroke="#36444C" stroke-miterlimit="10" stroke-linecap="round" stroke-linejoin="round"/>
<path d="M122.42 387.027C118.728 386.987 115.468 384.635 114.299 381.166L113.807 378.523" stroke="#36444C" stroke-miterlimit="10" stroke-linecap="round" stroke-linejoin="round"/>
<path d="M185.593 363.732C184.287 369.542 184.479 368.721 184.479 368.721" stroke="#36444C" stroke-miterlimit="10" stroke-linecap="round" stroke-linejoin="round"/>
<path d="M173.578 387.027C177.27 386.987 180.53 384.635 181.699 381.166L182.192 378.523" stroke="#36444C" stroke-miterlimit="10" stroke-linecap="round" stroke-linejoin="round"/>
<path d="M108.794 360.506C108.784 360.917 108.875 361.325 109.058 361.695" stroke="#36444C" stroke-miterlimit="10" stroke-linecap="round" stroke-linejoin="round"/>
<path d="M109.057 361.695C109.43 362.356 109.859 362.985 110.338 363.575" stroke="#36444C" stroke-miterlimit="10" stroke-linecap="round" stroke-linejoin="round"/>
<path d="M110.404 363.734C110.393 363.677 110.371 363.623 110.34 363.575" stroke="#36444C" stroke-miterlimit="10" stroke-linecap="round" stroke-linejoin="round"/>
<path d="M186.94 361.695C187.124 361.325 187.214 360.917 187.205 360.506" stroke="#36444C" stroke-miterlimit="10" stroke-linecap="round" stroke-linejoin="round"/>
<path d="M185.657 363.575C186.136 362.985 186.565 362.356 186.939 361.695" stroke="#36444C" stroke-miterlimit="10" stroke-linecap="round" stroke-linejoin="round"/>
<path d="M185.657 363.575C185.626 363.623 185.604 363.677 185.593 363.734" stroke="#36444C" stroke-miterlimit="10" stroke-linecap="round" stroke-linejoin="round"/>
<path d="M187.205 360.506C161.081 359.344 134.918 359.344 108.794 360.506" stroke="#36444C" stroke-miterlimit="10" stroke-linecap="round" stroke-linejoin="round"/>
<path d="M113.694 378.453C118.233 376.749 122.362 374.126 125.817 370.75" stroke="#36444C" stroke-miterlimit="10" stroke-linecap="round" stroke-linejoin="round"/>
<path d="M170.18 370.75C173.635 374.126 177.764 376.749 182.303 378.453" stroke="#36444C" stroke-miterlimit="10" stroke-linecap="round" stroke-linejoin="round"/>
<path d="M91.917 384.774C92.0601 387.189 92.1222 392.452 92.8758 399.258" stroke="#36444C" stroke-miterlimit="10" stroke-linecap="round" stroke-linejoin="round"/>
<path d="M204.08 384.916C203.794 387.899 203.875 392.452 203.121 399.258" stroke="#36444C" stroke-miterlimit="10" stroke-linecap="round" stroke-linejoin="round"/>
<path d="M99.9261 378.838C98.9051 379.066 97.937 379.486 97.0742 380.073" stroke="#36444C" stroke-miterlimit="10" stroke-linecap="round" stroke-linejoin="round"/>
<path d="M97.0737 380.072C95.1162 381.374 93.39 382.988 91.9648 384.848" stroke="#36444C" stroke-miterlimit="10" stroke-linecap="round" stroke-linejoin="round"/>
<path d="M198.922 380.073C198.06 379.486 197.091 379.066 196.07 378.838" stroke="#36444C" stroke-miterlimit="10" stroke-linecap="round" stroke-linejoin="round"/>
<path d="M204.032 384.848C202.607 382.988 200.88 381.374 198.923 380.072" stroke="#36444C" stroke-miterlimit="10" stroke-linecap="round" stroke-linejoin="round"/>
<path d="M92.2568 391.969C92.4039 395.85 92.8415 399.715 93.5662 403.533C94.0108 405.874 94.5923 408.189 95.3079 410.464C95.653 411.561 96.4302 412.474 97.4639 412.996C97.8695 413.201 98.3071 413.337 98.7581 413.397C99.1081 413.444 99.4339 413.212 99.5002 412.868L100.073 411.908" stroke="#36444C" stroke-miterlimit="10" stroke-linecap="round" stroke-linejoin="round"/>
<path d="M203.74 391.969C203.593 395.85 203.156 399.715 202.431 403.533C201.986 405.874 201.405 408.189 200.689 410.464C200.344 411.561 199.567 412.474 198.533 412.996C198.128 413.201 197.69 413.337 197.239 413.397C196.889 413.444 196.563 413.212 196.497 412.868L195.924 412.05" stroke="#36444C" stroke-miterlimit="10" stroke-linecap="round" stroke-linejoin="round"/>
<path d="M97.6655 371.808C97.186 374.535 96.9894 377.304 97.0784 380.07" stroke="#36444C" stroke-miterlimit="10" stroke-linecap="round" stroke-linejoin="round"/>
<path d="M99.0595 368.521C99.0595 368.521 97.8683 369.817 97.666 371.808" stroke="#36444C" stroke-miterlimit="10" stroke-linecap="round" stroke-linejoin="round"/>
<path d="M198.92 380.07C199.009 377.304 198.813 374.535 198.333 371.808" stroke="#36444C" stroke-miterlimit="10" stroke-linecap="round" stroke-linejoin="round"/>
<path d="M198.332 371.808C198.129 369.817 196.938 368.521 196.938 368.521" stroke="#36444C" stroke-miterlimit="10" stroke-linecap="round" stroke-linejoin="round"/>
<g clip-path="url(#clip0)">
<path d="M103.775 23.1934L103.775 358.337L-0.000342961 358.337L-0.000328064 23.1934L103.775 23.1934Z" fill="white"/>
<path d="M16.1391 327.812L16.6121 308.891L18.5035 308.891L18.5035 306.526L14.2462 259.696L13.7732 255.911L13.7732 126.301L12.8271 123.935L12.8271 120.151L15.1923 119.678L14.2462 114.002L13.7732 72.375L13.7732 71.4289L14.2462 49.1964L17.5575 33.5864C19.828 35.1001 23.2338 34.8478 24.6529 34.5325L28.9102 34.0594L29.3833 33.5864L36.0057 33.1132C37.141 32.3564 37.4248 32.7979 37.4248 33.1132L37.8978 34.0593L41.209 33.1132L47.3584 35.9514L48.3045 35.4784L51.1427 37.3705L54.4539 41.1547C57.1029 46.0743 59.3419 53.2959 60.1303 56.2918L62.9685 69.0636L66.7527 92.7152L69.1179 109.271L68.1718 114.948L71.9561 120.151L85.201 143.803C87.2508 147.745 91.918 156.953 94.1886 162.251C96.4591 167.549 98.2882 178.019 98.9189 182.591L100.338 204.351L99.8649 233.206C99.7073 238.567 99.2973 250.424 98.9189 254.965C98.5405 259.506 95.6077 272.625 94.1886 278.617L82.8358 309.837L75.2673 328.285L74.3212 335.38L71.9561 350.517L71.4831 351.464L63.4415 354.775L62.4955 354.302L61.5494 352.883L60.1303 352.41H57.7651C54.7377 354.302 50.1966 354.459 48.3045 354.302C47.5161 353.513 45.6555 352.599 44.5203 355.248C43.385 357.897 42.1551 358.244 41.6821 358.086L33.6405 357.613L32.2214 357.14C28.4372 357.14 26.8604 356.509 26.5451 356.194L24.1799 353.356C20.7741 350.328 18.9766 344.526 18.5035 342.003L17.5582 335.38C16.0445 332.731 15.9814 329.231 16.1391 327.812Z" fill="white"/>
<path d="M14.5 257.5L23 249" stroke="#455A64"/>
<path d="M39.3181 113.055C32.1283 117.975 19.9239 119.52 14.7205 119.677L14.2474 113.528L13.7744 72.3742L13.7744 67.1709L26.5463 67.1709C31.1189 67.9593 41.3048 71.3336 45.4675 78.5237C49.6302 85.7137 50.0402 91.2955 49.7248 93.1876C49.2517 97.7603 46.508 108.135 39.3181 113.055Z" fill="#455A64"/>
<path d="M48 36C50.0002 38 50.5001 40.8334 50.5 42L50 42.5L42.5 36.5L38.5 34.5L39 33.5H41.5L48 36Z" fill="#455A64"/>
<path d="M65.1123 345.036L65.1123 323.6L64.6102 322.936L63.857 322.687L63.1874 322.936L59.4214 325.013L51.8893 329.333L54.1489 348.941L57.915 352.015L61.4299 352.597L64.3591 349.938L64.7775 348.941L65.1123 345.036Z" fill="white"/>
<path d="M22.5961 43.5257L24.0188 42.861L28.8921 40.6846L30.2119 53.745L22.5961 59.8931L22.5961 43.5257Z" fill="white"/>
<path d="M48.3736 63.7977L45.1097 61.3882L44.6912 56.4863L43.8543 50.7535L42.9337 44.9377L42.1805 40.7835L42.1805 40.4512L44.6912 41.6143L47.2856 43.276L49.629 45.1869L50.6332 46.4332L51.8886 50.3381L53.5624 61.7206L53.8135 67.5364L53.3113 68.118L52.6418 68.118L48.3736 63.7977Z" fill="white"/>
<path d="M95.4082 273.583L92.4791 270.925L87.2903 286.212L82.771 298.841L78.4191 309.725L74.0672 320.443L75.3226 328.585L80.8461 314.71L85.8675 301.749L89.1314 293.274L92.9812 282.307L95.4082 273.583Z" fill="white"/>
<path d="M68.2072 122.787L68.2072 115.31L68.6256 115.31L74.1491 124.2L80.7607 135.167L87.1211 146.964L94.0674 162.252L93.9 163.332L93.0631 165.16L87.1211 153.362L81.0954 142.478L74.9024 132.591L68.2072 122.787Z" fill="white"/>
<path d="M85.8667 200.969L69.4635 195.901L69.045 183.438L68.7939 174.631L68.5429 165.243L68.5429 149.291L69.5471 149.54L73.3132 149.124L75.0707 148.294L76.6608 147.214L76.9119 146.133L76.6608 144.97L77.1602 143.329L79.9984 147.214L84.2556 155.155L88.0399 162.25L90.8781 170.292L92.7702 176.441C93.3002 180.319 94.7337 188.439 95.1354 190.632C95.5371 192.826 95.5526 200.665 95.6084 203.877L85.8667 200.969Z" fill="white"/>
<path d="M78.8377 273.002L79.8419 274.249L80.2604 274.249L82.5 275L84 272C84.6416 270.643 87.1524 265.808 90.5 257.5C93.8476 249.192 94.8605 242.383 95 240.5L95.5 238L96 225L96 212L80.5115 210.274L69.8828 209.443L70.2176 216.755L70.8034 232.291L70.9708 240.267L71.724 252.398C71.8635 254.059 72.3266 258.13 73.063 261.121C73.7995 264.112 77.2197 270.288 78.8377 273.002Z" fill="white"/>
<path d="M34.1136 307.471C26.9237 310.499 20.3957 309.679 18.0305 308.89L18.0305 305.579L12.8271 263.479L14.2462 257.803L17.5575 257.803L26.072 258.276C29.3833 259.064 36.9518 261.398 40.736 264.425C45.4663 268.209 48.3045 273.886 49.2506 279.089C50.0074 283.252 48.6199 290.284 47.8315 293.28C46.2546 296.749 41.3034 304.444 34.1136 307.471Z" fill="#455A64"/>
<path d="M75.2881 328.586L74.1184 320.251" stroke="#455A64" stroke-miterlimit="10" stroke-linecap="round" stroke-linejoin="round"/>
<path d="M95.4736 273.754L92.4918 270.847L87 265.5" stroke="#455A64" stroke-miterlimit="10" stroke-linecap="round" stroke-linejoin="round"/>
<path d="M64.8691 347.525C64.8691 349.147 64.7948 349.358 64.5878 349.67C64.3811 349.981 64.0416 350.391 61.5073 352.713" stroke="#455A64" stroke-miterlimit="10" stroke-linecap="round" stroke-linejoin="round"/>
<path d="M94.0664 162.265L93.2086 165.45" stroke="#455A64" stroke-miterlimit="10" stroke-linecap="round" stroke-linejoin="round"/>
<path d="M93.2099 165.45C94.7486 169.685 95.4795 172.635 96.0724 175.77C96.6653 178.906 97.1202 182.227 97.4506 185.542C97.7808 188.858 97.9869 192.168 98.16 196.026C98.3332 199.884 98.474 204.291 98.5443 209.159C98.6146 214.027 98.6146 219.358 98.569 224.051C98.5235 228.743 98.4319 232.798 98.2853 236.539C98.1385 240.279 97.9363 243.705 97.6617 246.772C97.3873 249.839 97.0407 252.547 96.2337 256.53C95.427 260.511 94.1599 265.767 92.4918 270.846" stroke="#455A64" stroke-miterlimit="10" stroke-linecap="round" stroke-linejoin="round"/>
<path d="M68.1816 114.983L68.1816 122.58" stroke="#455A64" stroke-miterlimit="10" stroke-linecap="round" stroke-linejoin="round"/>
<path d="M68.1793 122.58C72.5581 128.829 75.259 132.976 77.4148 136.384C79.5708 139.793 81.1819 142.464 82.9092 145.54C84.6366 148.617 86.4805 152.099 88.247 155.508C90.0137 158.918 91.7034 162.255 93.209 165.451" stroke="#455A64" stroke-miterlimit="10" stroke-linecap="round" stroke-linejoin="round"/>
<path d="M68.1816 122.58C67.6763 129.769 67.3327 136.134 67.3327 137.7" stroke="#455A64" stroke-miterlimit="10" stroke-linecap="round" stroke-linejoin="round"/>
<path d="M77.159 142.856C77.2147 143.373 76.8719 146.756 76.6244 147.103C76.3768 147.449 75.993 147.8 75.3995 148.141C74.806 148.483 74.0025 148.817 73.1894 149.042C72.3763 149.267 71.5531 149.384 70.7602 149.41C69.9672 149.436 69.2041 149.371 68.7769 149.325C68.3501 149.279 68.2591 149.251 68.1238 149.204C67.9884 149.156 67.809 149.089 67.6418 148.941C67.4747 148.794 67.32 148.567 67.1808 148.118C67.0415 147.67 66.9178 147.001 66.794 145.441C66.6703 143.882 66.5464 141.433 66.528 140.049C66.5093 138.665 66.596 138.346 66.8015 138.104" stroke="#455A64" stroke-miterlimit="10" stroke-linecap="round" stroke-linejoin="round"/>
<path d="M73.375 137.18C72.2174 137.024 67.482 138 66.7526 138.126" stroke="#455A64" stroke-miterlimit="10" stroke-linecap="round" stroke-linejoin="round"/>
<path d="M69.6953 202.705L95.8838 208.097" stroke="#455A64" stroke-miterlimit="10" stroke-linecap="round" stroke-linejoin="round"/>
<path d="M95.5195 204.013L69.4259 195.848" stroke="#455A64" stroke-miterlimit="10" stroke-linecap="round" stroke-linejoin="round"/>
<path d="M69.9691 209.437L95.5195 211.679" stroke="#455A64" stroke-miterlimit="10" stroke-linecap="round" stroke-linejoin="round"/>
<path d="M14.955 119.684L19.958 119.096" stroke="#455A64" stroke-miterlimit="10" stroke-linecap="round" stroke-linejoin="round"/>
<path d="M24.0645 258.322L17.3609 257.996" stroke="#455A64" stroke-miterlimit="10" stroke-linecap="round" stroke-linejoin="round"/>
<path d="M17.4082 257.965L13.9769 257.965" stroke="#455A64" stroke-miterlimit="10" stroke-linecap="round" stroke-linejoin="round"/>
<path d="M14.0233 67.125L23.1494 67.125" stroke="#455A64" stroke-miterlimit="10" stroke-linecap="round" stroke-linejoin="round"/>
<path d="M14.0207 67.1245L14.4316 49.2559" stroke="#455A64" stroke-miterlimit="10" stroke-linecap="round" stroke-linejoin="round"/>
<path d="M14.0205 67.125L13.7718 72.4204" stroke="#455A64" stroke-miterlimit="10" stroke-linecap="round" stroke-linejoin="round"/>
<path d="M23.7212 115.617C36.2611 115.617 46.4268 105.452 46.4268 92.9115C46.4268 80.3716 36.2612 70.2061 23.7212 70.2061C11.1813 70.2061 1.01573 80.3716 1.01573 92.9115C1.0159 105.452 11.1813 115.617 23.7212 115.617Z" fill="white" stroke="#455A64" stroke-miterlimit="10" stroke-linecap="round" stroke-linejoin="round"/>
<path d="M23.313 107.626C31.1504 107.626 37.5039 101.273 37.5039 93.4351C37.5039 85.5977 31.1504 79.2441 23.313 79.2441C15.4756 79.2441 9.12201 85.5977 9.12201 93.4351C9.12201 101.272 15.4757 107.626 23.313 107.626Z" fill="#455A64" stroke="#455A64" stroke-miterlimit="10" stroke-linecap="round" stroke-linejoin="round"/>
<path d="M23.7212 306.329C36.2611 306.329 46.4268 296.164 46.4268 283.624C46.4268 271.084 36.2612 260.918 23.7212 260.918C11.1813 260.918 1.01573 271.084 1.01573 283.624C1.0159 296.163 11.1813 306.329 23.7212 306.329Z" fill="white" stroke="#455A64" stroke-miterlimit="10" stroke-linecap="round" stroke-linejoin="round"/>
<path d="M23.7065 298.011C31.5439 298.011 37.8975 291.657 37.8975 283.82C37.8975 275.982 31.5439 269.629 23.7065 269.629C15.8691 269.629 9.51557 275.982 9.51557 283.82C9.5157 291.657 15.8692 298.011 23.7065 298.011Z" fill="#455A64" stroke="#455A64" stroke-miterlimit="10" stroke-linecap="round" stroke-linejoin="round"/>
<path d="M12.9493 263.544L13.9209 258.189L13.5241 125.646" stroke="#455A64" stroke-miterlimit="10" stroke-linecap="round" stroke-linejoin="round"/>
<path d="M14.9551 119.685L13.3266 119.685L12.7945 120.026" stroke="#455A64" stroke-miterlimit="10" stroke-linecap="round" stroke-linejoin="round"/>
<path d="M12.7927 120.026L12.7927 124.135L13.5234 125.647" stroke="#455A64" stroke-miterlimit="10" stroke-linecap="round" stroke-linejoin="round"/>
<path d="M22.4978 43.5492L29.3994 40.2666" stroke="#455A64" stroke-miterlimit="10" stroke-linecap="round" stroke-linejoin="round"/>
<path d="M29.4806 40.0957L30.2119 53.7624" stroke="#455A64" stroke-miterlimit="10" stroke-linecap="round" stroke-linejoin="round"/>
<path d="M30.2119 53.7617L22.405 60.1429" stroke="#455A64" stroke-miterlimit="10" stroke-linecap="round" stroke-linejoin="round"/>
<path d="M14.4331 49.2564L17.6992 33.458" stroke="#455A64" stroke-miterlimit="10" stroke-linecap="round" stroke-linejoin="round"/>
<path d="M29.0413 34.3677C29.0138 34.0145 29.0138 33.8938 29.0453 33.776C29.0767 33.6584 29.1395 33.5437 29.2927 33.4244C29.4456 33.3053 29.6889 33.1816 36.5342 33.1816" stroke="#455A64" stroke-miterlimit="10" stroke-linecap="round" stroke-linejoin="round"/>
<path d="M29.0322 34.2437L23.9966 34.6949C22.1656 34.7983 18.3144 34.7212 17.5575 33.5859" stroke="#455A64" stroke-miterlimit="10" stroke-linecap="round" stroke-linejoin="round"/>
<path d="M53.7685 66.8328C53.7729 67.1259 53.7628 67.2236 53.7459 67.321C53.7171 67.4834 53.6683 67.645 53.5765 67.7683C53.4848 67.8916 53.3504 67.9765 53.212 68.0289C53.0734 68.0814 52.9309 68.1017 52.8247 68.0987C52.7184 68.0957 52.6481 68.0696 52.1576 67.5845C51.6672 67.0995 50.7565 66.1557 49.7228 65.1746C48.6888 64.1937 47.5319 63.1755 46.4788 62.2873L45.0592 61.0479" stroke="#455A64" stroke-miterlimit="10" stroke-linecap="round" stroke-linejoin="round"/>
<path d="M37.5463 33.1816C37.5463 33.6261 37.5975 33.8309 37.6223 33.8963C37.6469 33.9616 37.6606 33.9673 37.6954 33.9987C37.7301 34.0299 37.7748 34.0578 37.8377 34.0839C37.9008 34.1099 38.0014 34.1326 38.2327 34.2042C38.4642 34.2759 38.7717 34.3912 39.1644 34.5972C39.557 34.8031 40.0486 35.1025 40.7859 35.6025C41.5234 36.1024 42.4509 36.7649 43.967 37.879C45.3859 38.9217 47.3551 40.3847 50.3164 42.5855" stroke="#455A64" stroke-miterlimit="10" stroke-linecap="round" stroke-linejoin="round"/>
<path d="M37.5459 33.1813C37.5459 32.9043 37.3196 32.6797 37.0407 32.6797C36.7617 32.6797 36.5354 32.9043 36.5354 33.1813" stroke="#455A64" stroke-miterlimit="10" stroke-linecap="round" stroke-linejoin="round"/>
<path d="M38.1307 34.1725C40.2986 33.2468 40.5394 33.2495 40.8506 33.2907C41.1835 33.3347 41.5971 33.4228 42.6735 33.7887C43.75 34.1544 45.4887 34.7978 47.915 35.9947" stroke="#455A64" stroke-miterlimit="10" stroke-linecap="round" stroke-linejoin="round"/>
<path d="M28.4214 357.224L32.6318 357.224" stroke="#455A64" stroke-miterlimit="10" stroke-linecap="round" stroke-linejoin="round"/>
<path d="M58.041 352.091L54.199 348.868L51.9415 329.337L46.9183 302.045L45.4212 297.931" stroke="#455A64" stroke-miterlimit="10" stroke-linecap="round" stroke-linejoin="round"/>
<path d="M61.5049 352.713L58.0395 352.092" stroke="#455A64" stroke-miterlimit="10" stroke-linecap="round" stroke-linejoin="round"/>
<path d="M50.3083 45.8934C50.3314 43.5968 50.3267 42.1244 50.2704 41.0717C50.2095 39.9293 50.0871 39.2814 49.7872 38.645C49.4871 38.0084 49.0089 37.3836 47.9129 35.9951" stroke="#455A64" stroke-miterlimit="10" stroke-linecap="round" stroke-linejoin="round"/>
<path d="M65.1914 323.666C64.9579 323.357 64.6724 323.092 64.3478 322.88C63.9258 322.676 63.4306 322.685 63.017 322.906C59.421 325.209 55.7254 327.355 51.9408 329.338" stroke="#455A64" stroke-miterlimit="10" stroke-linecap="round" stroke-linejoin="round"/>
<path d="M94.0664 162.265C86.9752 145.721 78.3069 129.889 68.1789 114.983" stroke="#455A64" stroke-miterlimit="10" stroke-linecap="round" stroke-linejoin="round"/>
<path d="M68.1808 114.983L68.9744 109.773L69.0176 108.544C67.1307 91.6334 64.3723 74.8296 60.7532 58.1987C59.4664 52.2848 57.3801 46.5708 54.5511 41.2121C53.0187 39.0754 51.1323 37.2121 48.9723 35.7017C48.6523 35.4778 48.2096 35.5541 47.9843 35.8718C47.957 35.9104 47.9334 35.9516 47.9145 35.9948" stroke="#455A64" stroke-miterlimit="10" stroke-linecap="round" stroke-linejoin="round"/>
<path d="M68.1816 114.984L60.4231 69.6106C59.0428 61.5425 56.897 53.6222 54.0137 45.9556C53.1156 43.872 51.8286 41.9759 50.2206 40.3672" stroke="#455A64" stroke-miterlimit="10" stroke-linecap="round" stroke-linejoin="round"/>
<path d="M64.8679 347.525C65.261 339.579 65.369 331.62 65.1919 323.666" stroke="#455A64" stroke-miterlimit="10" stroke-linecap="round" stroke-linejoin="round"/>
<path d="M16.644 308.623C30.3693 312.463 44.6311 304.529 48.4985 290.903C52.3656 277.277 44.374 263.119 30.6487 259.28C28.5052 258.68 26.2925 258.358 24.0658 258.322" stroke="#455A64" stroke-miterlimit="10" stroke-linecap="round" stroke-linejoin="round"/>
<path d="M18.0381 308.972L17.9911 305.519" stroke="#455A64" stroke-miterlimit="10" stroke-linecap="round" stroke-linejoin="round"/>
<path d="M16.6416 308.624C15.9772 315.849 15.8083 323.111 16.1359 330.359" stroke="#455A64" stroke-miterlimit="10" stroke-linecap="round" stroke-linejoin="round"/>
<path d="M16.138 330.358C16.1668 332.15 16.6191 333.909 17.459 335.495" stroke="#455A64" stroke-miterlimit="10" stroke-linecap="round" stroke-linejoin="round"/>
<path d="M25.7686 355.076C26.3069 356.132 27.2702 356.912 28.4199 357.224" stroke="#455A64" stroke-miterlimit="10" stroke-linecap="round" stroke-linejoin="round"/>
<path d="M18.6217 341.447C19.283 346.694 21.8194 351.529 25.7695 355.076" stroke="#455A64" stroke-miterlimit="10" stroke-linecap="round" stroke-linejoin="round"/>
<path d="M17.4596 335.494C17.825 337.483 18.2125 339.467 18.6221 341.447" stroke="#455A64" stroke-miterlimit="10" stroke-linecap="round" stroke-linejoin="round"/>
<path d="M75.2866 328.586C81.5739 313.526 87.4242 298.29 92.8301 282.896" stroke="#455A64" stroke-miterlimit="10" stroke-linecap="round" stroke-linejoin="round"/>
<path d="M75.2881 328.586C74.0259 335.921 72.9419 343.284 72.0369 350.671C71.9987 350.982 71.8637 351.273 71.6506 351.504L68.3415 353.01L64.3702 354.478C63.9099 354.648 63.4098 354.683 62.9301 354.578L62.5883 354.247L61.5067 352.713" stroke="#455A64" stroke-miterlimit="10" stroke-linecap="round" stroke-linejoin="round"/>
<path d="M74.1191 320.251C71.5637 330.18 70.8582 340.489 72.0374 350.671" stroke="#455A64" stroke-miterlimit="10" stroke-linecap="round" stroke-linejoin="round"/>
<path d="M74.1164 320.251C81.0361 304.085 87.1679 287.598 92.4902 270.847" stroke="#455A64" stroke-miterlimit="10" stroke-linecap="round" stroke-linejoin="round"/>
<path d="M99.207 186.396C98.7975 178.132 97.0619 169.986 94.0665 162.265" stroke="#455A64" stroke-miterlimit="10" stroke-linecap="round" stroke-linejoin="round"/>
<path d="M98.5348 255.32C100.738 232.406 100.963 209.348 99.2076 186.396" stroke="#455A64" stroke-miterlimit="10" stroke-linecap="round" stroke-linejoin="round"/>
<path d="M92.8299 282.896C95.7436 273.939 97.6564 264.691 98.5342 255.319" stroke="#455A64" stroke-miterlimit="10" stroke-linecap="round" stroke-linejoin="round"/>
<path d="M21.1953 244.981L18.0178 127.168" stroke="#455A64" stroke-miterlimit="10" stroke-linecap="round" stroke-linejoin="round"/>
<path d="M75.3983 279.498C77.1379 280.034 79.0286 279.424 80.1201 277.977" stroke="#455A64" stroke-miterlimit="10" stroke-linecap="round" stroke-linejoin="round"/>
<path d="M65.4002 273.818C68.4418 276.177 71.8087 278.089 75.3975 279.497" stroke="#455A64" stroke-miterlimit="10" stroke-linecap="round" stroke-linejoin="round"/>
<path d="M65.4014 273.819C53.4963 264.925 40.606 257.41 26.9821 251.422" stroke="#455A64" stroke-miterlimit="10" stroke-linecap="round" stroke-linejoin="round"/>
<path d="M21.1968 244.98C21.719 248.052 23.9673 250.555 26.9814 251.421" stroke="#455A64" stroke-miterlimit="10" stroke-linecap="round" stroke-linejoin="round"/>
<path d="M69.6885 202.702C66.9264 201.359 64.0409 200.283 61.0717 199.487" stroke="#455A64" stroke-miterlimit="10" stroke-linecap="round" stroke-linejoin="round"/>
<path d="M61.0723 199.483C48.2841 198.417 35.4139 198.848 22.7275 200.768" stroke="#455A64" stroke-miterlimit="10" stroke-linecap="round" stroke-linejoin="round"/>
<path d="M20.0291 201.689C20.9364 201.407 21.8361 201.1 22.7266 200.769" stroke="#455A64" stroke-miterlimit="10" stroke-linecap="round" stroke-linejoin="round"/>
<path d="M14.9551 119.684L14.0201 113.404" stroke="#455A64" stroke-miterlimit="10" stroke-linecap="round" stroke-linejoin="round"/>
<path d="M30.0937 117.084C43.7933 113.761 52.1851 100.042 48.8375 86.4418C45.9657 74.7744 35.2405 66.7091 23.1491 67.1247" stroke="#455A64" stroke-miterlimit="10" stroke-linecap="round" stroke-linejoin="round"/>
<path d="M19.9564 119.096C23.3663 118.592 26.749 117.92 30.0918 117.084" stroke="#455A64" stroke-miterlimit="10" stroke-linecap="round" stroke-linejoin="round"/>
<path d="M61.0195 124.447C46.6508 122.395 32.0099 123.322 18.0199 127.168C18.0199 127.168 17.4582 122.799 16.7142 122.098C15.9705 121.397 14.9548 119.685 14.9548 119.685" stroke="#455A64" stroke-miterlimit="10" stroke-linecap="round" stroke-linejoin="round"/>
<path d="M42.1464 40.418C44.2599 51.061 45.486 61.859 45.8115 72.7021L45.1991 78.2404" stroke="#455A64" stroke-miterlimit="10" stroke-linecap="round" stroke-linejoin="round"/>
<path d="M42.1451 40.4189C45.2843 41.5376 48.0911 43.4199 50.3086 45.8933" stroke="#455A64" stroke-miterlimit="10" stroke-linecap="round" stroke-linejoin="round"/>
<path d="M51.2568 48.4127C51.0421 47.5386 50.7237 46.6927 50.3091 45.8926" stroke="#455A64" stroke-miterlimit="10" stroke-linecap="round" stroke-linejoin="round"/>
<path d="M53.7686 66.8076C53.7105 60.596 52.867 54.4162 51.2577 48.4131" stroke="#455A64" stroke-miterlimit="10" stroke-linecap="round" stroke-linejoin="round"/>
<path d="M67.7568 128.981C65.6179 127.318 63.3663 125.803 61.0178 124.447" stroke="#455A64" stroke-miterlimit="10" stroke-linecap="round" stroke-linejoin="round"/>
<path d="M67.7592 128.98C74.3355 137.756 80.1575 147.064 85.1644 156.807C87.7559 161.85 89.9839 167.07 91.8316 172.426C92.8633 176.189 93.6473 180.014 94.1789 183.878C96.1748 201.714 96.5405 219.692 95.2721 237.594C94.9074 242.739 93.8433 247.811 92.1091 252.672C90.254 257.871 88.2033 263 85.9614 268.047C84.3987 271.565 82.4392 274.896 80.1208 277.976" stroke="#455A64" stroke-miterlimit="10" stroke-linecap="round" stroke-linejoin="round"/>
<path d="M68.4416 149.307C68.4934 167.112 68.909 184.914 69.6885 202.702" stroke="#455A64" stroke-miterlimit="10" stroke-linecap="round" stroke-linejoin="round"/>
<path d="M69.6879 202.702L71.4746 249.391C71.6233 253.274 72.109 257.137 72.926 260.937C74.5072 265.42 76.6439 269.69 79.2865 273.648C79.4589 273.907 79.6845 274.126 79.9484 274.291C80.0745 274.371 81.8343 274.853 81.958 274.77" stroke="#455A64" stroke-miterlimit="10" stroke-linecap="round" stroke-linejoin="round"/>
<path d="M22.4971 43.5498L22.4971 60.189" stroke="#455A64" stroke-miterlimit="10" stroke-linecap="round" stroke-linejoin="round"/>
<path d="M58.041 352.091C54.8539 353.983 51.0747 354.636 47.4308 353.926C46.8274 353.764 46.1903 353.772 45.5913 353.949C45.2523 354.049 44.9778 354.298 44.8474 354.625C44.5103 355.468 44.1299 356.294 43.7078 357.098C43.6584 357.22 43.5849 357.33 43.4917 357.423C43.0926 357.821 42.5552 358.052 41.9899 358.068L41.1378 358.09L32.9645 357.608C32.8727 357.61 32.7884 357.558 32.7482 357.476" stroke="#455A64" stroke-miterlimit="10" stroke-linecap="round" stroke-linejoin="round"/>
</g>
<g clip-path="url(#clip1)">
<path d="M190.4 23.1934L190.4 358.337L294.176 358.337L294.176 23.1934L190.4 23.1934Z" fill="white"/>
<path d="M278.037 327.812L277.564 308.891L275.672 308.891L275.672 306.526L279.93 259.696L280.403 255.911L280.403 126.301L281.349 123.935V120.151L278.983 119.678L279.93 114.002L280.403 72.375V71.4289L279.93 49.1964L276.618 33.5864C274.348 35.1001 270.942 34.8478 269.523 34.5325L265.266 34.0594L264.793 33.5864L258.17 33.1132C257.035 32.3564 256.751 32.7979 256.751 33.1132L256.278 34.0593L252.967 33.1132L246.817 35.9514L245.871 35.4784L243.033 37.3705L239.722 41.1547C237.073 46.0743 234.834 53.2959 234.045 56.2918L231.207 69.0636L227.423 92.7152L225.058 109.271L226.004 114.948L222.22 120.151L208.975 143.803C206.925 147.745 202.258 156.953 199.987 162.251C197.717 167.549 195.888 178.019 195.257 182.591L193.838 204.351L194.311 233.206C194.469 238.567 194.878 250.424 195.257 254.965C195.635 259.506 198.568 272.625 199.987 278.617L211.34 309.837L218.908 328.285L219.855 335.38L222.22 350.517L222.693 351.464L230.734 354.775L231.68 354.302L232.626 352.883L234.045 352.41H236.411C239.438 354.302 243.979 354.459 245.871 354.302C246.66 353.513 248.52 352.599 249.656 355.248C250.791 357.897 252.021 358.244 252.494 358.086L260.535 357.613L261.954 357.14C265.739 357.14 267.315 356.509 267.631 356.194L269.996 353.356C273.402 350.328 275.199 344.526 275.672 342.003L276.618 335.38C278.131 332.731 278.194 329.231 278.037 327.812Z" fill="white"/>
<path d="M279.676 257.5L271.176 249" stroke="#455A64"/>
<path d="M254.858 113.055C262.048 117.975 274.252 119.52 279.455 119.677L279.928 113.528L280.401 72.3742L280.401 67.1709L267.63 67.1709C263.057 67.9593 252.871 71.3336 248.708 78.5237C244.546 85.7137 244.136 91.2955 244.451 93.1876C244.924 97.7603 247.668 108.135 254.858 113.055Z" fill="#455A64"/>
<path d="M246.176 36C244.176 38 243.676 40.8334 243.676 42L244.176 42.5L251.676 36.5L255.676 34.5L255.176 33.5H252.676L246.176 36Z" fill="#455A64"/>
<path d="M229.063 345.036L229.063 323.6L229.566 322.936L230.319 322.687L230.988 322.936L234.754 325.013L242.287 329.333L240.027 348.941L236.261 352.015L232.746 352.597L229.817 349.938L229.398 348.941L229.063 345.036Z" fill="white"/>
<path d="M271.58 43.5257L270.157 42.861L265.284 40.6846L263.964 53.745L271.58 59.8931L271.58 43.5257Z" fill="white"/>
<path d="M245.802 63.7977L249.066 61.3882L249.485 56.4863L250.321 50.7535L251.242 44.9377L251.995 40.7835L251.995 40.4512L249.485 41.6143L246.89 43.276L244.547 45.1869L243.543 46.4332L242.287 50.3381L240.613 61.7206L240.362 67.5364L240.864 68.118L241.534 68.118L245.802 63.7977Z" fill="white"/>
<path d="M198.768 273.583L201.697 270.925L206.886 286.212L211.405 298.841L215.757 309.725L220.109 320.443L218.853 328.585L213.33 314.71L208.308 301.749L205.044 293.274L201.195 282.307L198.768 273.583Z" fill="white"/>
<path d="M225.969 122.787L225.969 115.31L225.55 115.31L220.027 124.2L213.415 135.167L207.055 146.964L200.108 162.252L200.276 163.332L201.113 165.16L207.055 153.362L213.08 142.478L219.273 132.591L225.969 122.787Z" fill="white"/>
<path d="M208.309 200.969L224.712 195.901L225.131 183.438L225.382 174.631L225.633 165.243L225.633 149.291L224.629 149.54L220.863 149.124L219.105 148.294L217.515 147.214L217.264 146.133L217.515 144.97L217.016 143.329L214.177 147.214L209.92 155.155L206.136 162.25L203.298 170.292L201.406 176.441C200.876 180.319 199.442 188.439 199.04 190.632C198.639 192.826 198.623 200.665 198.567 203.877L208.309 200.969Z" fill="white"/>
<path d="M215.338 273.002L214.334 274.249L213.915 274.249L211.676 275L210.176 272C209.534 270.643 207.023 265.808 203.676 257.5C200.328 249.192 199.315 242.383 199.176 240.5L198.676 238L198.176 225L198.176 212L213.664 210.274L224.293 209.443L223.958 216.755L223.372 232.291L223.205 240.267L222.452 252.398C222.312 254.059 221.849 258.13 221.113 261.121C220.376 264.112 216.956 270.288 215.338 273.002Z" fill="white"/>
<path d="M260.062 307.471C267.252 310.499 273.78 309.679 276.145 308.89L276.145 305.579L281.349 263.479L279.93 257.803L276.618 257.803L268.104 258.276C264.793 259.064 257.224 261.398 253.44 264.425C248.709 268.209 245.871 273.886 244.925 279.089C244.168 283.252 245.556 290.284 246.344 293.28C247.921 296.749 252.872 304.444 260.062 307.471Z" fill="#455A64"/>
<path d="M218.888 328.586L220.057 320.251" stroke="#455A64" stroke-miterlimit="10" stroke-linecap="round" stroke-linejoin="round"/>
<path d="M198.702 273.754L201.684 270.847L207.176 265.5" stroke="#455A64" stroke-miterlimit="10" stroke-linecap="round" stroke-linejoin="round"/>
<path d="M229.307 347.525C229.307 349.147 229.381 349.358 229.588 349.67C229.795 349.981 230.134 350.391 232.668 352.713" stroke="#455A64" stroke-miterlimit="10" stroke-linecap="round" stroke-linejoin="round"/>
<path d="M200.109 162.265L200.967 165.45" stroke="#455A64" stroke-miterlimit="10" stroke-linecap="round" stroke-linejoin="round"/>
<path d="M200.966 165.45C199.427 169.685 198.696 172.635 198.103 175.77C197.511 178.906 197.056 182.227 196.725 185.542C196.395 188.858 196.189 192.168 196.016 196.026C195.843 199.884 195.702 204.291 195.632 209.159C195.561 214.027 195.561 219.358 195.607 224.051C195.652 228.743 195.744 232.798 195.89 236.539C196.037 240.279 196.239 243.705 196.514 246.772C196.788 249.839 197.135 252.547 197.942 256.53C198.749 260.511 200.016 265.767 201.684 270.846" stroke="#455A64" stroke-miterlimit="10" stroke-linecap="round" stroke-linejoin="round"/>
<path d="M225.994 114.983L225.994 122.58" stroke="#455A64" stroke-miterlimit="10" stroke-linecap="round" stroke-linejoin="round"/>
<path d="M225.996 122.58C221.618 128.829 218.917 132.976 216.761 136.384C214.605 139.793 212.994 142.464 211.267 145.54C209.539 148.617 207.695 152.099 205.929 155.508C204.162 158.918 202.472 162.255 200.967 165.451" stroke="#455A64" stroke-miterlimit="10" stroke-linecap="round" stroke-linejoin="round"/>
<path d="M225.994 122.58C226.499 129.769 226.843 136.134 226.843 137.7" stroke="#455A64" stroke-miterlimit="10" stroke-linecap="round" stroke-linejoin="round"/>
<path d="M217.017 142.856C216.961 143.373 217.304 146.756 217.551 147.103C217.799 147.449 218.183 147.8 218.776 148.141C219.37 148.483 220.173 148.817 220.986 149.042C221.8 149.267 222.623 149.384 223.416 149.41C224.209 149.436 224.972 149.371 225.399 149.325C225.826 149.279 225.917 149.251 226.052 149.204C226.187 149.156 226.367 149.089 226.534 148.941C226.701 148.794 226.856 148.567 226.995 148.118C227.134 147.67 227.258 147.001 227.382 145.441C227.506 143.882 227.629 141.433 227.648 140.049C227.667 138.665 227.58 138.346 227.374 138.104" stroke="#455A64" stroke-miterlimit="10" stroke-linecap="round" stroke-linejoin="round"/>
<path d="M220.801 137.18C221.958 137.024 226.694 138 227.423 138.126" stroke="#455A64" stroke-miterlimit="10" stroke-linecap="round" stroke-linejoin="round"/>
<path d="M224.48 202.705L198.292 208.097" stroke="#455A64" stroke-miterlimit="10" stroke-linecap="round" stroke-linejoin="round"/>
<path d="M198.656 204.013L224.75 195.848" stroke="#455A64" stroke-miterlimit="10" stroke-linecap="round" stroke-linejoin="round"/>
<path d="M224.207 209.437L198.656 211.679" stroke="#455A64" stroke-miterlimit="10" stroke-linecap="round" stroke-linejoin="round"/>
<path d="M279.221 119.684L274.218 119.096" stroke="#455A64" stroke-miterlimit="10" stroke-linecap="round" stroke-linejoin="round"/>
<path d="M270.111 258.322L276.815 257.996" stroke="#455A64" stroke-miterlimit="10" stroke-linecap="round" stroke-linejoin="round"/>
<path d="M276.768 257.965L280.199 257.965" stroke="#455A64" stroke-miterlimit="10" stroke-linecap="round" stroke-linejoin="round"/>
<path d="M280.152 67.125L271.026 67.125" stroke="#455A64" stroke-miterlimit="10" stroke-linecap="round" stroke-linejoin="round"/>
<path d="M280.155 67.1245L279.744 49.2559" stroke="#455A64" stroke-miterlimit="10" stroke-linecap="round" stroke-linejoin="round"/>
<path d="M280.155 67.125L280.404 72.4204" stroke="#455A64" stroke-miterlimit="10" stroke-linecap="round" stroke-linejoin="round"/>
<path d="M270.455 115.617C257.915 115.617 247.749 105.452 247.749 92.9115C247.749 80.3716 257.915 70.2061 270.455 70.2061C282.995 70.2061 293.16 80.3716 293.16 92.9115C293.16 105.452 282.995 115.617 270.455 115.617Z" fill="white" stroke="#455A64" stroke-miterlimit="10" stroke-linecap="round" stroke-linejoin="round"/>
<path d="M270.863 107.626C263.025 107.626 256.672 101.273 256.672 93.4351C256.672 85.5977 263.025 79.2441 270.863 79.2441C278.7 79.2441 285.054 85.5977 285.054 93.4351C285.054 101.272 278.7 107.626 270.863 107.626Z" fill="#455A64" stroke="#455A64" stroke-miterlimit="10" stroke-linecap="round" stroke-linejoin="round"/>
<path d="M270.455 306.329C257.915 306.329 247.749 296.164 247.749 283.624C247.749 271.084 257.915 260.918 270.455 260.918C282.995 260.918 293.16 271.084 293.16 283.624C293.16 296.163 282.995 306.329 270.455 306.329Z" fill="white" stroke="#455A64" stroke-miterlimit="10" stroke-linecap="round" stroke-linejoin="round"/>
<path d="M270.469 298.011C262.632 298.011 256.278 291.657 256.278 283.82C256.278 275.982 262.632 269.629 270.469 269.629C278.307 269.629 284.66 275.982 284.66 283.82C284.66 291.657 278.307 298.011 270.469 298.011Z" fill="#455A64" stroke="#455A64" stroke-miterlimit="10" stroke-linecap="round" stroke-linejoin="round"/>
<path d="M281.227 263.544L280.255 258.189L280.652 125.646" stroke="#455A64" stroke-miterlimit="10" stroke-linecap="round" stroke-linejoin="round"/>
<path d="M279.221 119.685L280.849 119.685L281.381 120.026" stroke="#455A64" stroke-miterlimit="10" stroke-linecap="round" stroke-linejoin="round"/>
<path d="M281.383 120.026L281.383 124.135L280.652 125.647" stroke="#455A64" stroke-miterlimit="10" stroke-linecap="round" stroke-linejoin="round"/>
<path d="M271.678 43.5492L264.776 40.2666" stroke="#455A64" stroke-miterlimit="10" stroke-linecap="round" stroke-linejoin="round"/>
<path d="M264.695 40.0957L263.964 53.7624" stroke="#455A64" stroke-miterlimit="10" stroke-linecap="round" stroke-linejoin="round"/>
<path d="M263.964 53.7617L271.771 60.1429" stroke="#455A64" stroke-miterlimit="10" stroke-linecap="round" stroke-linejoin="round"/>
<path d="M279.743 49.2564L276.477 33.458" stroke="#455A64" stroke-miterlimit="10" stroke-linecap="round" stroke-linejoin="round"/>
<path d="M265.135 34.3677C265.162 34.0145 265.162 33.8938 265.131 33.776C265.099 33.6584 265.036 33.5437 264.883 33.4244C264.73 33.3053 264.487 33.1816 257.642 33.1816" stroke="#455A64" stroke-miterlimit="10" stroke-linecap="round" stroke-linejoin="round"/>
<path d="M265.144 34.2437L270.179 34.6949C272.01 34.7983 275.861 34.7212 276.618 33.5859" stroke="#455A64" stroke-miterlimit="10" stroke-linecap="round" stroke-linejoin="round"/>
<path d="M240.407 66.8328C240.403 67.1259 240.413 67.2236 240.43 67.321C240.459 67.4834 240.508 67.645 240.599 67.7683C240.691 67.8916 240.825 67.9765 240.964 68.0289C241.102 68.0814 241.245 68.1017 241.351 68.0987C241.457 68.0957 241.528 68.0696 242.018 67.5845C242.509 67.0995 243.419 66.1557 244.453 65.1746C245.487 64.1937 246.644 63.1755 247.697 62.2873L249.117 61.0479" stroke="#455A64" stroke-miterlimit="10" stroke-linecap="round" stroke-linejoin="round"/>
<path d="M256.629 33.1816C256.629 33.6261 256.578 33.8309 256.553 33.8963C256.529 33.9616 256.515 33.9673 256.48 33.9987C256.446 34.0299 256.401 34.0578 256.338 34.0839C256.275 34.1099 256.174 34.1326 255.943 34.2042C255.712 34.2759 255.404 34.3912 255.011 34.5972C254.619 34.8031 254.127 35.1025 253.39 35.6025C252.652 36.1024 251.725 36.7649 250.209 37.879C248.79 38.9217 246.821 40.3847 243.859 42.5855" stroke="#455A64" stroke-miterlimit="10" stroke-linecap="round" stroke-linejoin="round"/>
<path d="M256.63 33.1813C256.63 32.9043 256.856 32.6797 257.135 32.6797C257.414 32.6797 257.64 32.9043 257.64 33.1813" stroke="#455A64" stroke-miterlimit="10" stroke-linecap="round" stroke-linejoin="round"/>
<path d="M256.045 34.1725C253.877 33.2468 253.636 33.2495 253.325 33.2907C252.992 33.3347 252.579 33.4228 251.502 33.7887C250.426 34.1544 248.687 34.7978 246.261 35.9947" stroke="#455A64" stroke-miterlimit="10" stroke-linecap="round" stroke-linejoin="round"/>
<path d="M265.754 357.224L261.544 357.224" stroke="#455A64" stroke-miterlimit="10" stroke-linecap="round" stroke-linejoin="round"/>
<path d="M236.135 352.091L239.977 348.868L242.234 329.337L247.258 302.045L248.755 297.931" stroke="#455A64" stroke-miterlimit="10" stroke-linecap="round" stroke-linejoin="round"/>
<path d="M232.671 352.713L236.136 352.092" stroke="#455A64" stroke-miterlimit="10" stroke-linecap="round" stroke-linejoin="round"/>
<path d="M243.868 45.8934C243.844 43.5968 243.849 42.1244 243.905 41.0717C243.966 39.9293 244.089 39.2814 244.389 38.645C244.689 38.0084 245.167 37.3836 246.263 35.9951" stroke="#455A64" stroke-miterlimit="10" stroke-linecap="round" stroke-linejoin="round"/>
<path d="M228.984 323.666C229.218 323.357 229.503 323.092 229.828 322.88C230.25 322.676 230.745 322.685 231.159 322.906C234.755 325.209 238.45 327.355 242.235 329.338" stroke="#455A64" stroke-miterlimit="10" stroke-linecap="round" stroke-linejoin="round"/>
<path d="M200.109 162.265C207.201 145.721 215.869 129.889 225.997 114.983" stroke="#455A64" stroke-miterlimit="10" stroke-linecap="round" stroke-linejoin="round"/>
<path d="M225.995 114.983L225.201 109.773L225.158 108.544C227.045 91.6334 229.804 74.8296 233.423 58.1987C234.709 52.2848 236.796 46.5708 239.625 41.2121C241.157 39.0754 243.043 37.2121 245.203 35.7017C245.524 35.4778 245.966 35.5541 246.192 35.8718C246.219 35.9104 246.242 35.9516 246.261 35.9948" stroke="#455A64" stroke-miterlimit="10" stroke-linecap="round" stroke-linejoin="round"/>
<path d="M225.994 114.984L233.753 69.6106C235.133 61.5425 237.279 53.6222 240.162 45.9556C241.06 43.872 242.347 41.9759 243.955 40.3672" stroke="#455A64" stroke-miterlimit="10" stroke-linecap="round" stroke-linejoin="round"/>
<path d="M229.308 347.525C228.915 339.579 228.807 331.62 228.984 323.666" stroke="#455A64" stroke-miterlimit="10" stroke-linecap="round" stroke-linejoin="round"/>
<path d="M277.532 308.623C263.806 312.463 249.545 304.529 245.677 290.903C241.81 277.277 249.802 263.119 263.527 259.28C265.671 258.68 267.883 258.358 270.11 258.322" stroke="#455A64" stroke-miterlimit="10" stroke-linecap="round" stroke-linejoin="round"/>
<path d="M276.138 308.972L276.185 305.519" stroke="#455A64" stroke-miterlimit="10" stroke-linecap="round" stroke-linejoin="round"/>
<path d="M277.534 308.624C278.199 315.849 278.367 323.111 278.04 330.359" stroke="#455A64" stroke-miterlimit="10" stroke-linecap="round" stroke-linejoin="round"/>
<path d="M278.038 330.358C278.009 332.15 277.557 333.909 276.717 335.495" stroke="#455A64" stroke-miterlimit="10" stroke-linecap="round" stroke-linejoin="round"/>
<path d="M268.407 355.076C267.869 356.132 266.906 356.912 265.756 357.224" stroke="#455A64" stroke-miterlimit="10" stroke-linecap="round" stroke-linejoin="round"/>
<path d="M275.554 341.447C274.893 346.694 272.356 351.529 268.406 355.076" stroke="#455A64" stroke-miterlimit="10" stroke-linecap="round" stroke-linejoin="round"/>
<path d="M276.716 335.494C276.351 337.483 275.963 339.467 275.554 341.447" stroke="#455A64" stroke-miterlimit="10" stroke-linecap="round" stroke-linejoin="round"/>
<path d="M218.889 328.586C212.602 313.526 206.752 298.29 201.346 282.896" stroke="#455A64" stroke-miterlimit="10" stroke-linecap="round" stroke-linejoin="round"/>
<path d="M218.888 328.586C220.15 335.921 221.234 343.284 222.139 350.671C222.177 350.982 222.312 351.273 222.525 351.504L225.834 353.01L229.806 354.478C230.266 354.648 230.766 354.683 231.246 354.578L231.587 354.247L232.669 352.713" stroke="#455A64" stroke-miterlimit="10" stroke-linecap="round" stroke-linejoin="round"/>
<path d="M220.057 320.251C222.612 330.18 223.318 340.489 222.138 350.671" stroke="#455A64" stroke-miterlimit="10" stroke-linecap="round" stroke-linejoin="round"/>
<path d="M220.059 320.251C213.14 304.085 207.008 287.598 201.686 270.847" stroke="#455A64" stroke-miterlimit="10" stroke-linecap="round" stroke-linejoin="round"/>
<path d="M194.969 186.396C195.378 178.132 197.114 169.986 200.109 162.265" stroke="#455A64" stroke-miterlimit="10" stroke-linecap="round" stroke-linejoin="round"/>
<path d="M195.641 255.32C193.437 232.406 193.212 209.348 194.968 186.396" stroke="#455A64" stroke-miterlimit="10" stroke-linecap="round" stroke-linejoin="round"/>
<path d="M201.346 282.896C198.432 273.939 196.519 264.691 195.642 255.319" stroke="#455A64" stroke-miterlimit="10" stroke-linecap="round" stroke-linejoin="round"/>
<path d="M272.98 244.981L276.158 127.168" stroke="#455A64" stroke-miterlimit="10" stroke-linecap="round" stroke-linejoin="round"/>
<path d="M218.777 279.498C217.038 280.034 215.147 279.424 214.056 277.977" stroke="#455A64" stroke-miterlimit="10" stroke-linecap="round" stroke-linejoin="round"/>
<path d="M228.776 273.818C225.734 276.177 222.367 278.089 218.778 279.497" stroke="#455A64" stroke-miterlimit="10" stroke-linecap="round" stroke-linejoin="round"/>
<path d="M228.774 273.819C240.679 264.925 253.57 257.41 267.194 251.422" stroke="#455A64" stroke-miterlimit="10" stroke-linecap="round" stroke-linejoin="round"/>
<path d="M272.979 244.98C272.457 248.052 270.209 250.555 267.194 251.421" stroke="#455A64" stroke-miterlimit="10" stroke-linecap="round" stroke-linejoin="round"/>
<path d="M224.487 202.702C227.249 201.359 230.135 200.283 233.104 199.487" stroke="#455A64" stroke-miterlimit="10" stroke-linecap="round" stroke-linejoin="round"/>
<path d="M233.104 199.483C245.892 198.417 258.762 198.848 271.448 200.768" stroke="#455A64" stroke-miterlimit="10" stroke-linecap="round" stroke-linejoin="round"/>
<path d="M274.147 201.689C273.239 201.407 272.34 201.1 271.449 200.769" stroke="#455A64" stroke-miterlimit="10" stroke-linecap="round" stroke-linejoin="round"/>
<path d="M279.221 119.684L280.156 113.404" stroke="#455A64" stroke-miterlimit="10" stroke-linecap="round" stroke-linejoin="round"/>
<path d="M264.082 117.084C250.382 113.761 241.991 100.042 245.338 86.4418C248.21 74.7744 258.935 66.7091 271.027 67.1247" stroke="#455A64" stroke-miterlimit="10" stroke-linecap="round" stroke-linejoin="round"/>
<path d="M274.219 119.096C270.81 118.592 267.427 117.92 264.084 117.084" stroke="#455A64" stroke-miterlimit="10" stroke-linecap="round" stroke-linejoin="round"/>
<path d="M233.156 124.447C247.525 122.395 262.166 123.322 276.156 127.168C276.156 127.168 276.718 122.799 277.462 122.098C278.205 121.397 279.221 119.685 279.221 119.685" stroke="#455A64" stroke-miterlimit="10" stroke-linecap="round" stroke-linejoin="round"/>
<path d="M252.029 40.418C249.916 51.061 248.69 61.859 248.364 72.7021L248.977 78.2404" stroke="#455A64" stroke-miterlimit="10" stroke-linecap="round" stroke-linejoin="round"/>
<path d="M252.031 40.4189C248.891 41.5376 246.085 43.4199 243.867 45.8933" stroke="#455A64" stroke-miterlimit="10" stroke-linecap="round" stroke-linejoin="round"/>
<path d="M242.919 48.4127C243.134 47.5386 243.452 46.6927 243.867 45.8926" stroke="#455A64" stroke-miterlimit="10" stroke-linecap="round" stroke-linejoin="round"/>
<path d="M240.407 66.8076C240.465 60.596 241.309 54.4162 242.918 48.4131" stroke="#455A64" stroke-miterlimit="10" stroke-linecap="round" stroke-linejoin="round"/>
<path d="M226.419 128.981C228.558 127.318 230.809 125.803 233.158 124.447" stroke="#455A64" stroke-miterlimit="10" stroke-linecap="round" stroke-linejoin="round"/>
<path d="M226.417 128.98C219.84 137.756 214.018 147.064 209.011 156.807C206.42 161.85 204.192 167.07 202.344 172.426C201.312 176.189 200.528 180.014 199.997 183.878C198.001 201.714 197.635 219.692 198.904 237.594C199.268 242.739 200.332 247.811 202.067 252.672C203.922 257.871 205.972 263 208.214 268.047C209.777 271.565 211.737 274.896 214.055 277.976" stroke="#455A64" stroke-miterlimit="10" stroke-linecap="round" stroke-linejoin="round"/>
<path d="M225.734 149.307C225.682 167.112 225.267 184.914 224.487 202.702" stroke="#455A64" stroke-miterlimit="10" stroke-linecap="round" stroke-linejoin="round"/>
<path d="M224.488 202.702L222.701 249.391C222.552 253.274 222.067 257.137 221.25 260.937C219.669 265.42 217.532 269.69 214.889 273.648C214.717 273.907 214.491 274.126 214.227 274.291C214.101 274.371 212.341 274.853 212.218 274.77" stroke="#455A64" stroke-miterlimit="10" stroke-linecap="round" stroke-linejoin="round"/>
<path d="M271.679 43.5498L271.679 60.189" stroke="#455A64" stroke-miterlimit="10" stroke-linecap="round" stroke-linejoin="round"/>
<path d="M236.135 352.091C239.322 353.983 243.101 354.636 246.745 353.926C247.348 353.764 247.985 353.772 248.585 353.949C248.923 354.049 249.198 354.298 249.328 354.625C249.665 355.468 250.046 356.294 250.468 357.098C250.517 357.22 250.591 357.33 250.684 357.423C251.083 357.821 251.621 358.052 252.186 358.068L253.038 358.09L261.211 357.608C261.303 357.61 261.387 357.558 261.428 357.476" stroke="#455A64" stroke-miterlimit="10" stroke-linecap="round" stroke-linejoin="round"/>
</g>
<g clip-path="url(#clip2)">
<path d="M204.879 128.193C202.609 128.571 199.834 131.189 198.73 132.45L198.257 127.72L196.838 127.72L185.958 170.766L184.066 184.957L183.593 204.094L183.593 228.003L183.593 246.924L184.539 269.629L185.958 289.497L188.323 316.459L188.323 327.812L186.431 344.841C185.958 345.157 183.214 346.45 176.024 349.099C168.834 351.748 156.945 353.041 151.9 353.356C146.854 353.356 135.344 353.072 129.667 351.937C123.991 350.802 113.111 347.049 108.381 345.314L106.962 333.489L106.489 321.663L110.273 271.521L110.746 253.073L111.219 220.907L110.746 186.849C110.746 180.416 109.169 174.077 108.381 171.712L108.854 170.766L97.9742 128.666L96.5551 126.774L95.609 132.45C94.4737 129.801 91.3517 128.824 89.9326 128.666L91.3517 94.1346L92.2978 73.3212L101.285 61.9684L114.53 49.6696C117.936 46.6422 120.68 45.57 121.626 45.4123C124.937 44.7816 132.505 43.4256 136.29 43.0472C140.074 42.6687 143.543 40.9974 144.804 40.209L150.008 40.209C153.035 42.4795 158.207 43.3625 160.414 43.5202C169.118 44.2771 174.763 46.043 176.497 46.8314L190.215 58.6572L200.149 70.483L202.514 74.2673L203.933 108.326L204.879 128.193Z" fill="white"/>
<path d="M170.555 274.991L184.596 271.807L185.645 282.339L186.533 293.524L187.501 300.301L188.308 311.568L188.469 321.121L180.803 324.387L173.057 327.244L162.486 329.449L155.143 330.184L146.428 330.429L139.085 330.102L139.085 276.46L149.091 276.787L162.083 275.971L170.555 274.991Z" fill="white"/>
<path d="M124.076 274.991L110.035 271.807L108.986 282.339L108.099 293.524L107.13 300.301L106.323 311.568L106.162 321.121L113.828 324.387L121.575 327.244L132.145 329.449L139.489 330.184L148.203 330.429L155.547 330.102L155.547 276.46L145.541 276.787L132.549 275.971L124.076 274.991Z" fill="white"/>
<path d="M181.531 167.953L186.131 171.055L186.776 169.341L190.407 153.011L194.523 138.152L197.186 128.354L197.831 126.476L196.379 124.109C195.652 123.265 193.764 121.202 192.021 119.7C190.278 118.197 186.884 116.788 185.404 116.271L174.833 114.311L160.874 112.841L149.657 112.352L142.233 112.352L141.507 163.299L148.366 163.054L153.369 163.299L160.47 163.789L171.848 165.503L179.352 167.218L181.531 167.953Z" fill="white"/>
<path d="M112.781 168.034L108.181 171.137L107.535 169.422L103.904 153.093L99.7889 138.233L97.126 128.436L96.4805 126.558L97.933 124.19C98.6592 123.346 100.547 121.284 102.29 119.781C104.033 118.279 107.428 116.869 108.907 116.352L119.478 114.393L133.438 112.923L144.654 112.433L152.078 112.433L152.805 163.38L145.946 163.135L140.943 163.38L133.842 163.87L122.464 165.585L114.959 167.299L112.781 168.034Z" fill="white"/>
<path d="M147.324 39.9404L144.737 39.9404" stroke="#455A64" stroke-miterlimit="10" stroke-linecap="round" stroke-linejoin="round"/>
<path d="M144.738 39.9404C143.502 40.864 142.438 41.4933 141.247 41.9339C140.055 42.3745 138.735 42.6261 136.623 42.9169C134.51 43.2077 131.605 43.5376 128.859 43.9894C126.113 44.4414 123.526 45.0154 121.625 45.5427C119.725 46.0699 118.51 46.5505 116.956 47.6785C115.402 48.8065 113.508 50.582 111.025 52.848C108.542 55.114 105.47 57.8706 102.999 60.3703C100.527 62.8699 98.6561 65.1126 92.4887 73.3121L92.2974 74.7397" stroke="#455A64" stroke-miterlimit="10" stroke-linecap="round" stroke-linejoin="round"/>
<path d="M147.324 39.9404L149.912 39.9404" stroke="#455A64" stroke-miterlimit="10" stroke-linecap="round" stroke-linejoin="round"/>
<path d="M149.912 39.9404C151.149 40.864 152.212 41.4933 153.404 41.9339C154.595 42.3745 155.915 42.6261 158.028 42.9169C160.14 43.2077 163.046 43.5376 165.792 43.9894C168.538 44.4414 171.125 45.0154 173.025 45.5427C174.926 46.0699 176.14 46.5505 177.695 47.6785C179.249 48.8065 181.143 50.582 183.626 52.848C186.109 55.114 189.181 57.8706 191.652 60.3703C194.124 62.8699 195.995 65.1126 202.162 73.3122L202.513 74.2666" stroke="#455A64" stroke-miterlimit="10" stroke-linecap="round" stroke-linejoin="round"/>
<path d="M92.3535 74.5771C92.165 79.0657 91.8424 87.1786 91.5027 94.3197C91.1631 101.461 90.8068 108.809 90.0147 127.431" stroke="#455A64" stroke-miterlimit="10" stroke-linecap="round" stroke-linejoin="round"/>
<path d="M202.297 74.5771C202.486 79.0657 202.809 87.1786 203.148 94.3197C203.487 101.461 203.844 108.809 204.636 127.431" stroke="#455A64" stroke-miterlimit="10" stroke-linecap="round" stroke-linejoin="round"/>
<path d="M197.91 126.548C193.385 141.229 189.487 156.101 186.228 171.122C185.06 176.505 184.322 181.974 184.021 187.477C183.173 215.561 183.377 243.667 184.631 271.736C185.302 279.354 186.014 286.968 186.768 294.578C188.07 303.344 188.647 312.204 188.492 321.067C175.723 327.509 161.59 330.691 147.326 330.336" stroke="#455A64" stroke-miterlimit="10" stroke-linecap="round" stroke-linejoin="round"/>
<path d="M186.383 345.116C187.486 337.14 188.189 329.114 188.491 321.066" stroke="#455A64" stroke-miterlimit="10" stroke-linecap="round" stroke-linejoin="round"/>
<path d="M186.228 171.122C184.191 169.473 181.923 168.14 179.499 167.165" stroke="#455A64" stroke-miterlimit="10" stroke-linecap="round" stroke-linejoin="round"/>
<path d="M115.151 167.165C112.727 168.14 110.46 169.473 108.423 171.122" stroke="#455A64" stroke-miterlimit="10" stroke-linecap="round" stroke-linejoin="round"/>
<path d="M96.7398 126.548C101.265 141.229 105.163 156.101 108.422 171.122C109.59 176.505 110.328 181.974 110.629 187.477C111.476 215.561 111.273 243.667 110.019 271.736C109.348 279.354 108.636 286.968 107.882 294.578C106.58 303.344 106.003 312.204 106.158 321.067C118.927 327.509 133.06 330.691 147.324 330.336" stroke="#455A64" stroke-miterlimit="10" stroke-linecap="round" stroke-linejoin="round"/>
<path d="M106.158 321.066C106.461 329.114 107.164 337.14 108.267 345.116" stroke="#455A64" stroke-miterlimit="10" stroke-linecap="round" stroke-linejoin="round"/>
<path d="M197.91 126.548C194.797 120.806 189.27 116.81 182.893 115.69C171.141 113.626 159.251 112.468 147.326 112.226" stroke="#455A64" stroke-miterlimit="10" stroke-linecap="round" stroke-linejoin="round"/>
<path d="M96.7418 126.548C99.8548 120.806 105.382 116.81 111.759 115.69C123.511 113.626 135.401 112.468 147.326 112.226" stroke="#455A64" stroke-miterlimit="10" stroke-linecap="round" stroke-linejoin="round"/>
<path d="M110.019 271.736C134.454 278.395 160.195 278.395 184.63 271.736" stroke="#455A64" stroke-miterlimit="10" stroke-linecap="round" stroke-linejoin="round"/>
<path d="M108.266 345.116C133.17 356.119 161.479 356.119 186.383 345.116" stroke="#455A64" stroke-miterlimit="10" stroke-linecap="round" stroke-linejoin="round"/>
<path d="M197.909 126.548L198.813 132.637" stroke="#455A64" stroke-miterlimit="10" stroke-linecap="round" stroke-linejoin="round"/>
<path d="M96.7402 126.548L95.8353 132.637" stroke="#455A64" stroke-miterlimit="10" stroke-linecap="round" stroke-linejoin="round"/>
<path d="M179.498 167.164C158.375 161.812 136.274 161.812 115.152 167.164" stroke="#455A64" stroke-miterlimit="10" stroke-linecap="round" stroke-linejoin="round"/>
<path d="M204.946 128.342C201.931 129.204 200.51 129.971 198.814 132.637" stroke="#455A64" stroke-miterlimit="10" stroke-linecap="round" stroke-linejoin="round"/>
<path d="M95.8369 132.637C94.1406 129.971 92.7197 129.204 89.7044 128.342" stroke="#455A64" stroke-miterlimit="10" stroke-linecap="round" stroke-linejoin="round"/>
</g>
<g clip-path="url(#clip3)">
<path d="M93.912 7.09608C92.777 9.74509 91.8623 23.9676 91.5469 30.7477H96.7502L98.6423 35.0049L114.725 35.478L119.456 35.0049L150.203 32.1667L175.746 35.0049L178.585 35.478L185.68 31.6937L199.398 30.7477L203.655 31.2207L202.236 15.1376C202.236 12.6148 201.763 6.81226 199.871 3.78485C197.979 0.757452 191.83 0.63131 188.991 0.946664L172.435 0.473633H144.999H109.049C101.859 0.473633 97.854 1.73505 96.7502 2.36576C96.2771 2.83877 95.0471 4.44706 93.912 7.09608Z" fill="white"/>
<path d="M103.49 16.5098L115.342 16.5098L111.69 9.82723L95.6363 10.812L97.6518 14.6809L98.9027 15.947L100.779 16.5098L103.49 16.5098Z" fill="white" stroke="#455A64"/>
<path d="M191.72 16.5088L179.868 16.5088L183.52 9.82626L199.574 10.8111L197.558 14.6799L196.307 15.946L194.431 16.5088L191.72 16.5088Z" fill="white" stroke="#455A64"/>
<path d="M178.718 35.6049L175.788 28.5039L176.277 28.2909L198.531 30.4922L198.88 32.4095L198.531 36.6701L197.764 38.0193L196.508 38.4453L178.718 35.6049Z" fill="white" stroke="#455A64"/>
<path d="M116.351 35.6059L119.281 28.5049L118.793 28.2919L96.5383 30.4932L96.1895 32.4105L96.5383 36.671L97.3057 38.0202L98.5614 38.4463L116.351 35.6059Z" fill="white" stroke="#455A64"/>
<path d="M181.5 9L176.5 16.5L164 16L163.5 15.5H131.5L131 16L118 16.5L113.5 9L119 6.5H176L181.5 9Z" fill="#455A64"/>
<path d="M172.23 26.5876L175.648 35.0378L174.602 35.8189L173.486 35.9609L157.161 35.9609L153.882 35.0378L151.371 33.2626L143.767 33.2626L141.674 34.8248L139.441 35.6769L137.069 35.9609L120.745 35.9609L119.419 35.0378L122.977 26.5166L126.884 23.1792L168.323 23.1792L172.23 26.5876Z" fill="#455A64" stroke="#455A64"/>
<path d="M147.57 33.2979L151.472 33.2979" stroke="#455A64" stroke-miterlimit="10" stroke-linecap="round" stroke-linejoin="round"/>
<path d="M151.471 33.298C152.222 34.0579 153.157 34.6369 153.916 35.0333C154.674 35.4301 155.256 35.6444 156.099 35.7982C156.943 35.952 158.048 36.0449 173.777 36.0449" stroke="#455A64" stroke-miterlimit="10" stroke-linecap="round" stroke-linejoin="round"/>
<path d="M178.685 35.6035L175.734 28.3412" stroke="#455A64" stroke-miterlimit="10" stroke-linecap="round" stroke-linejoin="round"/>
<path d="M173.778 36.0449C174.171 36.0449 174.959 35.7839 175.667 35.1016" stroke="#455A64" stroke-miterlimit="10" stroke-linecap="round" stroke-linejoin="round"/>
<path d="M175.667 35.101C189.276 37.3644 192.451 37.8427 194.208 38.1047C195.99 38.3707 196.312 38.4139 196.613 38.4099C196.913 38.4057 197.192 38.3541 197.445 38.2236C197.698 38.0931 197.926 37.8836 198.094 37.6602C198.262 37.4368 198.371 37.1998 198.475 36.8265C198.578 36.4536 198.678 35.9445 198.728 34.9596C198.778 33.9744 198.778 32.5134 198.678 31.5154L198.577 30.4793" stroke="#455A64" stroke-miterlimit="10" stroke-linecap="round" stroke-linejoin="round"/>
<path d="M175.667 35.1016L172.208 26.5599" stroke="#455A64" stroke-miterlimit="10" stroke-linecap="round" stroke-linejoin="round"/>
<path d="M172.209 26.5596L168.312 23.2953" stroke="#455A64" stroke-miterlimit="10" stroke-linecap="round" stroke-linejoin="round"/>
<path d="M168.312 23.2959L147.571 23.2959" stroke="#455A64" stroke-miterlimit="10" stroke-linecap="round" stroke-linejoin="round"/>
<path d="M175.733 28.3414C185.435 29.1926 197.359 30.2588 203.525 31.1514" stroke="#455A64" stroke-miterlimit="10" stroke-linecap="round" stroke-linejoin="round"/>
<path d="M147.571 15.5508L163.073 15.5508" stroke="#455A64" stroke-miterlimit="10" stroke-linecap="round" stroke-linejoin="round"/>
<path d="M163.071 15.5509C163.721 15.5509 164.026 15.9199 164.026 15.9199" stroke="#455A64" stroke-miterlimit="10" stroke-linecap="round" stroke-linejoin="round"/>
<path d="M199.767 10.8093C199.767 10.8093 198.923 12.4827 198.216 13.728C197.506 14.9796 197.031 15.5123 196.536 15.8825C196.042 16.2528 195.528 16.4598 194.464 16.5637C193.412 16.6663 191.82 16.6672 164.014 16.0311" stroke="#455A64" stroke-miterlimit="10" stroke-linecap="round" stroke-linejoin="round"/>
<path d="M147.571 0.296874L156.636 0.296875" stroke="#455A64" stroke-miterlimit="10" stroke-linecap="round" stroke-linejoin="round"/>
<path d="M156.634 0.296769C174.397 0.29677 183.202 0.577968 188.253 0.76728C193.305 0.956451 194.604 1.05401 195.572 1.20129C196.541 1.34856 197.177 1.54611 197.729 1.8533C198.28 2.16106 198.745 2.57832 199.183 3.08604C199.621 3.59376 200.031 4.19166 200.332 4.78956C200.634 5.38761 200.828 5.98536 200.952 6.36086C201.075 6.73664 201.128 6.88989 201.213 7.34747C201.299 7.80506 201.418 8.567 201.561 9.54082C201.703 10.5148 201.87 11.7009 202.089 13.3746C202.307 15.0485 202.579 17.2106 202.809 19.8906C203.039 22.5705 203.228 25.769 203.525 31.1514" stroke="#455A64" stroke-miterlimit="10" stroke-linecap="round" stroke-linejoin="round"/>
<path d="M199.71 10.6871L183.37 9.88666L179.776 16.3848" stroke="#455A64" stroke-miterlimit="10" stroke-linecap="round" stroke-linejoin="round"/>
<path d="M176.278 6.6785L181.5 9L177 16" stroke="#455A64" stroke-miterlimit="10" stroke-linecap="round" stroke-linejoin="round"/>
<path d="M147.569 6.6416L160.616 6.6416" stroke="#455A64" stroke-miterlimit="10" stroke-linecap="round" stroke-linejoin="round"/>
<path d="M160.617 6.64193C163.918 6.64193 170.607 6.66422 176.278 6.67871" stroke="#455A64" stroke-miterlimit="10" stroke-linecap="round" stroke-linejoin="round"/>
<path d="M147.569 33.2979L143.667 33.2979" stroke="#455A64" stroke-miterlimit="10" stroke-linecap="round" stroke-linejoin="round"/>
<path d="M143.667 33.298C142.916 34.0579 141.981 34.6369 141.222 35.0333C140.464 35.4301 139.882 35.6444 139.039 35.7982C138.195 35.952 137.09 36.0449 121.361 36.0449" stroke="#455A64" stroke-miterlimit="10" stroke-linecap="round" stroke-linejoin="round"/>
<path d="M116.456 35.6035L119.406 28.3412" stroke="#455A64" stroke-miterlimit="10" stroke-linecap="round" stroke-linejoin="round"/>
<path d="M121.362 36.0449C120.969 36.0449 120.181 35.7839 119.473 35.1016" stroke="#455A64" stroke-miterlimit="10" stroke-linecap="round" stroke-linejoin="round"/>
<path d="M119.474 35.102C105.865 37.3653 102.69 37.8437 100.933 38.1057C99.1504 38.3717 98.8283 38.4149 98.5277 38.4109C98.2276 38.4066 97.9488 38.3551 97.6957 38.2246C97.4425 38.094 97.2143 37.8846 97.0464 37.6612C96.8784 37.4378 96.7701 37.2007 96.6661 36.8275C96.5622 36.4546 96.4624 35.9454 96.4126 34.9605C96.3628 33.9753 96.3628 32.5144 96.4624 31.5164L96.583 30.5051" stroke="#455A64" stroke-miterlimit="10" stroke-linecap="round" stroke-linejoin="round"/>
<path d="M119.471 35.1016L122.931 26.5599" stroke="#455A64" stroke-miterlimit="10" stroke-linecap="round" stroke-linejoin="round"/>
<path d="M122.932 26.5596L126.829 23.2953" stroke="#455A64" stroke-miterlimit="10" stroke-linecap="round" stroke-linejoin="round"/>
<path d="M126.828 23.2959L147.569 23.2959" stroke="#455A64" stroke-miterlimit="10" stroke-linecap="round" stroke-linejoin="round"/>
<path d="M119.406 28.3414C109.704 29.1926 97.7806 30.2588 91.6142 31.1514" stroke="#455A64" stroke-miterlimit="10" stroke-linecap="round" stroke-linejoin="round"/>
<path d="M147.569 15.5508L132.068 15.5508" stroke="#455A64" stroke-miterlimit="10" stroke-linecap="round" stroke-linejoin="round"/>
<path d="M132.067 15.5509C131.417 15.5509 131.184 15.9199 131.184 15.9199" stroke="#455A64" stroke-miterlimit="10" stroke-linecap="round" stroke-linejoin="round"/>
<path d="M95.4431 10.8093C95.4431 10.8093 96.2159 12.4827 96.9228 13.728C97.6328 14.9796 98.1079 15.5123 98.6021 15.8825C99.0965 16.2526 99.6105 16.4598 100.674 16.5637C101.727 16.6663 103.318 16.6672 131.125 16.0311" stroke="#455A64" stroke-miterlimit="10" stroke-linecap="round" stroke-linejoin="round"/>
<path d="M147.569 0.295898L138.504 0.295898" stroke="#455A64" stroke-miterlimit="10" stroke-linecap="round" stroke-linejoin="round"/>
<path d="M138.506 0.296766C120.744 0.296765 111.939 0.577961 106.887 0.767273C101.835 0.956442 100.536 1.05401 99.5677 1.20128C98.5998 1.34855 97.9629 1.5461 97.4116 1.85329C96.8605 2.16105 96.3951 2.57831 95.9576 3.08603C95.5197 3.59375 95.11 4.19165 94.808 4.78955C94.5062 5.3876 94.3123 5.98535 94.1889 6.36085C94.0656 6.73664 94.0129 6.88988 93.927 7.34747C93.8411 7.80505 93.7219 8.56699 93.5795 9.54082C93.437 10.5148 93.2706 11.7009 93.0521 13.3746C92.8333 15.0485 92.5616 17.2106 92.3314 19.8906C92.1013 22.5705 91.9123 25.769 91.6151 31.1514" stroke="#455A64" stroke-miterlimit="10" stroke-linecap="round" stroke-linejoin="round"/>
<path d="M95.4319 10.6871L111.772 9.88666L115.366 16.3848" stroke="#455A64" stroke-miterlimit="10" stroke-linecap="round" stroke-linejoin="round"/>
<path d="M113.5 9L118.863 6.67899" stroke="#455A64" stroke-miterlimit="10" stroke-linecap="round" stroke-linejoin="round"/>
<path d="M113.5 9L118 16.5" stroke="#455A64"/>
<path d="M147.569 6.6416L134.522 6.6416" stroke="#455A64" stroke-miterlimit="10" stroke-linecap="round" stroke-linejoin="round"/>
<path d="M134.524 6.64193C131.224 6.64193 124.535 6.66422 118.863 6.67871" stroke="#455A64" stroke-miterlimit="10" stroke-linecap="round" stroke-linejoin="round"/>
<path d="M124.278 0.280884L124.278 0.368164" stroke="#455A64" stroke-miterlimit="10" stroke-linecap="round" stroke-linejoin="round"/>
</g>
<defs>
<clipPath id="clip0">
<path d="M103.775 23.1934L103.775 358.337L-0.000342961 358.337L-0.000328064 23.1934L103.775 23.1934Z" fill="white"/>
</clipPath>
<clipPath id="clip1">
<path d="M190.4 23.1934L190.4 358.337L294.176 358.337L294.176 23.1934L190.4 23.1934Z" fill="white"/>
</clipPath>
<clipPath id="clip2">
<rect x="218.165" y="28.9912" width="329.345" height="139.154" transform="rotate(90 218.165 28.9912)" fill="white"/>
</clipPath>
<clipPath id="clip3">
<rect x="204.21" y="38.2686" width="113.21" height="38.2689" transform="rotate(-180 204.21 38.2686)" fill="white"/>
</clipPath>
</defs>
</svg>
