<svg width="178" height="349" viewBox="0 0 178 349" fill="none" xmlns="http://www.w3.org/2000/svg">
<path d="M162.053 65.5012C162.048 65.501 162.043 65.5008 162.039 65.5007L162.024 65.4987L161.898 65.4819C161.788 65.4672 161.625 65.4457 161.414 65.4183C160.994 65.3634 160.384 65.2852 159.626 65.1913C158.111 65.0035 156.006 64.7532 153.642 64.5028C148.921 64.0027 143.148 63.5 139 63.5C134.848 63.5 130.072 64.0035 126.344 64.5045C124.478 64.7552 122.87 65.006 121.729 65.1942C121.158 65.2882 120.704 65.3667 120.392 65.4216C120.236 65.4491 120.115 65.4708 120.034 65.4856L119.949 65.5009C119.948 65.501 119.946 65.501 119.944 65.5011C119.912 65.5021 119.868 65.504 119.811 65.5076C119.697 65.5149 119.534 65.5293 119.33 65.5574C118.922 65.6136 118.346 65.725 117.659 65.9459C116.284 66.388 114.465 67.2679 112.653 69.0151C109.022 72.5162 105.5 79.4182 105.5 93H105.5L105.5 93.0094C105.752 106.359 109.659 114.96 113.535 120.234C115.47 122.867 117.393 124.665 118.838 125.806C119.561 126.377 120.164 126.784 120.59 127.05C120.802 127.183 120.971 127.281 121.088 127.346C121.146 127.378 121.192 127.403 121.223 127.42L121.261 127.439L121.271 127.445L121.274 127.446L121.276 127.447C121.276 127.447 121.276 127.447 121.5 127L121.276 127.447L121.382 127.5H121.5H158.5H158.608L158.706 127.456L158.5 127C158.706 127.456 158.706 127.456 158.707 127.455L158.708 127.455L158.711 127.453L158.722 127.448L158.761 127.43C158.794 127.414 158.841 127.391 158.901 127.36C159.022 127.299 159.196 127.206 159.416 127.08C159.855 126.827 160.477 126.437 161.22 125.886C162.706 124.783 164.679 123.031 166.649 120.427C170.593 115.21 174.5 106.603 174.5 93C174.5 79.4365 171.487 72.5455 168.374 69.0428C166.816 67.2907 165.247 66.4022 164.051 65.9537C163.454 65.7299 162.952 65.6165 162.595 65.5591C162.416 65.5303 162.273 65.5156 162.172 65.508C162.122 65.5042 162.081 65.5022 162.053 65.5012Z" fill="white" stroke="#455A64"/>
<path d="M155.898 170.5L157 170.5L158.5 170.5H164.588V170C164.588 170.5 164.589 170.5 164.59 170.5L164.591 170.5L164.595 170.5L164.607 170.5C164.616 170.5 164.628 170.499 164.642 170.499C164.671 170.497 164.711 170.495 164.76 170.491C164.859 170.482 164.998 170.465 165.171 170.433C165.517 170.368 165.999 170.24 166.572 169.989C167.72 169.486 169.215 168.495 170.692 166.553C173.64 162.678 176.5 155.049 176.5 140C176.5 126.063 173.761 119.562 170.354 116.147L169.891 115.683L169.566 116.252C166.595 121.45 163.765 124.269 161.704 125.785C160.673 126.543 159.832 126.977 159.258 127.219C158.971 127.341 158.751 127.414 158.606 127.457C158.534 127.478 158.481 127.492 158.448 127.5C158.447 127.5 158.447 127.5 158.447 127.5H121.538C121.538 127.5 121.537 127.5 121.537 127.5C121.513 127.496 121.473 127.487 121.416 127.473C121.303 127.445 121.123 127.391 120.882 127.294C120.401 127.1 119.672 126.731 118.735 126.036C116.861 124.645 114.151 121.947 110.925 116.737L110.602 116.215L110.157 116.637C106.374 120.21 103.5 126.689 103.5 140C103.5 155.053 106.508 162.686 109.61 166.562C111.163 168.504 112.731 169.492 113.933 169.993C114.532 170.242 115.036 170.369 115.396 170.434C115.577 170.466 115.721 170.482 115.824 170.491C115.875 170.495 115.916 170.497 115.945 170.499C115.96 170.499 115.972 170.5 115.981 170.5L115.993 170.5L115.997 170.5L115.999 170.5C115.999 170.5 116 170.5 116 170V170.5H122L124 170.5L125.173 170.5L124.361 169.654C122.851 168.08 122.137 166.411 121.799 165.137C121.629 164.499 121.555 163.962 121.523 163.588C121.506 163.4 121.501 163.254 121.499 163.157C121.498 163.109 121.499 163.072 121.499 163.049L121.499 163.025L121.5 163.021L121.5 163.021L121.5 163.021L121.5 163.021L121.5 163.02L121.5 163.011V163V155.5C121.5 154.401 121.932 153.672 122.525 153.206C123.135 152.726 123.952 152.5 124.73 152.5H140.23H155.574L155.647 152.55L155.809 152.547C156.841 152.525 157.773 152.751 158.433 153.225C159.071 153.682 159.5 154.403 159.5 155.5V163V163.041L159.506 163.079L159.506 163.08L159.506 163.08L159.507 163.081L159.507 163.082L159.508 163.095C159.51 163.111 159.513 163.138 159.516 163.175C159.522 163.249 159.527 163.365 159.524 163.52C159.517 163.829 159.474 164.292 159.327 164.879C159.035 166.049 158.323 167.729 156.624 169.671L155.898 170.5Z" fill="white" stroke="#455A64"/>
<path d="M159 163.043L159.499 163.062L159.5 163.053V163.043V156.196V156.168C159.5 155.641 159.5 155.134 159.431 154.693C159.36 154.233 159.207 153.792 158.862 153.429C158.52 153.071 158.041 152.844 157.423 152.703C156.808 152.563 156.015 152.5 155 152.5H140.447H126C124.985 152.5 124.192 152.563 123.577 152.703C122.959 152.844 122.48 153.071 122.138 153.429C121.793 153.792 121.64 154.233 121.568 154.693C121.5 155.134 121.5 155.641 121.5 156.168L121.5 156.196V163.043H121.5L121.5 163.057L122 163.043C121.5 163.057 121.5 163.058 121.5 163.058L121.5 163.059L121.5 163.062L121.501 163.072L121.502 163.102C121.504 163.127 121.506 163.163 121.51 163.208C121.517 163.298 121.53 163.426 121.554 163.586C121.6 163.908 121.688 164.36 121.852 164.901C122.18 165.981 122.814 167.416 124.039 168.847C126.501 171.725 131.269 174.5 140.447 174.5C149.626 174.5 154.419 171.725 156.907 168.849C158.144 167.419 158.792 165.985 159.13 164.905C159.299 164.365 159.391 163.912 159.441 163.591C159.466 163.43 159.48 163.302 159.488 163.212C159.493 163.167 159.495 163.132 159.497 163.107L159.499 163.076L159.499 163.067L159.499 163.064L159.499 163.063C159.499 163.062 159.499 163.062 159 163.043Z" fill="white" stroke="#455A64"/>
<path d="M151 127L155.5 93.5C155.667 87.1667 157.4 72.9 163 66.5" stroke="#E6E6E6"/>
<path d="M129 127.5L124.5 94C124.333 87.6667 122.6 73.4 117 67" stroke="#E6E6E6"/>
<path d="M124.5 93.5C124.5 93.5 133.934 92.5 140 92.5C146.066 92.5 155.5 93.5 155.5 93.5" stroke="#E6E6E6"/>
<path d="M104.5 148.001C105.667 147.834 108.2 147.801 109 149.001C110 150.501 111 152 112 153C113 154 116.5 155 121 155" stroke="#E6E6E6"/>
<path d="M175.5 148.085C174.333 147.918 172.8 147.885 172 149.085C171 150.585 170 152.084 169 153.084C168 154.084 164.5 155.084 160 155.084" stroke="#E6E6E6"/>
<path d="M121 155C120.667 152.833 120.4 147.6 122 144C124 139.5 129 132.5 129 127" stroke="#E6E6E6"/>
<path d="M160 155C160.333 152.833 160.6 147.6 159 144C157 139.5 152 132.5 152 127" stroke="#E6E6E6"/>
<path d="M61.0526 65.5012C61.0476 65.501 61.043 65.5008 61.0387 65.5007L61.0239 65.4987L60.8981 65.4819C60.7876 65.4672 60.6245 65.4457 60.4142 65.4183C59.9935 65.3634 59.3837 65.2852 58.6262 65.1913C57.1114 65.0035 55.0057 64.7532 52.642 64.5028C47.9208 64.0027 42.1478 63.5 38 63.5C33.8475 63.5 29.0716 64.0035 25.3441 64.5045C23.4781 64.7552 21.8704 65.006 20.729 65.1942C20.1582 65.2882 19.7038 65.3667 19.3917 65.4216C19.2357 65.4491 19.1153 65.4708 19.0337 65.4856L18.9495 65.5009C18.9478 65.501 18.9461 65.501 18.9443 65.5011C18.9125 65.5021 18.8676 65.504 18.8107 65.5076C18.6968 65.5149 18.5343 65.5293 18.3302 65.5574C17.922 65.6136 17.3465 65.725 16.6595 65.9459C15.2841 66.388 13.4649 67.2679 11.6529 69.0151C8.02219 72.5162 4.5 79.4182 4.5 93H4.49991L4.50009 93.0094C4.75198 106.359 8.65905 114.96 12.5346 120.234C14.4703 122.867 16.3934 124.665 17.8385 125.806C18.561 126.377 19.164 126.784 19.5896 127.05C19.8024 127.183 19.9708 127.281 20.0877 127.346C20.1461 127.378 20.1917 127.403 20.2234 127.42L20.2606 127.439L20.2712 127.445L20.2745 127.446L20.2756 127.447C20.276 127.447 20.2764 127.447 20.5 127L20.2764 127.447L20.382 127.5H20.5H57.5H57.6077L57.7058 127.456L57.5 127C57.7058 127.456 57.7062 127.456 57.7066 127.455L57.7078 127.455L57.7112 127.453L57.7222 127.448L57.7607 127.43C57.7936 127.414 57.8407 127.391 57.9011 127.36C58.0219 127.299 58.196 127.206 58.4156 127.08C58.8548 126.827 59.4765 126.437 60.2198 125.886C61.7064 124.783 63.6793 123.031 65.6488 120.427C69.5929 115.21 73.5 106.603 73.5 93C73.5 79.4365 70.4872 72.5455 67.3737 69.0428C65.8162 67.2907 64.2466 66.4022 63.0506 65.9537C62.4538 65.7299 61.9525 65.6165 61.595 65.5591C61.4162 65.5303 61.2732 65.5156 61.1722 65.508C61.1216 65.5042 61.0815 65.5022 61.0526 65.5012Z" fill="white" stroke="#455A64"/>
<path d="M54.8981 170.5L56 170.5L57.5 170.5H63.5882V170C63.5882 170.5 63.5889 170.5 63.5896 170.5L63.5913 170.5L63.5955 170.5L63.6069 170.5C63.6159 170.5 63.6277 170.499 63.6421 170.499C63.671 170.497 63.7105 170.495 63.76 170.491C63.859 170.482 63.9979 170.465 64.1709 170.433C64.517 170.368 64.9994 170.24 65.572 169.989C66.7204 169.486 68.2145 168.495 69.692 166.553C72.6402 162.678 75.5 155.049 75.5 140C75.5 126.063 72.7609 119.562 69.354 116.147L68.8911 115.683L68.5659 116.252C65.5955 121.45 62.7649 124.269 60.7038 125.785C59.6728 126.543 58.8319 126.977 58.2583 127.219C57.9713 127.341 57.7509 127.414 57.6065 127.457C57.5343 127.478 57.481 127.492 57.448 127.5C57.4475 127.5 57.447 127.5 57.4466 127.5H20.538C20.5375 127.5 20.537 127.5 20.5366 127.5C20.5132 127.496 20.4728 127.487 20.416 127.473C20.3025 127.445 20.123 127.391 19.8822 127.294C19.4009 127.1 18.6723 126.731 17.7354 126.036C15.8607 124.645 13.1508 121.947 9.92513 116.737L9.60238 116.215L9.15664 116.637C5.37424 120.21 2.5 126.689 2.5 140C2.5 155.053 5.5085 162.686 8.60957 166.562C10.1629 168.504 11.7314 169.492 12.9327 169.993C13.5317 170.242 14.0359 170.369 14.3965 170.434C14.5768 170.466 14.7212 170.482 14.8237 170.491C14.875 170.495 14.9158 170.497 14.9454 170.499C14.9602 170.499 14.9723 170.5 14.9814 170.5L14.9929 170.5L14.997 170.5L14.9986 170.5C14.9993 170.5 15 170.5 15 170V170.5H21L23 170.5L24.1725 170.5L23.3608 169.654C21.8511 168.08 21.1366 166.411 20.7986 165.137C20.6295 164.499 20.555 163.962 20.5226 163.588C20.5065 163.4 20.5009 163.254 20.4993 163.157C20.4984 163.109 20.4986 163.072 20.4989 163.049L20.4994 163.025L20.4995 163.021L20.4996 163.021L20.4996 163.021L20.4996 163.021L20.4996 163.02L20.5 163.011V163V155.5C20.5 154.401 20.9316 153.672 21.5251 153.206C22.1354 152.726 22.9519 152.5 23.7298 152.5H39.2298H54.5743L54.6474 152.55L54.8088 152.547C55.8409 152.525 56.7733 152.751 57.4331 153.225C58.0709 153.682 58.5 154.403 58.5 155.5V163V163.041L58.5063 163.079L58.5065 163.08L58.5065 163.08L58.5066 163.081L58.5067 163.082L58.5085 163.095C58.5104 163.111 58.5133 163.138 58.5161 163.175C58.5217 163.249 58.5271 163.365 58.5236 163.52C58.5165 163.829 58.4741 164.292 58.3274 164.879C58.0348 166.049 57.3232 167.729 55.6237 169.671L54.8981 170.5Z" fill="white" stroke="#455A64"/>
<path d="M57.9996 163.043L58.4992 163.062L58.4996 163.053V163.043V156.196V156.168C58.4996 155.641 58.4996 155.134 58.4311 154.693C58.3596 154.233 58.2067 153.792 57.8615 153.429C57.5198 153.071 57.0409 152.844 56.4232 152.703C55.8076 152.563 55.0149 152.5 54 152.5H39.4474H25C23.985 152.5 23.1922 152.563 22.5765 152.703C21.9588 152.844 21.4799 153.071 21.1381 153.429C20.7929 153.792 20.64 154.233 20.5684 154.693C20.5 155.134 20.5 155.641 20.5 156.168L20.5 156.196V163.043H20.4998L20.5002 163.057L21 163.043C20.5002 163.057 20.5002 163.058 20.5002 163.058L20.5002 163.059L20.5004 163.062L20.5007 163.072L20.5021 163.102C20.5035 163.127 20.5058 163.163 20.5095 163.208C20.5169 163.298 20.5302 163.426 20.5536 163.586C20.6004 163.908 20.6881 164.36 20.852 164.901C21.18 165.981 21.8142 167.416 23.0386 168.847C25.5008 171.725 30.2686 174.5 39.4474 174.5C48.6265 174.5 53.4189 171.725 55.9068 168.849C57.1441 167.419 57.7917 165.985 58.1299 164.905C58.2989 164.365 58.3909 163.912 58.4408 163.591C58.4657 163.43 58.4802 163.302 58.4885 163.212C58.4926 163.167 58.4952 163.132 58.4968 163.107L58.4986 163.076L58.499 163.067L58.4991 163.064L58.4992 163.063C58.4992 163.062 58.4992 163.062 57.9996 163.043Z" fill="white" stroke="#455A64"/>
<path d="M50 127L54.5 93.5C54.6667 87.1667 56.4 72.9 62 66.5" stroke="#E5E5E5" stroke-width="0.7"/>
<path d="M28 127.5L23.5 94C23.3333 87.6667 21.6 73.4 16 67" stroke="#E5E5E5" stroke-width="0.7"/>
<path d="M23.5 93.5C23.5 93.5 32.9343 92.5 39 92.5C45.0657 92.5 54.5 93.5 54.5 93.5" stroke="#E5E5E5" stroke-width="0.7"/>
<path d="M3.5 148.001C4.66667 147.834 7.2 147.801 8 149.001C9 150.501 10 152 11 153C12 154 15.5 155 20 155" stroke="#E5E5E5" stroke-width="0.7"/>
<path d="M74.5 148.085C73.3333 147.918 71.8 147.885 71 149.085C70 150.585 69 152.084 68 153.084C67 154.084 63.5 155.084 59 155.084" stroke="#E5E5E5" stroke-width="0.7"/>
<path d="M19.9999 155C19.6666 152.833 19.3999 147.6 20.9999 144C22.9999 139.5 28 132.5 28 127" stroke="#E5E5E5" stroke-width="0.7"/>
<path d="M59.0001 155C59.3334 152.833 59.6001 147.6 58.0001 144C56.0001 139.5 51 132.5 51 127" stroke="#E5E5E5" stroke-width="0.7"/>
<path d="M109 271C109.023 271.926 109.171 280.81 109.005 280.997L109 271ZM109 271C109 269 108.5 268 107.752 268L109 271ZM124.102 286.5L123 286.5L121.5 286.5H115.412H115.38L115.348 286.496L115.412 286C115.348 286.496 115.348 286.496 115.348 286.496L115.347 286.496L115.346 286.496L115.341 286.495L115.329 286.493C115.318 286.492 115.304 286.49 115.287 286.487C115.252 286.481 115.203 286.472 115.14 286.46C115.016 286.435 114.84 286.395 114.623 286.332C114.189 286.207 113.588 285.991 112.908 285.629C111.545 284.902 109.866 283.588 108.563 281.243L108.15 280.5H108.555C108.565 280.265 108.572 279.946 108.577 279.563C108.587 278.704 108.583 277.546 108.574 276.355C108.555 273.974 108.512 271.477 108.5 271.012L108.5 271.012V271C108.5 270.03 108.377 269.359 108.198 268.95C108.022 268.547 107.848 268.5 107.752 268.5H107.317L107.257 268.07C106.781 264.702 106.5 260.716 106.5 256C106.5 252.476 106.752 249.951 107.006 248.299C107.133 247.473 107.261 246.866 107.358 246.461C107.406 246.259 107.447 246.108 107.476 246.005C107.491 245.954 107.503 245.915 107.511 245.888L107.521 245.856L107.524 245.847L107.525 245.844L107.525 245.843L107.526 245.842C107.526 245.842 107.526 245.842 108 246L107.526 245.842L107.563 245.73L107.646 245.646C107.968 245.324 108.434 245.075 108.952 244.874C109.477 244.669 110.099 244.499 110.77 244.355C112.113 244.067 113.699 243.878 115.208 243.752C116.72 243.626 118.167 243.563 119.235 243.532C119.77 243.516 120.21 243.508 120.517 243.504C120.671 243.502 120.791 243.501 120.873 243.501L120.967 243.5L120.991 243.5L120.998 243.5L120.999 243.5H121C121 243.5 121 243.5 121 244V243.5H158.462C158.462 243.5 158.463 243.5 158.463 243.5C158.487 243.496 158.527 243.487 158.584 243.473C158.697 243.445 158.877 243.391 159.118 243.294C159.599 243.1 160.328 242.731 161.265 242.036C163.139 240.645 165.849 237.947 169.075 232.737L169.398 232.215L169.843 232.637C173.626 236.21 176.5 242.689 176.5 256C176.5 271.053 173.492 278.686 170.39 282.562C168.837 284.504 167.269 285.492 166.067 285.993C165.468 286.242 164.964 286.369 164.604 286.434C164.423 286.466 164.279 286.482 164.176 286.491C164.125 286.495 164.084 286.497 164.055 286.499C164.04 286.499 164.028 286.5 164.019 286.5L164.007 286.5L164.003 286.5L164.001 286.5C164.001 286.5 164 286.5 164 286V286.5H158L156 286.5L154.827 286.5L155.639 285.654C157.149 284.08 157.863 282.411 158.201 281.137C158.371 280.499 158.445 279.962 158.477 279.588C158.494 279.4 158.499 279.254 158.501 279.157C158.502 279.109 158.501 279.072 158.501 279.049L158.501 279.025L158.5 279.021L158.5 279.021L158.5 279.021L158.5 279.021L158.5 279.02L158.5 279.011V279V271.5C158.5 270.401 158.068 269.672 157.475 269.206C156.865 268.726 156.048 268.5 155.27 268.5H139.77H124.426L124.353 268.55L124.191 268.547C123.159 268.525 122.227 268.751 121.567 269.225C120.929 269.682 120.5 270.403 120.5 271.5V279V279.041L120.494 279.079L120.494 279.08L120.494 279.08L120.493 279.081L120.493 279.082L120.492 279.095C120.49 279.111 120.487 279.138 120.484 279.175C120.478 279.249 120.473 279.365 120.476 279.52C120.483 279.829 120.526 280.292 120.673 280.879C120.965 282.049 121.677 283.729 123.376 285.671L124.102 286.5Z" fill="white" stroke="#455A64"/>
<path d="M158 279.043L158.499 279.062L158.5 279.053V279.043V272.196V272.168C158.5 271.641 158.5 271.134 158.431 270.693C158.36 270.233 158.207 269.792 157.862 269.429C157.52 269.071 157.041 268.844 156.423 268.703C155.808 268.563 155.015 268.5 154 268.5H139.447H125C123.985 268.5 123.192 268.563 122.577 268.703C121.959 268.844 121.48 269.071 121.138 269.429C120.793 269.792 120.64 270.233 120.568 270.693C120.5 271.134 120.5 271.641 120.5 272.168L120.5 272.196V279.043H120.5L120.5 279.057L121 279.043C120.5 279.057 120.5 279.058 120.5 279.058L120.5 279.059L120.5 279.062L120.501 279.072L120.502 279.102C120.504 279.127 120.506 279.163 120.51 279.208C120.517 279.298 120.53 279.426 120.554 279.586C120.6 279.908 120.688 280.36 120.852 280.901C121.18 281.981 121.814 283.416 123.039 284.847C125.501 287.725 130.269 290.5 139.447 290.5C148.626 290.5 153.419 287.725 155.907 284.849C157.144 283.419 157.792 281.985 158.13 280.905C158.299 280.365 158.391 279.912 158.441 279.591C158.466 279.43 158.48 279.302 158.488 279.212C158.493 279.167 158.495 279.132 158.497 279.107L158.499 279.076L158.499 279.067L158.499 279.064L158.499 279.063C158.499 279.062 158.499 279.062 158 279.043Z" fill="white" stroke="#455A64"/>
<path d="M158.5 243L158.724 243.447L158.611 243.504L158.485 243.5L158.5 243ZM158.5 243C158.485 243.5 158.485 243.5 158.485 243.5L158.483 243.5L158.476 243.5L158.449 243.499L158.342 243.496L157.923 243.484C157.556 243.474 157.018 243.459 156.332 243.442C154.962 243.408 153.003 243.363 150.651 243.32C145.947 243.234 139.672 243.156 133.388 243.188C127.1 243.219 120.813 243.359 116.08 243.71C113.71 243.885 111.748 244.112 110.376 244.399C109.686 244.543 109.173 244.697 108.839 244.854C108.671 244.932 108.572 245 108.52 245.049C108.499 245.069 108.491 245.081 108.489 245.084C108.491 245.081 108.495 245.07 108.497 245.051M158.5 243C158.724 243.447 158.724 243.447 158.724 243.447L158.726 243.446L158.729 243.445L158.739 243.439L158.777 243.42C158.808 243.403 158.854 243.379 158.912 243.346C159.029 243.281 159.198 243.183 159.41 243.05C159.836 242.784 160.439 242.377 161.162 241.806C162.607 240.665 164.53 238.867 166.465 236.234C170.341 230.96 174.248 222.36 174.5 209.009L174.5 209H174.5C174.5 195.418 170.978 188.516 167.347 185.015C165.535 183.268 163.716 182.388 162.341 181.946C161.654 181.725 161.078 181.614 160.67 181.557C160.466 181.529 160.303 181.515 160.189 181.508C160.132 181.504 160.088 181.502 160.056 181.501C160.045 181.501 160.036 181.501 160.028 181.5L159.992 181.497C159.953 181.493 159.896 181.488 159.821 181.481C159.67 181.467 159.447 181.447 159.154 181.424C158.57 181.376 157.708 181.314 156.599 181.251C154.379 181.125 151.167 181 147.188 181C139.23 181 128.202 181.501 115.919 183.507L115.844 183.519L115.776 183.553L116 184C115.776 183.553 115.776 183.553 115.775 183.554L115.773 183.555L115.769 183.556L115.76 183.561C115.754 183.565 115.746 183.569 115.737 183.574C115.72 183.584 115.698 183.597 115.671 183.614C115.619 183.648 115.55 183.697 115.468 183.765C115.303 183.901 115.083 184.111 114.828 184.43C114.319 185.066 113.67 186.133 113.03 187.892C111.753 191.403 110.501 197.713 110.5 208.983C109.751 219.721 109.001 228.712 108.439 235.018C108.158 238.173 107.924 240.656 107.76 242.35C107.678 243.197 107.614 243.847 107.57 244.285C107.548 244.504 107.531 244.67 107.52 244.781L107.507 244.907L107.504 244.938L107.503 244.946L107.503 244.948L107.503 244.948C107.503 244.949 107.503 244.949 107.503 244.949L108.497 245.051M108.497 245.051L108 245C108.497 245.051 108.497 245.051 108.497 245.051C108.497 245.051 108.497 245.051 108.497 245.051Z" fill="white" stroke="#455A64"/>
<path d="M151 243L155.5 209.5C155.667 203.167 157.4 188.9 163 182.5" stroke="#E5E5E5" stroke-width="0.7"/>
<path d="M129 243.5L124.5 210C124.333 203.667 122.6 189.4 117 183" stroke="#E5E5E5" stroke-width="0.7"/>
<path d="M124.5 209.5C124.5 209.5 133.934 208.5 140 208.5C146.066 208.5 155.5 209.5 155.5 209.5" stroke="#E5E5E5" stroke-width="0.7"/>
<path d="M108 268C109 269.5 111 268 112 269C113 270 116.5 271 121 271" stroke="#E5E5E5" stroke-width="0.7"/>
<path d="M175.5 264.085C174.333 263.918 172.8 263.885 172 265.085C171 266.585 170 268.084 169 269.084C168 270.084 164.5 271.084 160 271.084" stroke="#E5E5E5" stroke-width="0.7"/>
<path d="M121 271C120.667 268.833 120.4 263.6 122 260C124 255.5 129 248.5 129 243" stroke="#E5E5E5" stroke-width="0.7"/>
<path d="M160 271C160.333 268.833 160.6 263.6 159 260C157 255.5 152 248.5 152 243" stroke="#E5E5E5" stroke-width="0.7"/>
<path d="M20.5 243L20.2764 243.447L20.3913 243.505L20.5196 243.5L20.5 243ZM20.5 243C20.5196 243.5 20.5198 243.5 20.5201 243.5L20.5218 243.5L20.5287 243.499L20.5562 243.498L20.6653 243.494C20.7615 243.49 20.9045 243.485 21.0909 243.478C21.4639 243.465 22.011 243.445 22.7072 243.422C24.0998 243.375 26.0887 243.312 28.474 243.25C33.245 243.125 39.5997 243 45.9375 243C52.2784 243 58.5903 243.125 63.2806 243.498C65.6301 243.685 67.5488 243.933 68.8553 244.251C69.5139 244.412 69.9787 244.582 70.2604 244.749C70.3779 244.818 70.4398 244.872 70.472 244.907C70.4774 244.936 70.4823 244.961 70.4866 244.983C70.4943 245.022 70.5002 245.052 70.5042 245.071L70.5089 245.094L70.5102 245.1L70.5105 245.102L70.5107 245.103C70.5107 245.103 70.5107 245.103 71 245L70.5107 245.103L71.4961 245.062C71.5199 244.872 71.489 244.703 71.4228 244.553C71.4169 244.521 71.4107 244.487 71.404 244.451C71.3482 244.143 71.2669 243.673 71.1659 243.025C70.964 241.728 70.6838 239.72 70.372 236.883C69.7486 231.21 68.9996 222.225 68.5 208.991C68.4993 197.716 67.2472 191.404 65.9699 187.892C65.3302 186.133 64.6809 185.066 64.1717 184.43C63.9169 184.111 63.6973 183.901 63.5322 183.765C63.4497 183.697 63.381 183.648 63.3286 183.614C63.3025 183.597 63.2804 183.584 63.2628 183.574C63.254 183.569 63.2463 183.565 63.2397 183.561L63.2308 183.556L63.227 183.555L63.2252 183.554C63.2244 183.553 63.2236 183.553 63 184L63.2236 183.553L63.1556 183.519L63.0806 183.507C50.7978 181.501 39.7699 181 31.8125 181C27.8333 181 24.6207 181.125 22.4015 181.251C21.2918 181.314 20.4304 181.376 19.8455 181.424C19.5531 181.447 19.3298 181.467 19.1792 181.481C19.1039 181.488 19.0468 181.493 19.0083 181.497L18.9715 181.5C18.9639 181.501 18.9548 181.501 18.9443 181.501C18.9125 181.502 18.8676 181.504 18.8107 181.508C18.6968 181.515 18.5343 181.529 18.3302 181.557C17.922 181.614 17.3465 181.725 16.6595 181.946C15.2841 182.388 13.4649 183.268 11.6529 185.015C8.02219 188.516 4.5 195.418 4.5 209H4.49991L4.50009 209.009C4.75198 222.36 8.65905 230.96 12.5346 236.234C14.4703 238.867 16.3934 240.665 17.8385 241.806C18.561 242.377 19.164 242.784 19.5896 243.05C19.8024 243.183 19.9708 243.281 20.0877 243.346C20.1461 243.379 20.1917 243.403 20.2234 243.42L20.2606 243.439L20.2712 243.445L20.2745 243.446L20.2756 243.447C20.276 243.447 20.2764 243.447 20.5 243ZM70.5053 244.961C70.5049 244.961 70.5037 244.958 70.5033 244.952C70.5055 244.958 70.5057 244.96 70.5053 244.961Z" fill="white" stroke="#455A64"/>
<path d="M70 271C69.977 271.926 69.829 280.81 69.9946 280.997L70 271ZM70 271C70 269 70.5 268 71.2484 268L70 271ZM54.8981 286.5L56 286.5L57.5 286.5H63.5882H63.62L63.6516 286.496L63.5882 286C63.6516 286.496 63.6519 286.496 63.6522 286.496L63.6528 286.496L63.6544 286.496L63.6586 286.495L63.6712 286.493C63.6815 286.492 63.6955 286.49 63.7131 286.487C63.7481 286.481 63.7975 286.472 63.8596 286.46C63.984 286.435 64.16 286.395 64.3772 286.332C64.8114 286.207 65.4115 285.991 66.0917 285.629C67.4553 284.902 69.1341 283.588 70.4371 281.243L70.8498 280.5H70.4446C70.4346 280.265 70.4276 279.946 70.4232 279.563C70.4133 278.704 70.4165 277.546 70.4259 276.355C70.4448 273.974 70.4883 271.477 70.4998 271.012L70.5 271.012V271C70.5 270.03 70.623 269.359 70.8017 268.95C70.9781 268.547 71.152 268.5 71.2484 268.5H71.6827L71.7435 268.07C72.2191 264.702 72.5 260.716 72.5 256C72.5 252.476 72.2483 249.951 71.9942 248.299C71.8671 247.473 71.7395 246.866 71.6424 246.461C71.5939 246.259 71.553 246.108 71.5237 246.005C71.5091 245.954 71.4973 245.915 71.4889 245.888L71.4789 245.856L71.4759 245.847L71.475 245.844L71.4746 245.843L71.4745 245.842C71.4744 245.842 71.4743 245.842 71 246L71.4743 245.842L71.437 245.73L71.3535 245.646C71.0316 245.324 70.5658 245.075 70.0484 244.874C69.5226 244.669 68.9009 244.499 68.2298 244.355C66.8871 244.067 65.3006 243.878 63.7915 243.752C62.2798 243.626 60.8328 243.563 59.7647 243.532C59.2303 243.516 58.79 243.508 58.483 243.504C58.3294 243.502 58.2092 243.501 58.127 243.501L58.0331 243.5L58.0087 243.5L58.0024 243.5L58.0007 243.5H58.0002C58.0001 243.5 58 243.5 58 244V243.5H20.538C20.5375 243.5 20.537 243.5 20.5366 243.5C20.5132 243.496 20.4728 243.487 20.416 243.473C20.3025 243.445 20.123 243.391 19.8822 243.294C19.4009 243.1 18.6723 242.731 17.7354 242.036C15.8607 240.645 13.1508 237.947 9.92513 232.737L9.60238 232.215L9.15664 232.637C5.37424 236.21 2.5 242.689 2.5 256C2.5 271.053 5.5085 278.686 8.60957 282.562C10.1629 284.504 11.7314 285.492 12.9327 285.993C13.5317 286.242 14.0359 286.369 14.3965 286.434C14.5768 286.466 14.7212 286.482 14.8237 286.491C14.875 286.495 14.9158 286.497 14.9454 286.499C14.9602 286.499 14.9723 286.5 14.9814 286.5L14.9929 286.5L14.997 286.5L14.9986 286.5C14.9993 286.5 15 286.5 15 286V286.5H21L23 286.5L24.1725 286.5L23.3608 285.654C21.8511 284.08 21.1366 282.411 20.7986 281.137C20.6295 280.499 20.555 279.962 20.5226 279.588C20.5065 279.4 20.5009 279.254 20.4993 279.157C20.4984 279.109 20.4986 279.072 20.4989 279.049L20.4994 279.025L20.4995 279.021L20.4996 279.021L20.4996 279.021L20.4996 279.021L20.4996 279.02L20.5 279.011V279V271.5C20.5 270.401 20.9316 269.672 21.5251 269.206C22.1354 268.726 22.9519 268.5 23.7298 268.5H39.2298H54.5743L54.6474 268.55L54.8088 268.547C55.8409 268.525 56.7733 268.751 57.4331 269.225C58.0709 269.682 58.5 270.403 58.5 271.5V279V279.041L58.5063 279.079L58.5065 279.08L58.5065 279.08L58.5066 279.081L58.5067 279.082L58.5085 279.095C58.5104 279.111 58.5133 279.138 58.5161 279.175C58.5217 279.249 58.5271 279.365 58.5236 279.52C58.5165 279.829 58.4741 280.292 58.3274 280.879C58.0348 282.049 57.3232 283.729 55.6237 285.671L54.8981 286.5Z" fill="white" stroke="#455A64"/>
<path d="M57.9996 279.043L58.4992 279.062L58.4996 279.053V279.043V272.196V272.168C58.4996 271.641 58.4996 271.134 58.4311 270.693C58.3596 270.233 58.2067 269.792 57.8615 269.429C57.5198 269.071 57.0409 268.844 56.4232 268.703C55.8076 268.563 55.0149 268.5 54 268.5H39.4474H25C23.985 268.5 23.1922 268.563 22.5765 268.703C21.9588 268.844 21.4799 269.071 21.1381 269.429C20.7929 269.792 20.64 270.233 20.5684 270.693C20.5 271.134 20.5 271.641 20.5 272.168L20.5 272.196V279.043H20.4998L20.5002 279.057L21 279.043C20.5002 279.057 20.5002 279.058 20.5002 279.058L20.5002 279.059L20.5004 279.062L20.5007 279.072L20.5021 279.102C20.5035 279.127 20.5058 279.163 20.5095 279.208C20.5169 279.298 20.5302 279.426 20.5536 279.586C20.6004 279.908 20.6881 280.36 20.852 280.901C21.18 281.981 21.8142 283.416 23.0386 284.847C25.5008 287.725 30.2686 290.5 39.4474 290.5C48.6265 290.5 53.4189 287.725 55.9068 284.849C57.1441 283.419 57.7917 281.985 58.1299 280.905C58.2989 280.365 58.3909 279.912 58.4408 279.591C58.4657 279.43 58.4802 279.302 58.4885 279.212C58.4926 279.167 58.4952 279.132 58.4968 279.107L58.4986 279.076L58.499 279.067L58.4991 279.064L58.4992 279.063C58.4992 279.062 58.4992 279.062 57.9996 279.043Z" fill="white" stroke="#455A64"/>
<path d="M28 243L23.5 209.5C23.3333 203.167 21.6 188.9 16 182.5" stroke="#E5E5E5" stroke-width="0.7"/>
<path d="M50 243.5L54.5 210C54.6667 203.667 56.4 189.4 62 183" stroke="#E5E5E5" stroke-width="0.7"/>
<path d="M54.5 209.5C54.5 209.5 45.0657 208.5 39 208.5C32.9343 208.5 23.5 209.5 23.5 209.5" stroke="#E5E5E5" stroke-width="0.7"/>
<path d="M71 268C70 269.5 68 268 67 269C66 270 62.5 271 58 271" stroke="#E5E5E5" stroke-width="0.7"/>
<path d="M3.5 264.085C4.66667 263.918 6.2 263.885 7 265.085C8 266.585 9 268.084 10 269.084C11 270.084 14.5 271.084 19 271.084" stroke="#E5E5E5" stroke-width="0.7"/>
<path d="M58.0001 271C58.3334 268.833 58.6001 263.6 57.0001 260C55.0001 255.5 50 248.5 50 243" stroke="#E5E5E5" stroke-width="0.7"/>
<path d="M18.9999 271C18.6666 268.833 18.3999 263.6 19.9999 260C21.9999 255.5 27 248.5 27 243" stroke="#E5E5E5" stroke-width="0.7"/>
<path d="M65.9996 184L65.8851 183.513L65.5651 183.589L65.5073 183.912L65.9996 184ZM65.9996 184C65.8851 183.513 65.8852 183.513 65.8853 183.513L65.8858 183.513L65.8874 183.513L65.8928 183.511L65.913 183.507C65.9306 183.503 65.9565 183.497 65.9905 183.489C66.0587 183.474 66.1597 183.452 66.2932 183.425C66.5601 183.369 66.9571 183.29 67.4811 183.195C68.529 183.006 70.0851 182.755 72.1259 182.504C76.2076 182.001 82.228 181.5 89.9996 181.5C97.7712 181.5 103.792 182.001 107.873 182.504C109.914 182.755 111.47 183.006 112.518 183.195C113.042 183.29 113.439 183.369 113.706 183.425C113.839 183.452 113.94 183.474 114.009 183.489C114.043 183.497 114.069 183.503 114.086 183.507L114.106 183.511L114.112 183.513L114.113 183.513L114.114 183.513C114.114 183.513 114.114 183.513 114 184M65.9996 184C65.5073 183.912 65.5073 183.912 65.5073 183.912L65.5072 183.913L65.5071 183.914L65.5067 183.916L65.5057 183.922L65.5026 183.941C65.5002 183.956 65.497 183.978 65.4934 184.004C65.4861 184.058 65.4771 184.135 65.4691 184.229C65.4532 184.419 65.4412 184.684 65.4558 184.997C65.4846 185.611 65.6173 186.433 66.0487 187.218C68.4925 193.099 68.4996 198.987 68.4996 209V209.013L68.5003 209.026C68.5221 209.442 68.5437 209.853 68.5651 210.259C69.2256 222.832 69.6584 231.07 71.5054 243.076L71.5706 243.5H71.9996H107H107.46L107.498 243.042C107.855 238.759 108.264 234.772 108.674 230.788C109.371 224.002 110.067 217.227 110.499 209.026L110.5 209.013V209C110.5 196.033 111.001 192.118 113.187 187.243C113.761 186.379 114.086 185.599 114.269 185.027C114.362 184.737 114.418 184.5 114.452 184.332C114.468 184.248 114.479 184.181 114.486 184.133C114.49 184.109 114.492 184.09 114.494 184.076L114.496 184.059L114.497 184.053L114.497 184.051L114.497 184.05L114.497 184.05C114.497 184.05 114.497 184.05 114 184M114 184L114.114 183.513L114.541 183.614L114.497 184.05L114 184Z" fill="white" stroke="#455A64"/>
<path d="M107.49 244.098L107.49 244.098L107.49 244.098L107.49 244.101L107.488 244.111L107.48 244.152C107.473 244.189 107.462 244.244 107.449 244.318C107.422 244.465 107.384 244.685 107.337 244.971C107.245 245.542 107.121 246.379 106.996 247.433C106.748 249.543 106.5 252.523 106.5 256C106.5 259.99 106.625 262.979 106.749 264.969C106.811 265.963 106.873 266.708 106.92 267.203C106.943 267.451 106.962 267.636 106.976 267.758C106.982 267.819 106.988 267.865 106.991 267.895L106.995 267.928L106.996 267.936L106.996 267.938L107.49 244.098ZM107.49 244.098L107.61 243.5M107.49 244.098L107.61 243.5M71.7725 267.917L71.7725 267.917L71.7725 267.917ZM71.7725 267.917L71.7726 267.917L71.7728 267.915L71.7741 267.908L71.7793 267.875C71.784 267.845 71.791 267.8 71.8 267.739C71.8181 267.617 71.8441 267.433 71.8757 267.186C71.9389 266.693 72.0242 265.95 72.1115 264.956C72.2862 262.969 72.4691 259.983 72.4999 255.996C72.5223 253.097 72.3207 250.115 72.1127 247.854C72.0088 246.725 71.9035 245.777 71.8243 245.112C71.7847 244.78 71.7516 244.518 71.7284 244.34C71.7169 244.251 71.7078 244.183 71.7016 244.137L71.6946 244.086L71.6928 244.073L71.6924 244.07L71.6923 244.069L71.6923 244.069L72.1875 244M71.7725 267.917L72.1875 244M72.1875 244L71.6923 244.069M72.1875 244L71.6923 244.069M107.61 243.5H107M107.61 243.5H107M107 243.5H72.1875H71.613M107 243.5H71.613M71.613 243.5L71.6923 244.069M71.613 243.5L71.6923 244.069" fill="white" stroke="#455A64"/>
<path d="M108 279.043L108.499 279.062L108.5 279.053V279.043V272.196V272.168C108.5 271.641 108.5 271.134 108.431 270.693C108.36 270.233 108.207 269.792 107.862 269.429C107.52 269.071 107.041 268.844 106.423 268.703C105.808 268.563 105.015 268.5 104 268.5H89.4474H75C73.985 268.5 73.1922 268.563 72.5765 268.703C71.9588 268.844 71.4799 269.071 71.1381 269.429C70.7929 269.792 70.64 270.233 70.5684 270.693C70.5 271.134 70.5 271.641 70.5 272.168L70.5 272.196V279.043H70.4998L70.5002 279.057L71 279.043C70.5002 279.057 70.5002 279.058 70.5002 279.058L70.5002 279.059L70.5004 279.062L70.5007 279.072L70.5021 279.102C70.5035 279.127 70.5058 279.163 70.5095 279.208C70.5169 279.298 70.5302 279.426 70.5536 279.586C70.6004 279.908 70.6881 280.36 70.852 280.901C71.18 281.981 71.8142 283.416 73.0386 284.847C75.5008 287.725 80.2686 290.5 89.4474 290.5C98.6265 290.5 103.419 287.725 105.907 284.849C107.144 283.419 107.792 281.985 108.13 280.905C108.299 280.365 108.391 279.912 108.441 279.591C108.466 279.43 108.48 279.302 108.488 279.212C108.493 279.167 108.495 279.132 108.497 279.107L108.499 279.076L108.499 279.067L108.499 279.064L108.499 279.063C108.499 279.062 108.499 279.062 108 279.043Z" fill="white" stroke="#455A64"/>
<path d="M110 209.5C110 209.5 97.5153 208.5 89.5 208.5C81.4847 208.5 69 209.5 69 209.5" stroke="#E5E5E5" stroke-width="0.7"/>
<path d="M82.0832 145.484L77.546 63.8139C77.7241 63.897 77.9298 63.992 78.1591 64.0963C79.0103 64.4835 80.1897 65 81.5013 65.5169C82.812 66.0334 84.261 66.5527 85.6505 66.9436C87.0325 67.3324 88.3877 67.6034 89.5 67.6034C90.6123 67.6034 91.9675 67.3324 93.3495 66.9436C94.739 66.5527 96.188 66.0334 97.4987 65.5169C98.8103 65 99.9897 64.4835 100.841 64.0963C101.07 63.992 101.276 63.897 101.454 63.8139L96.9168 145.484C96.6981 149.42 93.4424 152.5 89.5 152.5C85.5576 152.5 82.3019 149.42 82.0832 145.484Z" fill="white" stroke="#455A64"/>
<path d="M106.029 59.8382C105.46 60.0279 104.794 60.3221 104.041 60.7763C105.873 57.6498 107.489 55.5526 108.836 53.8043C109.18 53.3587 109.505 52.9358 109.813 52.5243C111.583 50.1553 112.739 48.165 112.999 44.5356L113.003 44.4755L112.993 44.4161L109.093 21.5025C121.466 21.6072 135.369 24.9649 147.79 29.1612C160.069 33.3095 170.865 38.2651 177.249 41.665C176.731 42.4303 176.25 43.4794 175.808 44.6715C175.257 46.1576 174.748 47.9181 174.302 49.7437C173.46 53.1878 172.829 56.8978 172.549 59.4976C168.464 59.4545 163.521 58.84 158.171 58.175C157.714 58.1182 157.254 58.061 156.791 58.0038C150.729 57.254 144.226 56.5 138 56.5C130.67 56.5 123.74 57.2532 118.35 58.0048C116.062 58.324 114.048 58.6432 112.402 58.9043C112.11 58.9506 111.83 58.995 111.561 59.0373C109.754 59.3223 108.545 59.5 108 59.5C107.721 59.5 107.037 59.5023 106.029 59.8382Z" fill="white" stroke="#455A64"/>
<path d="M71.9706 59.8382C72.54 60.0279 73.2065 60.3221 73.9587 60.7763C72.1267 57.6498 70.5108 55.5526 69.1637 53.8043C68.8204 53.3587 68.4945 52.9358 68.187 52.5243C66.4166 50.1553 65.2605 48.165 65.0013 44.5356L64.997 44.4755L65.0071 44.4161L68.9073 21.5025C56.5335 21.6072 42.6311 24.9649 30.21 29.1612C17.9311 33.3095 7.13518 38.2651 0.75061 41.665C1.26868 42.4303 1.75017 43.4794 2.19224 44.6715C2.74339 46.1576 3.25175 47.9181 3.69819 49.7437C4.54044 53.1878 5.17054 56.8978 5.45111 59.4976C9.53587 59.4545 14.4793 58.84 19.8293 58.175C20.2863 58.1182 20.7462 58.061 21.2088 58.0038C27.2711 57.254 33.7738 56.5 40 56.5C47.3299 56.5 54.2601 57.2532 59.6496 58.0048C61.9384 58.324 63.9518 58.6432 65.598 58.9043C65.8899 58.9506 66.1703 58.995 66.4386 59.0373C68.2457 59.3223 69.4548 59.5 70 59.5C70.2789 59.5 70.963 59.5023 71.9706 59.8382Z" fill="white" stroke="#455A64"/>
<path d="M177 313C174.6 310.2 172.5 299.667 172 294.5C162.897 294.5 149.383 297.5 137 297.5H89H41C28.6171 297.5 15.1034 294.5 6 294.5C5.5 299.667 3.4 310.2 1 313C13.6667 319.833 41 333.5 89 333.5C137 333.5 164.333 319.833 177 313Z" fill="white" stroke="#455A64"/>
<path d="M89 67.4963C87.6251 67.3241 85.0312 66.6442 82.4217 65.6102C79.7602 64.5555 77.192 63.1744 75.8763 61.6707C74.1395 59.6858 71.3992 56.1987 69.0922 53.0189C67.939 51.4293 66.8996 49.9241 66.1504 48.7269C65.7753 48.1275 65.4781 47.6136 65.2765 47.2094C65.1756 47.0071 65.1027 46.8404 65.0561 46.7095C65.0329 46.6445 65.018 46.5932 65.0092 46.5545C65.0012 46.5191 65.0002 46.5023 65 46.5001C65 46.4998 65 46.4997 65 46.5C65 46.348 65.0686 45.7751 65.2047 44.8246C65.3374 43.8979 65.5268 42.6595 65.753 41.2187C66.2055 38.3375 66.8044 34.6547 67.3899 31.0537C67.9696 27.4886 68.5363 24.0032 68.9343 21.46L89 19.5024L109.066 21.46C109.464 24.0028 110.03 27.4873 110.61 31.0517L110.61 31.0537C111.196 34.6547 111.794 38.3375 112.247 41.2187C112.473 42.6595 112.663 43.8979 112.795 44.8246C112.931 45.7751 113 46.348 113 46.5C113 46.4997 113 46.4998 113 46.5001C113 46.5023 112.999 46.5191 112.991 46.5545C112.982 46.5932 112.967 46.6445 112.944 46.7095C112.897 46.8404 112.824 47.0071 112.723 47.2094C112.522 47.6136 112.225 48.1275 111.85 48.7269C111.1 49.9241 110.061 51.4293 108.908 53.0189C106.601 56.1987 103.861 59.6858 102.124 61.6707C100.808 63.1744 98.2398 64.5555 95.5783 65.6102C92.9688 66.6442 90.3749 67.3241 89 67.4963Z" fill="white" stroke="#455A64"/>
<path d="M73.45 4.3V6.15H76.69V7.45H73.45V10H71.83V3H77.12V4.3H73.45ZM82.6767 10L81.3267 8.05H81.2467H79.8367V10H78.2167V3H81.2467C81.8667 3 82.4034 3.10333 82.8567 3.31C83.3167 3.51667 83.6701 3.81 83.9167 4.19C84.1634 4.57 84.2867 5.02 84.2867 5.54C84.2867 6.06 84.1601 6.51 83.9067 6.89C83.6601 7.26333 83.3067 7.55 82.8467 7.75L84.4167 10H82.6767ZM82.6467 5.54C82.6467 5.14667 82.5201 4.84667 82.2667 4.64C82.0134 4.42667 81.6434 4.32 81.1567 4.32H79.8367V6.76H81.1567C81.6434 6.76 82.0134 6.65333 82.2667 6.44C82.5201 6.22667 82.6467 5.92667 82.6467 5.54ZM88.9602 10.12C88.2336 10.12 87.5769 9.96333 86.9902 9.65C86.4102 9.33667 85.9536 8.90667 85.6202 8.36C85.2936 7.80667 85.1302 7.18667 85.1302 6.5C85.1302 5.81333 85.2936 5.19667 85.6202 4.65C85.9536 4.09667 86.4102 3.66333 86.9902 3.35C87.5769 3.03667 88.2336 2.88 88.9602 2.88C89.6869 2.88 90.3402 3.03667 90.9202 3.35C91.5002 3.66333 91.9569 4.09667 92.2902 4.65C92.6236 5.19667 92.7902 5.81333 92.7902 6.5C92.7902 7.18667 92.6236 7.80667 92.2902 8.36C91.9569 8.90667 91.5002 9.33667 90.9202 9.65C90.3402 9.96333 89.6869 10.12 88.9602 10.12ZM88.9602 8.74C89.3736 8.74 89.7469 8.64667 90.0802 8.46C90.4136 8.26667 90.6736 8 90.8602 7.66C91.0536 7.32 91.1502 6.93333 91.1502 6.5C91.1502 6.06667 91.0536 5.68 90.8602 5.34C90.6736 5 90.4136 4.73667 90.0802 4.55C89.7469 4.35667 89.3736 4.26 88.9602 4.26C88.5469 4.26 88.1736 4.35667 87.8402 4.55C87.5069 4.73667 87.2436 5 87.0502 5.34C86.8636 5.68 86.7702 6.06667 86.7702 6.5C86.7702 6.93333 86.8636 7.32 87.0502 7.66C87.2436 8 87.5069 8.26667 87.8402 8.46C88.1736 8.64667 88.5469 8.74 88.9602 8.74ZM100.428 3V10H99.0977L95.6077 5.75V10H94.0077V3H95.3477L98.8277 7.25V3H100.428ZM103.534 4.32H101.294V3H107.394V4.32H105.154V10H103.534V4.32Z" fill="#455A64"/>
<path d="M79.97 343.36C80.37 343.487 80.6833 343.7 80.91 344C81.1367 344.293 81.25 344.657 81.25 345.09C81.25 345.703 81.01 346.177 80.53 346.51C80.0567 346.837 79.3633 347 78.45 347H74.83V340H78.25C79.1033 340 79.7567 340.163 80.21 340.49C80.67 340.817 80.9 341.26 80.9 341.82C80.9 342.16 80.8167 342.463 80.65 342.73C80.49 342.997 80.2633 343.207 79.97 343.36ZM76.44 341.22V342.87H78.05C78.45 342.87 78.7533 342.8 78.96 342.66C79.1667 342.52 79.27 342.313 79.27 342.04C79.27 341.767 79.1667 341.563 78.96 341.43C78.7533 341.29 78.45 341.22 78.05 341.22H76.44ZM78.33 345.78C78.7567 345.78 79.0767 345.71 79.29 345.57C79.51 345.43 79.62 345.213 79.62 344.92C79.62 344.34 79.19 344.05 78.33 344.05H76.44V345.78H78.33ZM87.0865 345.5H83.8365L83.2165 347H81.5565L84.6765 340H86.2765L89.4065 347H87.7065L87.0865 345.5ZM86.5765 344.27L85.4665 341.59L84.3565 344.27H86.5765ZM93.3851 347.12C92.6717 347.12 92.0251 346.967 91.4451 346.66C90.8717 346.347 90.4184 345.917 90.0851 345.37C89.7584 344.817 89.5951 344.193 89.5951 343.5C89.5951 342.807 89.7584 342.187 90.0851 341.64C90.4184 341.087 90.8717 340.657 91.4451 340.35C92.0251 340.037 92.6751 339.88 93.3951 339.88C94.0017 339.88 94.5484 339.987 95.0351 340.2C95.5284 340.413 95.9417 340.72 96.2751 341.12L95.2351 342.08C94.7617 341.533 94.1751 341.26 93.4751 341.26C93.0417 341.26 92.6551 341.357 92.3151 341.55C91.9751 341.737 91.7084 342 91.5151 342.34C91.3284 342.68 91.2351 343.067 91.2351 343.5C91.2351 343.933 91.3284 344.32 91.5151 344.66C91.7084 345 91.9751 345.267 92.3151 345.46C92.6551 345.647 93.0417 345.74 93.4751 345.74C94.1751 345.74 94.7617 345.463 95.2351 344.91L96.2751 345.87C95.9417 346.277 95.5284 346.587 95.0351 346.8C94.5417 347.013 93.9917 347.12 93.3851 347.12ZM99.9191 344.25L98.9791 345.23V347H97.3691V340H98.9791V343.27L102.079 340H103.879L100.979 343.12L104.049 347H102.159L99.9191 344.25Z" fill="#455A64"/>
</svg>
