<svg width="18" height="18" viewBox="0 0 18 18" fill="none" xmlns="http://www.w3.org/2000/svg">
<path fill-rule="evenodd" clip-rule="evenodd" d="M5.31825 4C5.31825 2.89543 6.21368 2 7.31825 2H10.3182C11.4228 2 12.3182 2.89543 12.3182 4V5.54545H13.8184C14.9229 5.54545 15.8184 6.44089 15.8184 7.54545V13C15.8184 14.1046 14.9229 15 13.8184 15H3.81836C2.71379 15 1.81836 14.1046 1.81836 13V7.54545C1.81836 6.44088 2.71379 5.54545 3.81836 5.54545H5.31825V4ZM7.48505 3.18188C6.93276 3.18188 6.48505 3.6296 6.48505 4.18188V5.54552H11.1517V4.18188C11.1517 3.6296 10.704 3.18188 10.1517 3.18188H7.48505Z" fill="#1E88E5"/>
<mask id="path-3-outside-1" maskUnits="userSpaceOnUse" x="11" y="11" width="7" height="7" fill="black">
<rect fill="white" x="11" y="11" width="7" height="7"/>
<path fill-rule="evenodd" clip-rule="evenodd" d="M15 12H14V14H12V15H14V17H15V15H17V14H15V12Z"/>
</mask>
<path fill-rule="evenodd" clip-rule="evenodd" d="M15 12H14V14H12V15H14V17H15V15H17V14H15V12Z" fill="#1E88E5"/>
<path d="M14 12V11H13V12H14ZM15 12H16V11H15V12ZM14 14V15H15V14H14ZM12 14V13H11V14H12ZM12 15H11V16H12V15ZM14 15H15V14H14V15ZM14 17H13V18H14V17ZM15 17V18H16V17H15ZM15 15V14H14V15H15ZM17 15V16H18V15H17ZM17 14H18V13H17V14ZM15 14H14V15H15V14ZM14 13H15V11H14V13ZM15 14V12H13V14H15ZM12 15H14V13H12V15ZM13 15V14H11V15H13ZM14 14H12V16H14V14ZM15 17V15H13V17H15ZM15 16H14V18H15V16ZM14 15V17H16V15H14ZM17 14H15V16H17V14ZM16 14V15H18V14H16ZM15 15H17V13H15V15ZM14 12V14H16V12H14Z" fill="white" mask="url(#path-3-outside-1)"/>
</svg>
