<svg width="24" height="24" viewBox="0 0 24 24" fill="none" xmlns="http://www.w3.org/2000/svg">
<g clip-path="url(#clip0)">
<path d="M11.001 10H13.001V15H11.001V10ZM11 16H13V18H11V16Z" fill="#99ABB4"/>
<path d="M13.7679 4.20018C13.4199 3.54518 12.7419 3.13818 11.9999 3.13818C11.2579 3.13818 10.5799 3.54518 10.2319 4.20118L2.89395 18.0642C2.73112 18.3686 2.65046 18.7102 2.65993 19.0553C2.6694 19.4005 2.76867 19.7371 2.94795 20.0322C3.12465 20.3286 3.37559 20.5737 3.676 20.7435C3.97641 20.9133 4.3159 21.0017 4.66095 21.0002H19.3389C20.0469 21.0002 20.6879 20.6382 21.0529 20.0322C21.2319 19.737 21.331 19.4004 21.3405 19.0553C21.35 18.7103 21.2695 18.3687 21.1069 18.0642L13.7679 4.20018ZM4.66095 19.0002L11.9999 5.13718L19.3439 19.0002H4.66095Z" fill="#99ABB4"/>
<mask id="path-4-outside-1" maskUnits="userSpaceOnUse" x="14" y="15" width="10" height="10" fill="black">
<rect fill="white" x="14" y="15" width="10" height="10"/>
<path fill-rule="evenodd" clip-rule="evenodd" d="M20 16H18V19H15V21H18V24H20V21H23V19H20V16Z"/>
</mask>
<path fill-rule="evenodd" clip-rule="evenodd" d="M20 16H18V19H15V21H18V24H20V21H23V19H20V16Z" fill="#99ABB4"/>
<path d="M18 16V15H17V16H18ZM20 16H21V15H20V16ZM18 19V20H19V19H18ZM15 19V18H14V19H15ZM15 21H14V22H15V21ZM18 21H19V20H18V21ZM18 24H17V25H18V24ZM20 24V25H21V24H20ZM20 21V20H19V21H20ZM23 21V22H24V21H23ZM23 19H24V18H23V19ZM20 19H19V20H20V19ZM18 17H20V15H18V17ZM19 19V16H17V19H19ZM15 20H18V18H15V20ZM16 21V19H14V21H16ZM18 20H15V22H18V20ZM19 24V21H17V24H19ZM20 23H18V25H20V23ZM19 21V24H21V21H19ZM23 20H20V22H23V20ZM22 19V21H24V19H22ZM20 20H23V18H20V20ZM19 16V19H21V16H19Z" fill="white" mask="url(#path-4-outside-1)"/>
</g>
<defs>
<clipPath id="clip0">
<rect width="24" height="24" fill="white"/>
</clipPath>
</defs>
</svg>
