<svg width="24" height="24" viewBox="0 0 24 24" fill="none" xmlns="http://www.w3.org/2000/svg">
<path d="M12 4C6.486 4 2 8.486 2 14C1.99871 15.5434 2.35864 17.0656 3.051 18.445C3.221 18.785 3.567 19 3.946 19H20.053C20.432 19 20.779 18.785 20.949 18.445C21.6414 17.0656 22.0013 15.5434 22 14C22 8.486 17.514 4 12 4ZM19.41 17H4.59C4.19924 16.0481 3.99879 15.0289 4 14C4 9.589 7.589 6 12 6C16.411 6 20 9.589 20 14C20.0012 15.0289 19.8008 16.0481 19.41 17Z" fill="#CED4DA"/>
<path d="M10.9392 12.9391C10.7265 13.0782 10.5518 13.2681 10.4308 13.4917C10.3099 13.7153 10.2466 13.9654 10.2466 14.2196C10.2466 14.4738 10.3099 14.724 10.4308 14.9475C10.5518 15.1711 10.7265 15.361 10.9392 15.5001C11.1073 15.6107 11.2955 15.6871 11.4932 15.7248C11.6908 15.7626 11.8939 15.761 12.091 15.7201C12.288 15.6792 12.475 15.5999 12.6413 15.4866C12.8076 15.3734 12.95 15.2284 13.0602 15.0601L17.0222 9.02211C17.0254 9.01683 17.027 9.01078 17.027 9.00461C17.027 8.99845 17.0254 8.9924 17.0222 8.98711C17.0175 8.9799 17.0101 8.97482 17.0017 8.97295C16.9933 8.97109 16.9845 8.97258 16.9772 8.97711L10.9392 12.9391Z" fill="#CED4DA"/>
</svg>
